<?xml version="1.0" standalone="no"?>
<!DOCTYPE svg PUBLIC "-//W3C//DTD SVG 1.1//EN" "http://www.w3.org/Graphics/SVG/1.1/DTD/svg11.dtd" >
<svg>
<metadata>
Created by FontForge 20120731 at Sun Jun 30 05:46:12 2019
 By www
Copyright (c) 2014 by Vyacheslav Kirilenko, Gayane Bagdasaryan. All rights reserved.
</metadata>
<defs>
<font id="FormularW03-Medium" horiz-adv-x="630" >
  <font-face 
    font-family="FormularW03-Medium"
    font-weight="500"
    font-stretch="normal"
    units-per-em="1000"
    panose-1="2 0 0 0 0 0 0 0 0 0"
    ascent="800"
    descent="-200"
    x-height="509"
    cap-height="714"
    bbox="-140 -226 1398 974"
    underline-thickness="50"
    underline-position="-75"
    unicode-range="U+000D-FB02"
  />
<missing-glyph horiz-adv-x="522" 
d="M55 0v714h412v-714h-412zM126 65h271v584h-271v-584z" />
    <glyph glyph-name="uniFB01" unicode="fi" horiz-adv-x="677" 
d="M365 413h-136v-413h-113v413h-91v96h91v48q0 90 47 130t137 40h73v-96h-69q-75 0 -75 -78v-44h136v-96zM601 614h-120v113h120v-113zM597 509v-509h-113v509h113z" />
    <glyph glyph-name="uniFB02" unicode="fl" horiz-adv-x="674" 
d="M365 413h-136v-413h-113v413h-91v96h91v48q0 90 47 130t137 40h73v-96h-69q-75 0 -75 -78v-44h136v-96zM483 727h113v-727h-113v727z" />
    <glyph glyph-name=".notdef" horiz-adv-x="522" 
d="M55 0v714h412v-714h-412zM126 65h271v584h-271v-584z" />
    <glyph glyph-name="glyph1" horiz-adv-x="0" 
 />
    <glyph glyph-name="glyph1" horiz-adv-x="0" 
 />
    <glyph glyph-name="uni000D" unicode="&#xd;" horiz-adv-x="278" 
 />
    <glyph glyph-name="space" unicode=" " horiz-adv-x="278" 
 />
    <glyph glyph-name="exclam" unicode="!" horiz-adv-x="331" 
d="M106 714h120v-292l-21 -220h-78l-21 220v292zM231 0h-131v134h131v-134z" />
    <glyph glyph-name="quotedbl" unicode="&#x22;" horiz-adv-x="433" 
d="M75 443v271h104v-271h-104zM254 443v271h104v-271h-104z" />
    <glyph glyph-name="numbersign" unicode="#" horiz-adv-x="618" 
d="M67 513h115l30 187h90l-29 -187h124l30 187h90l-30 -187h99v-88h-112l-24 -151h101v-88h-115l-29 -186h-92l30 186h-124l-29 -186h-92l30 186h-98v88h112l25 151h-102v88zM259 425l-24 -151h124l24 151h-124z" />
    <glyph glyph-name="dollar" unicode="$" horiz-adv-x="641" 
d="M396 401q76 -14 117.5 -47.5t56.5 -72.5t15 -81q0 -40 -15.5 -77t-45.5 -66.5t-74.5 -48t-98.5 -21.5v-85h-66v86q-104 8 -166 66t-73 153h115q4 -24 18.5 -50t43 -44.5t62.5 -22.5v228l-42 10q-173 39 -173 184q0 80 58.5 138t156.5 64v84h67v-86q21 -2 47 -8.5
t52.5 -20t50.5 -36.5t41.5 -57.5t22.5 -73.5h-114q-8 38 -34 64t-66 31v-200zM368 303l-16 4v-219q36 1 65.5 18.5t41 42.5t11.5 46q0 43 -27 70t-75 38zM185 516q0 -40 23 -60.5t77 -33.5v191q-43 -3 -71.5 -30t-28.5 -67z" />
    <glyph glyph-name="percent" unicode="%" horiz-adv-x="880" 
d="M273 0h-89l424 700h88zM206 714q49 0 85 -22t57.5 -64.5t21.5 -102.5q0 -83 -43 -136t-121 -53q-29 0 -58.5 9.5t-52.5 32.5t-37.5 60t-14.5 87t14.5 86.5t37.5 60t52.5 33t58.5 9.5zM206 409q20 0 40 11t31.5 39t11.5 66q0 51 -21.5 83.5t-61.5 32.5q-19 0 -39 -11
t-31.5 -39.5t-11.5 -65.5q0 -38 11.5 -66t31.5 -39t39 -11zM673 365q49 0 85 -22t57.5 -64.5t21.5 -102.5q0 -83 -43 -136t-121 -53t-121 53t-43 136q0 60 21.5 102.5t57.5 64.5t85 22zM673 60q19 0 39 11t32 39t12 66q0 37 -12 65.5t-32 39.5t-39 11q-40 0 -61.5 -32.5
t-21.5 -83.5q0 -38 11.5 -66t31.5 -39t40 -11z" />
    <glyph glyph-name="ampersand" unicode="&#x26;" horiz-adv-x="743" 
d="M538 342h109q-7 -53 -26.5 -104.5t-48.5 -92.5l142 -145h-139l-62 63h-20q-42 -36 -94.5 -56t-106.5 -20q-24 0 -55 4t-61.5 16.5t-58 35.5t-45 61.5t-17.5 86.5q0 114 125 195v20q-36 43 -52.5 74.5t-16.5 72.5q0 71 49 116t129 45q29 0 61 -7.5t60.5 -26t48 -50
t19.5 -75.5q0 -40 -23.5 -78.5t-109.5 -99.5l152 -157q14 24 25.5 58t15.5 64zM296 84q82 0 137 60l-173 179l-29 -19q-64 -43 -64 -110q0 -51 36 -80.5t93 -29.5zM285 441l33 24q28 21 42 41t14 46q0 32 -24 51.5t-58 19.5t-55.5 -19t-21.5 -53q0 -20 10.5 -42t40.5 -50z
" />
    <glyph glyph-name="quotesingle" unicode="'" horiz-adv-x="254" 
d="M75 443v271h104v-271h-104z" />
    <glyph glyph-name="parenleft" unicode="(" horiz-adv-x="310" 
d="M148 312q0 -122 39 -233t120 -220h-104q-80 97 -119 212t-39 241q0 72 13.5 145.5t47.5 151.5t92 150h104q-78 -108 -116 -217.5t-38 -229.5z" />
    <glyph glyph-name="parenright" unicode=")" horiz-adv-x="310" 
d="M162 312q0 120 -38 229.5t-116 217.5h104q49 -61 82.5 -130t52 -148.5t18.5 -168.5q0 -126 -39 -241t-119 -212h-104q81 109 120 220t39 233z" />
    <glyph glyph-name="asterisk" unicode="*" horiz-adv-x="486" 
d="M202 714h82l-6 -164l155 57l26 -79l-158 -46l101 -129l-67 -50l-93 136l-91 -136l-67 50l100 129l-157 46l26 79l154 -57z" />
    <glyph glyph-name="plus" unicode="+" horiz-adv-x="678" 
d="M290 335v207h97v-207h208v-96h-208v-207h-97v207h-207v96h207z" />
    <glyph glyph-name="comma" unicode="," horiz-adv-x="279" 
d="M132 0h-58v134h131v-151l-66 -112h-73l66 112v17z" />
    <glyph glyph-name="hyphen" unicode="-" horiz-adv-x="384" 
d="M336 230h-288v99h288v-99z" />
    <glyph glyph-name="period" unicode="." horiz-adv-x="277" 
d="M204 0h-131v134h131v-134z" />
    <glyph glyph-name="slash" unicode="/" horiz-adv-x="423" 
d="M97 -141h-99l302 900h96z" />
    <glyph glyph-name="zero" unicode="0" horiz-adv-x="636" 
d="M318 714q57 0 105.5 -21.5t84.5 -66.5t56 -115t20 -161t-20 -160.5t-56 -114.5t-84.5 -66.5t-105.5 -21.5t-106 21.5t-84.5 66.5t-55.5 114.5t-20 160.5t20 161t55.5 115t84.5 66.5t106 21.5zM318 91q50 0 82.5 30.5t49.5 87t17 141.5t-17 142t-49.5 87.5t-82.5 30.5
t-82.5 -30.5t-49.5 -87.5t-17 -142t17 -141.5t49.5 -87t82.5 -30.5z" />
    <glyph glyph-name="one" unicode="1" horiz-adv-x="518" 
d="M56 0v102h162v479h-20l-143 -94v117l144 96h135v-598h149v-102h-427z" />
    <glyph glyph-name="two" unicode="2" horiz-adv-x="595" 
d="M49 498q6 104 72 160t172 56q24 0 60.5 -5.5t74 -26.5t59.5 -51t32 -64t10 -72q0 -49 -23 -97.5t-56 -84.5t-62 -59l-162 -132v-20h325v-102h-499v121l250 199q110 87 110 174q0 55 -33.5 85.5t-88.5 30.5q-52 0 -85.5 -28.5t-39.5 -83.5h-116z" />
    <glyph glyph-name="three" unicode="3" horiz-adv-x="587" 
d="M76 700h430v-119l-152 -131v-21q50 -3 94.5 -27.5t68.5 -72.5t24 -107q0 -39 -12.5 -80.5t-47.5 -79.5t-88.5 -56.5t-108.5 -18.5q-40 0 -83.5 11t-80.5 37.5t-63 69.5t-29 100h117q5 -52 44 -83t95 -31q64 0 102.5 35.5t38.5 95.5q0 61 -37 96.5t-103 35.5q-37 0 -63 -6
v102l151 131v20h-297v99z" />
    <glyph glyph-name="four" unicode="4" horiz-adv-x="623" 
d="M490 259h91v-102h-91v-157h-113v157h-340v127l307 416h146v-441zM152 259h228v309h-20l-208 -289v-20z" />
    <glyph glyph-name="five" unicode="5" horiz-adv-x="610" 
d="M333 474q49 0 91 -17.5t72.5 -49t47 -75t16.5 -93.5q0 -55 -18.5 -102t-52 -80.5t-80 -51.5t-99.5 -18q-57 0 -104 16.5t-79.5 46t-50.5 69.5t-21 86h116q7 -55 42.5 -84.5t92.5 -29.5q62 0 99.5 39.5t37.5 105.5q0 65 -37 104.5t-98 39.5q-83 0 -125 -59h-112l31 379
h417v-99h-325l-13 -173h20q33 27 65.5 36.5t66.5 9.5z" />
    <glyph glyph-name="six" unicode="6" horiz-adv-x="608" 
d="M341 461q46 0 88 -17t73 -47.5t48.5 -73.5t17.5 -92t-17 -94t-49.5 -78.5t-79 -52.5t-102.5 -19q-90 0 -149 41t-89 116.5t-30 189.5q0 81 16.5 151t50.5 121t87 79.5t121 28.5q56 0 106 -22.5t79.5 -65t36.5 -88.5h-115q-22 77 -109 77q-71 0 -114 -57t-47 -160h20
q15 17 40.5 33t57 23t59.5 7zM318 87q27 0 58.5 12t53 45t21.5 83q0 49 -21.5 81.5t-53.5 44t-59 11.5t-59 -11.5t-53.5 -44t-21.5 -80.5q0 -49 22 -82.5t54 -46t59 -12.5z" />
    <glyph glyph-name="seven" unicode="7" horiz-adv-x="561" 
d="M510 580l-289 -580h-124l292 579v20h-341v101h462v-120z" />
    <glyph glyph-name="eight" unicode="8" horiz-adv-x="622" 
d="M464 360q28 -10 55 -37t40 -61t13 -68q0 -42 -17.5 -80t-51.5 -66.5t-83.5 -44.5t-108.5 -16q-60 0 -109.5 16t-83 44.5t-51.5 66.5t-18 80q0 34 13 68t40 61t55 37v20q-22 11 -44 34.5t-32 54t-10 57.5q0 82 66 135t174 53q107 0 173 -53t66 -135q0 -26 -10 -56.5
t-32 -54.5t-44 -35v-20zM311 620q-25 0 -55 -9.5t-51 -34.5t-21 -59q0 -46 36.5 -75t90.5 -29t90 29t36 75q0 34 -20.5 59t-50.5 34.5t-55 9.5zM311 87q25 0 51 6t49 21.5t34.5 41t11.5 49.5t-10 47t-28.5 38.5t-46 24t-61.5 8.5q-16 0 -36 -3t-39 -10.5t-35.5 -22t-26 -37
t-9.5 -45.5q0 -10 4 -30t16 -36t27.5 -26.5t40 -18t58.5 -7.5z" />
    <glyph glyph-name="nine" unicode="9" horiz-adv-x="608" 
d="M267 240q-46 0 -88 17t-73 47.5t-48.5 73.5t-17.5 92t17 94t49.5 78.5t79 52.5t102.5 19q90 0 149 -41t89 -116.5t30 -189.5q0 -81 -16.5 -151t-50.5 -121t-87 -79.5t-121 -28.5q-56 0 -106 22.5t-79.5 65t-36.5 88.5h115q22 -77 109 -77q71 0 114 57t47 160h-20
q-15 -17 -40.5 -33t-57 -23t-59.5 -7zM290 614q-27 0 -58.5 -12t-53 -45t-21.5 -83q0 -49 21.5 -81.5t53.5 -44t59 -11.5t59 11.5t53.5 44t21.5 80.5q0 49 -22 82.5t-54 46t-59 12.5z" />
    <glyph glyph-name="colon" unicode=":" horiz-adv-x="276" 
d="M203 0h-131v134h131v-134zM203 375h-131v134h131v-134z" />
    <glyph glyph-name="semicolon" unicode=";" horiz-adv-x="276" 
d="M130 0h-58v134h131v-151l-66 -112h-73l66 112v17zM203 375h-131v134h131v-134z" />
    <glyph glyph-name="less" unicode="&#x3c;" horiz-adv-x="670" 
d="M587 121v-100l-504 226v79l504 226v-100l-351 -156v-20z" />
    <glyph glyph-name="equal" unicode="=" horiz-adv-x="676" 
d="M593 233v-97h-510v97h510zM593 437v-97h-510v97h510z" />
    <glyph glyph-name="greater" unicode="&#x3e;" horiz-adv-x="670" 
d="M83 21v100l350 155v20l-350 156v100l504 -226v-79z" />
    <glyph glyph-name="question" unicode="?" horiz-adv-x="563" 
d="M274 727q67 0 122 -25t81.5 -72.5t26.5 -101.5q0 -43 -13.5 -74t-37 -54.5t-71.5 -59.5q-38 -27 -51 -46.5t-13 -57.5v-34h-115v34q0 59 22.5 93.5t82.5 81.5q45 34 57 49t17.5 31t5.5 37q0 29 -17 54t-43.5 35t-51.5 10q-116 0 -120 -118h-115q2 72 33.5 120.5t82 73
t117.5 24.5zM325 0h-131v134h131v-134z" />
    <glyph glyph-name="at" unicode="@" horiz-adv-x="976" 
d="M673 -61l27 -53q-119 -76 -266 -76q-86 0 -158 27.5t-122 78.5t-76.5 122t-26.5 155q0 50 12 114t44.5 128.5t81.5 115t112.5 84.5t127.5 46.5t114 12.5q77 0 147 -24t123 -70t83 -111.5t30 -144.5q0 -62 -16 -118t-46.5 -99t-75.5 -67.5t-99 -24.5q-82 0 -108 59h-18
q-51 -59 -129 -59q-75 0 -118 46t-43 129q0 49 15.5 95t44 82t68.5 57t87 21q37 0 65.5 -14.5t39.5 -33.5h18l8 34h92l-44 -254q-5 -32 -5 -49q0 -27 11.5 -39t36.5 -12q26 0 52.5 15.5t48.5 45.5t35.5 75.5t13.5 102.5q0 65 -21.5 120.5t-63 95t-103.5 61t-140 21.5
q-39 0 -90.5 -10t-105 -38.5t-96.5 -71t-72 -98t-40 -111.5t-11 -100q0 -68 18 -128.5t57 -107t101.5 -73t147.5 -26.5q125 0 232 69zM458 113q33 0 62.5 21.5t45 62.5t15.5 85q0 105 -85 105q-20 0 -41 -9.5t-40.5 -33.5t-29.5 -59.5t-10 -65.5q0 -49 21.5 -77.5
t61.5 -28.5z" />
    <glyph glyph-name="A" unicode="A" horiz-adv-x="705" 
d="M562 0l-66 205h-291l-65 -205h-122l237 714h194l238 -714h-125zM329 597l-90 -285h222l-91 285h-41z" />
    <glyph glyph-name="B" unicode="B" horiz-adv-x="713" 
d="M565 364q19 -8 42 -29t39.5 -57t16.5 -74q0 -43 -15 -80.5t-45.5 -65t-77.5 -43t-106 -15.5h-332v714h323q56 0 100 -14.5t73 -40t44 -59.5t15 -71q0 -47 -21 -87t-56 -58v-20zM399 421q120 0 120 95q0 94 -120 94h-192v-189h192zM403 104q137 0 137 108q0 52 -32.5 79.5
t-104.5 27.5h-196v-215h196z" />
    <glyph glyph-name="C" unicode="C" horiz-adv-x="728" 
d="M553 216h126q-19 -103 -96 -166t-195 -63q-78 0 -141.5 27.5t-106.5 77t-65.5 118t-22.5 147.5t22.5 147.5t66 118t107 77t141.5 27.5q112 0 187 -57.5t95 -153.5h-126q-33 102 -156 102q-66 0 -113 -31t-74.5 -89.5t-27.5 -140.5q0 -54 13 -101.5t39.5 -83t67.5 -56
t94 -20.5q31 0 66 10.5t62 39.5t37 70z" />
    <glyph glyph-name="D" unicode="D" horiz-adv-x="752" 
d="M370 714q80 0 142.5 -25.5t104 -72.5t62.5 -113t21 -146q0 -79 -21 -145.5t-62.5 -113.5t-104 -72.5t-142.5 -25.5h-283v714h283zM360 109q71 0 118.5 29t73.5 83.5t26 135.5q0 52 -12 97t-38 79t-68.5 53t-99.5 19h-153v-496h153z" />
    <glyph glyph-name="E" unicode="E" horiz-adv-x="659" 
d="M207 109h406v-109h-526v714h513v-109h-393v-184h311v-107h-311v-205z" />
    <glyph glyph-name="F" unicode="F" horiz-adv-x="642" 
d="M600 605h-393v-196h314v-107h-314v-302h-120v714h513v-109z" />
    <glyph glyph-name="G" unicode="G" horiz-adv-x="753" 
d="M381 388h316v-78q0 -63 -17.5 -121t-54.5 -103.5t-96.5 -72t-138.5 -26.5q-80 0 -143.5 27.5t-107 77.5t-65.5 118t-22 147t22.5 147t66 118t107.5 77.5t143 27.5q115 0 189.5 -56t95.5 -152h-125q-14 47 -54.5 73t-105.5 26q-53 0 -94.5 -20t-68.5 -55.5t-40.5 -83.5
t-13.5 -102t13.5 -102t40 -84t68.5 -56t95 -20q90 0 136.5 51t48.5 140h-195v102z" />
    <glyph glyph-name="H" unicode="H" horiz-adv-x="770" 
d="M564 714h120v-714h-120v312h-357v-312h-120v714h120v-290h357v290z" />
    <glyph glyph-name="I" unicode="I" horiz-adv-x="304" 
d="M92 714h120v-714h-120v714z" />
    <glyph glyph-name="J" unicode="J" horiz-adv-x="593" 
d="M274 -13q-51 0 -94 15.5t-75 45.5t-50.5 74t-21.5 99h120q3 -45 22 -75t47 -40t53 -10q24 0 51.5 11t44.5 43.5t17 83.5v480h120v-480q0 -116 -62.5 -181.5t-171.5 -65.5z" />
    <glyph glyph-name="K" unicode="K" horiz-adv-x="736" 
d="M87 0v714h120v-324l327 324h145l-217 -225l246 -489h-129l-199 385h-20l-153 -150v-235h-120z" />
    <glyph glyph-name="L" unicode="L" horiz-adv-x="637" 
d="M207 113h389v-113h-509v714h120v-601z" />
    <glyph glyph-name="M" unicode="M" horiz-adv-x="868" 
d="M87 0v714h186l152 -318h20l150 318h187v-714h-114v578h-20l-155 -320h-118l-154 320h-20v-578h-114z" />
    <glyph glyph-name="N" unicode="N" horiz-adv-x="774" 
d="M574 714h114v-714h-167l-300 542h-20v-542h-114v714h167l300 -542h20v542z" />
    <glyph glyph-name="O" unicode="O" horiz-adv-x="785" 
d="M393 727q80 0 144 -28t107.5 -78.5t66 -118.5t22.5 -145t-22.5 -145t-66 -118.5t-107.5 -78.5t-144 -28t-144.5 28t-108 78.5t-66 118.5t-22.5 145t22.5 145t66 118.5t108 78.5t144.5 28zM393 96q68 0 115.5 31t75 89.5t27.5 140.5t-27.5 140.5t-75 89.5t-115.5 31
t-116 -31t-75.5 -89.5t-27.5 -140.5t27.5 -140.5t75.5 -89.5t116 -31z" />
    <glyph glyph-name="P" unicode="P" horiz-adv-x="701" 
d="M401 714q118 0 184 -58.5t66 -161.5q0 -104 -66 -163.5t-184 -59.5h-194v-271h-120v714h314zM383 377q77 0 111.5 30t34.5 86q0 57 -34.5 86t-111.5 29h-176v-231h176z" />
    <glyph glyph-name="Q" unicode="Q" horiz-adv-x="785" 
d="M393 727q80 0 144 -28t107.5 -78.5t66 -118.5t22.5 -145q0 -82 -25 -153.5t-72 -120.5l94 -155h-117l-57 96q-71 -37 -163 -37q-80 0 -144.5 28t-108 78.5t-66 118.5t-22.5 145t22.5 145t66 118.5t108 78.5t144.5 28zM393 96q60 0 105 25l-120 202h112l81 -132
q40 64 40 166q0 82 -27.5 140.5t-75 89.5t-115.5 31t-116 -31t-75.5 -89.5t-27.5 -140.5t27.5 -140.5t75.5 -89.5t116 -31z" />
    <glyph glyph-name="R" unicode="R" horiz-adv-x="718" 
d="M413 714q115 0 179 -57t64 -158q0 -65 -28 -113.5t-79 -73.5l110 -312h-122l-101 286q-21 -2 -63 -2h-166v-284h-120v714h326zM207 608v-220h189q138 0 138 110q0 54 -32.5 82t-105.5 28h-189z" />
    <glyph glyph-name="S" unicode="S" horiz-adv-x="677" 
d="M605 526h-122q-22 96 -150 96q-59 0 -98 -25t-39 -72q0 -20 10 -38.5t34.5 -30.5t59.5 -19l134 -26q187 -41 187 -205q0 -44 -17.5 -83.5t-52.5 -70t-88.5 -48t-120.5 -17.5q-127 0 -206.5 61t-89.5 161h122q11 -63 60.5 -90t118.5 -27q31 0 68 9.5t61 35.5t24 64
q0 23 -9.5 45.5t-35 37.5t-63.5 23l-139 27q-85 16 -131.5 63.5t-46.5 124.5q0 31 10 60.5t29 54.5t46.5 43.5t71 32.5t103.5 14q112 0 185 -54.5t85 -146.5z" />
    <glyph glyph-name="T" unicode="T" horiz-adv-x="611" 
d="M594 714v-106h-228v-608h-120v608h-229v106h577z" />
    <glyph glyph-name="U" unicode="U" horiz-adv-x="750" 
d="M545 714h120v-455q0 -129 -76 -200.5t-214 -71.5t-214 71.5t-76 200.5v455h120v-452q0 -76 44.5 -121t125.5 -45t125.5 45t44.5 121v452z" />
    <glyph glyph-name="V" unicode="V" horiz-adv-x="687" 
d="M238 0l-220 714h127l177 -596h44l177 596h126l-220 -714h-211z" />
    <glyph glyph-name="W" unicode="W" horiz-adv-x="902" 
d="M374 485h154l113 -345h20l71 574h115l-90 -714h-180l-116 371h-20l-117 -371h-180l-89 714h117l70 -574h20z" />
    <glyph glyph-name="X" unicode="X" horiz-adv-x="671" 
d="M515 0l-166 309h-28l-170 -309h-132l207 376l-178 338h128l146 -273h28l149 273h127l-181 -334l207 -380h-137z" />
    <glyph glyph-name="Y" unicode="Y" horiz-adv-x="661" 
d="M317 409h26l171 305h131l-255 -452v-262h-120v262l-255 452h131z" />
    <glyph glyph-name="Z" unicode="Z" horiz-adv-x="656" 
d="M594 714v-130l-397 -454v-21h412v-109h-563v130l398 454v21h-371v109h521z" />
    <glyph glyph-name="bracketleft" unicode="[" horiz-adv-x="353" 
d="M297 -141h-224v900h224v-86h-123v-728h123v-86z" />
    <glyph glyph-name="backslash" unicode="\" horiz-adv-x="423" 
d="M425 -141h-99l-299 900h96z" />
    <glyph glyph-name="bracketright" unicode="]" horiz-adv-x="353" 
d="M280 -141h-224v86h123v728h-123v86h224v-900z" />
    <glyph glyph-name="asciicircum" unicode="^" horiz-adv-x="568" 
d="M145 283h-105l207 410h72l208 -410h-104l-132 259h-16z" />
    <glyph glyph-name="underscore" unicode="_" horiz-adv-x="509" 
d="M510 -144h-511v78h511v-78z" />
    <glyph glyph-name="grave" unicode="`" horiz-adv-x="292" 
d="M152 582l-112 145h123l89 -145h-100z" />
    <glyph glyph-name="a" unicode="a" horiz-adv-x="572" 
d="M395 0v49h-20q-23 -29 -62 -45.5t-89 -16.5q-53 0 -93.5 20.5t-65.5 58.5t-25 88q0 49 24.5 88t68.5 61t109 22h150v15q0 43 -27 68t-80 25q-47 0 -73 -17.5t-29 -47.5h-112q4 71 61.5 112.5t148.5 41.5q102 0 161 -46.5t59 -137.5v-338h-106zM257 79q35 0 64.5 14.5
t50 43t20.5 66.5v38h-130q-52 0 -80 -21.5t-28 -60.5q0 -38 27.5 -59t75.5 -21z" />
    <glyph glyph-name="b" unicode="b" horiz-adv-x="629" 
d="M355 522q50 0 92.5 -20t72 -56t45.5 -85t16 -106t-15.5 -106.5t-45.5 -85.5t-72 -56t-93 -20q-97 0 -147 63h-20v-50h-110v727h113v-268h20q47 63 144 63zM329 83q67 0 103 47.5t36 124.5q0 76 -36 123.5t-103 47.5q-44 0 -77.5 -23t-48.5 -64t-15 -84q0 -44 15 -85
t48.5 -64t77.5 -23z" />
    <glyph glyph-name="c" unicode="c" horiz-adv-x="568" 
d="M412 163h112q-12 -79 -72.5 -127.5t-151.5 -48.5q-57 0 -104.5 19.5t-80.5 55.5t-50 85.5t-17 107.5q0 57 17 106.5t50 85.5t80.5 55.5t104.5 19.5q91 0 150 -46.5t70 -121.5h-112q-11 34 -38 53t-69 19q-36 0 -63 -13.5t-44.5 -37.5t-25 -55.5t-7.5 -63.5t10 -73
t43.5 -70.5t86.5 -29.5q46 0 74.5 21t36.5 59z" />
    <glyph glyph-name="d" unicode="d" horiz-adv-x="629" 
d="M274 522q97 0 144 -63h20v268h113v-727h-110v50h-20q-50 -63 -147 -63q-51 0 -93 20t-72 56t-45.5 85.5t-15.5 106.5t16 106t45.5 85t72 56t92.5 20zM300 83q44 0 77.5 23t48.5 64t15 85q0 43 -15 84t-48.5 64t-77.5 23q-67 0 -103 -47.5t-36 -123.5q0 -77 36 -124.5
t103 -47.5z" />
    <glyph glyph-name="e" unicode="e" horiz-adv-x="583" 
d="M536 283v-38h-376q2 -78 38.5 -120t104.5 -42q44 0 72 17t39 48h115q-15 -73 -73.5 -117t-153.5 -44q-58 0 -106 20t-80.5 56t-50 86t-17.5 109t17.5 108t50 84t79.5 53.5t104 18.5q41 0 82.5 -12.5t75.5 -42t56 -76t23 -108.5zM298 432q-42 0 -71.5 -17t-43 -41
t-18.5 -45h255q-4 32 -23 57.5t-46.5 35.5t-52.5 10z" />
    <glyph glyph-name="f" unicode="f" horiz-adv-x="405" 
d="M365 413h-136v-413h-113v413h-91v96h91v48q0 90 47 130t137 40h73v-96h-69q-75 0 -75 -78v-44h136v-96z" />
    <glyph glyph-name="g" unicode="g" horiz-adv-x="629" 
d="M441 509h110v-484q0 -107 -67 -170.5t-179 -63.5q-102 0 -165.5 43t-72.5 121h112q14 -71 124 -71q69 0 102 39.5t33 109.5v35h-20q-20 -28 -55.5 -45.5t-85.5 -17.5q-51 0 -93.5 19t-73 53.5t-46.5 82.5t-16 103t16 103t46.5 83t73 54t93.5 19t88 -18t56 -45h20v50z
M300 101q34 0 61 13t45.5 35.5t27 53t8.5 60.5t-11 68.5t-45.5 66.5t-85.5 28q-65 0 -102 -45t-37 -118q0 -72 37 -117t102 -45z" />
    <glyph glyph-name="h" unicode="h" horiz-adv-x="620" 
d="M549 0h-113v296q0 60 -29.5 92.5t-84.5 32.5q-44 0 -75.5 -25t-43.5 -61t-12 -65v-270h-113v727h113v-268h20q47 63 141 63q93 0 145 -55.5t52 -151.5v-315z" />
    <glyph glyph-name="i" unicode="i" horiz-adv-x="272" 
d="M196 614h-120v113h120v-113zM192 509v-509h-113v509h113z" />
    <glyph glyph-name="j" unicode="j" horiz-adv-x="283" 
d="M24 -200h-64v96h46q85 0 85 90v523h113v-530q0 -89 -48.5 -134t-131.5 -45zM207 614h-120v113h120v-113z" />
    <glyph glyph-name="k" unicode="k" horiz-adv-x="576" 
d="M564 0h-122l-131 256h-20l-100 -111v-145h-113v727h113v-443l212 225h132l-148 -161z" />
    <glyph glyph-name="l" unicode="l" horiz-adv-x="269" 
d="M78 727h113v-727h-113v727z" />
    <glyph glyph-name="m" unicode="m" horiz-adv-x="879" 
d="M629 522q90 0 134.5 -53.5t44.5 -147.5v-321h-113v307q0 55 -22 84.5t-66 29.5q-50 0 -78.5 -36t-28.5 -92v-293h-113v306q0 55 -22.5 85t-65.5 30q-52 0 -80 -42t-28 -101v-278h-113v509h110v-48h20q18 28 52 44.5t78 16.5t78 -16.5t54 -47.5h20q47 64 139 64z" />
    <glyph glyph-name="n" unicode="n" horiz-adv-x="620" 
d="M549 0h-113v296q0 60 -29.5 92.5t-84.5 32.5q-44 0 -75.5 -25t-43.5 -61t-12 -65v-270h-113v509h110v-50h20q21 28 57.5 45.5t86.5 17.5q93 0 145 -55.5t52 -151.5v-315z" />
    <glyph glyph-name="o" unicode="o" horiz-adv-x="610" 
d="M305 522q58 0 106 -19.5t82 -55.5t51.5 -85.5t17.5 -106.5t-17.5 -107t-51.5 -86t-82 -55.5t-106 -19.5t-106 19.5t-82 55.5t-51.5 86t-17.5 107t17.5 106.5t51.5 85.5t82 55.5t106 19.5zM305 83q44 0 78.5 23t50 64t15.5 85q0 43 -15.5 84t-50 64t-78.5 23t-78.5 -23
t-50 -64t-15.5 -84q0 -44 15.5 -85t50 -64t78.5 -23z" />
    <glyph glyph-name="p" unicode="p" horiz-adv-x="629" 
d="M355 -13q-97 0 -144 63h-20v-250h-113v709h110v-50h20q50 63 147 63q51 0 93 -20t72 -56t45.5 -85.5t15.5 -106.5t-16 -106t-45.5 -85t-72 -56t-92.5 -20zM329 426q-44 0 -77.5 -23t-48.5 -64t-15 -85q0 -43 15 -84t48.5 -64t77.5 -23q67 0 103 47.5t36 123.5
q0 77 -36 124.5t-103 47.5z" />
    <glyph glyph-name="q" unicode="q" horiz-adv-x="629" 
d="M274 -13q-50 0 -92.5 20t-72 56t-45.5 85t-16 106t15.5 106.5t45.5 85.5t72 56t93 20q97 0 147 -63h20v50h110v-709h-113v250h-20q-47 -63 -144 -63zM300 426q-67 0 -103 -47.5t-36 -124.5q0 -76 36 -123.5t103 -47.5q44 0 77.5 23t48.5 64t15 84q0 44 -15 85t-48.5 64
t-77.5 23z" />
    <glyph glyph-name="r" unicode="r" horiz-adv-x="419" 
d="M391 509v-105h-43q-76 0 -116.5 -43t-40.5 -123v-238h-113v509h110v-60h20q19 25 54 42.5t87 17.5h42z" />
    <glyph glyph-name="s" unicode="s" horiz-adv-x="531" 
d="M244 323l85 -15q47 -8 85 -27t57 -53.5t19 -78.5q0 -31 -14.5 -60.5t-42 -52.5t-69.5 -36t-93 -13q-54 0 -96 12t-71 33.5t-45.5 52.5t-20.5 69h113q3 -18 16 -35.5t40 -27.5t62 -10q48 0 73.5 14.5t30 30t4.5 21.5q0 28 -20 42.5t-66 23.5l-97 18q-136 30 -136 136
q0 49 26.5 84t72 53t109.5 18q44 0 90.5 -13.5t79.5 -49.5t39 -86h-113q-3 21 -21.5 34t-40.5 17t-39 4q-27 0 -49.5 -7.5t-31.5 -20t-9 -25.5q0 -17 13 -30.5t60 -21.5z" />
    <glyph glyph-name="t" unicode="t" horiz-adv-x="421" 
d="M231 509h134v-96h-134v-251q0 -31 18 -47.5t58 -16.5h58v-98h-62q-105 0 -145 36t-40 109v268h-93v96h93v148h113v-148z" />
    <glyph glyph-name="u" unicode="u" horiz-adv-x="617" 
d="M71 509h113v-296q0 -61 28.5 -93t83.5 -32q44 0 75.5 25t43 60.5t11.5 65.5v270h113v-509h-110v50h-20q-21 -28 -57.5 -45.5t-85.5 -17.5q-93 0 -144 55.5t-51 151.5v315z" />
    <glyph glyph-name="v" unicode="v" horiz-adv-x="559" 
d="M179 0l-158 509h117l122 -402h42l118 402h117l-159 -509h-199z" />
    <glyph glyph-name="w" unicode="w" horiz-adv-x="723" 
d="M300 356h126l75 -223h20l53 376h108l-74 -509h-152l-84 246h-20l-85 -246h-153l-73 509h109l54 -376h20z" />
    <glyph glyph-name="x" unicode="x" horiz-adv-x="577" 
d="M418 0l-115 200h-28l-117 -200h-124l154 261l-139 248h121l106 -188h28l108 188h119l-140 -245l152 -264h-125z" />
    <glyph glyph-name="y" unicode="y" horiz-adv-x="566" 
d="M245 -200h-117l105 250l-216 459h120l142 -307h26l129 307h119z" />
    <glyph glyph-name="z" unicode="z" horiz-adv-x="535" 
d="M486 0h-437v116l283 277v20h-266v96h414v-115l-282 -278v-20h288v-96z" />
    <glyph glyph-name="braceleft" unicode="{" horiz-adv-x="409" 
d="M188 319v-20q27 -9 44 -36.5t17 -72.5v-143q0 -102 89 -102h34v-86h-48q-80 0 -128 46t-48 125v139q0 48 -15 71.5t-52 23.5h-19v90h19q37 0 52 23.5t15 71.5v139q0 79 48 125t128 46h48v-86h-34q-89 0 -89 -102v-143q0 -45 -17 -72.5t-44 -36.5z" />
    <glyph glyph-name="bar" unicode="|" horiz-adv-x="261" 
d="M83 -141v900h95v-900h-95z" />
    <glyph glyph-name="braceright" unicode="}" horiz-adv-x="409" 
d="M221 299v20q-27 9 -44 36.5t-17 72.5v143q0 102 -89 102h-34v86h48q80 0 128 -46t48 -125v-139q0 -48 15 -71.5t52 -23.5h19v-90h-19q-37 0 -52 -23.5t-15 -71.5v-139q0 -79 -48 -125t-128 -46h-48v86h34q89 0 89 102v143q0 45 17 72.5t44 36.5z" />
    <glyph glyph-name="asciitilde" unicode="~" horiz-adv-x="671" 
d="M506 356h82q0 -82 -36.5 -122.5t-100.5 -40.5q-21 0 -41 6t-39.5 16.5t-69.5 43.5t-82 33q-54 0 -54 -75h-82q0 82 36 122.5t100 40.5q17 0 37 -5t42 -16.5t72 -44.5t81 -33q55 0 55 75z" />
    <glyph glyph-name="uni00A0" unicode="&#xa0;" horiz-adv-x="278" 
 />
    <glyph glyph-name="exclamdown" unicode="&#xa1;" horiz-adv-x="331" 
d="M226 -200h-120v287l21 220h78l21 -220v-287zM100 509h131v-134h-131v134z" />
    <glyph glyph-name="cent" unicode="&#xa2;" horiz-adv-x="568" 
d="M262 -80v70q-100 12 -157 84t-57 181q0 108 57 180t157 84v70h68v-69q39 -4 72 -17.5t54.5 -32.5t39 -46.5t24.5 -69.5h-112q-9 27 -28.5 45t-49.5 24v-338q33 6 54 26.5t28 51.5h112q-7 -44 -30.5 -80.5t-64 -62t-99.5 -31.5v-69h-68zM161 256q0 -46 13.5 -83.5t37 -58
t50.5 -27.5v334q-51 -13 -76 -58t-25 -107z" />
    <glyph glyph-name="sterling" unicode="&#xa3;" horiz-adv-x="641" 
d="M231 102h375v-102h-553v102h18q70 0 70 89v88h-88v93h88v119q0 102 58 162.5t161 60.5q100 0 157 -56.5t60 -152.5h-116q-2 50 -26 77.5t-73 27.5q-52 0 -78.5 -32t-26.5 -87v-119h215v-93h-215v-80q0 -26 -5 -44t-21 -33v-20z" />
    <glyph glyph-name="currency" unicode="&#xa4;" horiz-adv-x="723" 
d="M585 4l-68 67q-68 -52 -155 -52q-31 0 -72.5 10.5t-83.5 41.5l-68 -67l-55 54l67 68q-52 72 -52 157q0 86 52 155l-67 68l55 55l68 -67q70 51 156 51t155 -51l68 67l55 -55l-67 -69q51 -69 51 -154q0 -86 -51 -156l67 -69zM362 94q27 0 57.5 9.5t57.5 32.5t46 60.5
t19 86.5q0 38 -12 68.5t-31.5 55t-55 44t-81.5 19.5q-27 0 -57.5 -9.5t-61.5 -35.5t-47 -65t-16 -77q0 -29 9.5 -61t32 -60.5t58.5 -48t82 -19.5z" />
    <glyph glyph-name="yen" unicode="&#xa5;" horiz-adv-x="634" 
d="M93 310v63h94l-163 327h118l161 -327h28l161 327h119l-163 -327h93v-63h-124l-34 -67h158v-63h-166v-180h-116v180h-166v63h159l-34 67h-125z" />
    <glyph glyph-name="brokenbar" unicode="&#xa6;" horiz-adv-x="261" 
d="M83 411v348h95v-348h-95zM83 -141v348h95v-348h-95z" />
    <glyph glyph-name="section" unicode="&#xa7;" horiz-adv-x="612" 
d="M226 379q-24 -9 -44.5 -32t-20.5 -55q0 -33 19.5 -54t59.5 -33l147 -43q32 15 48 38.5t16 47.5q0 34 -19 54.5t-59 32.5zM556 265q0 -24 -10 -52.5t-32 -52t-45 -32.5v-20q46 -39 46 -110q0 -36 -15.5 -67.5t-44 -55t-69 -36.5t-87.5 -13q-96 0 -156.5 53t-64.5 149h105
q2 -51 33 -80.5t87 -29.5q25 0 50.5 8.5t40.5 28.5t15 45q0 59 -70 79l-133 38q-77 23 -113.5 60.5t-36.5 98.5q0 24 10 52.5t33 51.5t46 31v20q-47 37 -47 112q0 27 10 56t35 54.5t67 43t102 17.5q46 0 86 -13t69 -38.5t46 -63t19 -85.5h-105q-2 50 -33 79t-87 29
q-51 0 -77.5 -23.5t-26.5 -57.5q0 -59 70 -79l133 -39q78 -23 114 -60t36 -98z" />
    <glyph glyph-name="dieresis" unicode="&#xa8;" horiz-adv-x="370" 
d="M332 614h-104v113h104v-113zM143 614h-105v113h105v-113z" />
    <glyph glyph-name="copyright" unicode="&#xa9;" horiz-adv-x="854" 
d="M525 297h75q-4 -28 -19.5 -57.5t-41 -48t-52 -25.5t-51.5 -7q-32 0 -64.5 10t-58.5 34t-43 62.5t-17 90.5q0 64 25 108.5t65 67t93 22.5q34 0 68 -12.5t60 -43.5t33 -73h-76q-14 62 -85 62q-53 0 -80 -36.5t-27 -94.5q0 -57 27 -93t80 -36q37 0 60 18.5t29 51.5zM427 727
q76 0 144 -28t118.5 -79t78.5 -119t28 -144t-28 -144t-78.5 -119t-118.5 -79t-144 -28t-144 28t-118.5 79t-78.5 119t-28 144q0 56 19 118.5t64.5 118t101 85.5t102 39t82.5 9zM427 46q64 0 120.5 23.5t98.5 66t65 100t23 121.5t-23 121.5t-64.5 100t-98.5 66t-121 23.5
t-120.5 -23.5t-98 -66t-64.5 -100t-23 -121.5t23 -121.5t64.5 -100t98 -66t120.5 -23.5z" />
    <glyph glyph-name="ordfeminine" unicode="&#xaa;" horiz-adv-x="434" 
d="M297 335v35h-13q-41 -44 -112 -44q-32 0 -63.5 12.5t-51.5 44t-20 68.5q0 34 18.5 65.5t54 45t74.5 13.5h110v14q0 30 -20 47t-58 17q-69 0 -75 -49h-81q1 26 16 53t52.5 45.5t84.5 18.5q74 0 117.5 -34t43.5 -101v-251h-77zM193 394q19 0 43 8.5t41 31.5t17 51v31h-93
q-38 0 -61 -16.5t-23 -43.5q0 -29 21.5 -45.5t54.5 -16.5z" />
    <glyph glyph-name="guillemotleft" unicode="&#xab;" horiz-adv-x="611" 
d="M158 296v-19l167 -180h-123l-147 154v70l147 155h123zM389 296v-19l167 -180h-123l-147 154v70l147 155h123z" />
    <glyph glyph-name="logicalnot" unicode="&#xac;" horiz-adv-x="682" 
d="M504 104v199h-421v96h516v-295h-95z" />
    <glyph glyph-name="uni00AD" unicode="&#xad;" horiz-adv-x="383" 
d="M335 230h-288v99h288v-99z" />
    <glyph glyph-name="registered" unicode="&#xae;" horiz-adv-x="854" 
d="M462 547q29 0 60.5 -10t51 -38t19.5 -68q0 -70 -56 -100l59 -165h-76l-53 149h-108v-149h-74v381h177zM451 379q67 0 67 51t-67 51h-92v-102h92zM427 727q76 0 144 -28t118.5 -79t78.5 -119t28 -144t-28 -144t-78.5 -119t-118.5 -79t-144 -28t-144 28t-118.5 79
t-78.5 119t-28 144q0 56 19 118.5t64.5 118t101 85.5t102 39t82.5 9zM427 46q64 0 120.5 23.5t98.5 66t65 100t23 121.5t-23 121.5t-64.5 100t-98.5 66t-121 23.5t-120.5 -23.5t-98 -66t-64.5 -100t-23 -121.5t23 -121.5t64.5 -100t98 -66t120.5 -23.5z" />
    <glyph glyph-name="macron" unicode="&#xaf;" horiz-adv-x="372" 
d="M332 628h-292v77h292v-77z" />
    <glyph glyph-name="degree" unicode="&#xb0;" horiz-adv-x="468" 
d="M430 523q0 -52 -25.5 -99.5t-73 -73t-98.5 -25.5q-30 0 -63.5 10t-66.5 37.5t-49.5 68.5t-16.5 82q0 30 10 64t34 63.5t62.5 50t89.5 20.5t98.5 -25.5t73 -73t25.5 -99.5zM233 399q51 0 84.5 35.5t33.5 88.5q0 24 -11 53.5t-40.5 50.5t-66.5 21t-66.5 -21t-40.5 -50.5
t-11 -53.5q0 -53 33.5 -88.5t84.5 -35.5z" />
    <glyph glyph-name="plusminus" unicode="&#xb1;" horiz-adv-x="678" 
d="M83 0v96h512v-96h-512zM290 400v157h97v-157h208v-96h-208v-157h-97v157h-206v96h206z" />
    <glyph glyph-name="uni00B2" unicode="&#xb2;" horiz-adv-x="366" 
d="M159 401h170v-68h-292v81l114 78q50 34 67.5 58.5t17.5 45.5q0 27 -16 41t-43 14q-29 0 -46 -15.5t-18 -44.5h-78q1 40 18 69t49.5 45t76.5 16q58 0 97 -31.5t39 -90.5q0 -74 -75 -126l-81 -58v-14z" />
    <glyph glyph-name="uni00B3" unicode="&#xb3;" horiz-adv-x="369" 
d="M237 568q39 -6 66.5 -35.5t27.5 -76.5q0 -22 -7.5 -44.5t-27 -43.5t-51.5 -31.5t-62 -10.5q-63 0 -105.5 35.5t-44.5 93.5h77q3 -28 23 -43.5t50 -15.5q31 0 50.5 16.5t19.5 44.5q0 29 -19 46t-50 17q-19 0 -37 -4v63l68 53v14h-155v68h254v-77l-77 -56v-13z" />
    <glyph glyph-name="acute" unicode="&#xb4;" horiz-adv-x="292" 
d="M253 727l-113 -145h-102l89 145h126z" />
    <glyph glyph-name="uni00B5" unicode="&#xb5;" horiz-adv-x="624" 
d="M78 509h113v-296q0 -61 28.5 -93t83.5 -32q44 0 75.5 25t43 60.5t11.5 65.5v270h113v-509h-110v50h-20q-21 -28 -57.5 -45.5t-85.5 -17.5q-45 0 -82 14v-201h-113v709z" />
    <glyph glyph-name="paragraph" unicode="&#xb6;" horiz-adv-x="684" 
d="M354 -177h-98v491q-70 0 -119 25t-75 68.5t-26 106.5q0 38 10.5 74.5t36.5 64.5t68.5 44.5t104.5 16.5h382v-82h-80v-809h-98v809h-106v-809z" />
    <glyph glyph-name="periodcentered" unicode="&#xb7;" horiz-adv-x="276" 
d="M203 264h-131v134h131v-134z" />
    <glyph glyph-name="cedilla" unicode="&#xb8;" horiz-adv-x="280" 
d="M101 24h53l-31 -82h13q12 9 36 9q28 0 48.5 -23t20.5 -59t-26.5 -63t-77.5 -27q-43 0 -69 22.5t-28 52.5h63q3 -10 12.5 -17t23.5 -7q16 0 26 10t10 26t-10 26t-26 10q-19 0 -31 -12h-58z" />
    <glyph glyph-name="uni00B9" unicode="&#xb9;" horiz-adv-x="333" 
d="M208 401h88v-68h-259v68h92v228h-14l-78 -45v75l95 55h76v-313z" />
    <glyph glyph-name="ordmasculine" unicode="&#xba;" horiz-adv-x="450" 
d="M225 721q32 0 65 -10t60 -34t45 -62.5t18 -90.5q0 -31 -8.5 -64.5t-33 -66.5t-64 -50t-82.5 -17q-31 0 -64 10t-60.5 34t-45.5 63t-18 91q0 85 51.5 141t136.5 56zM225 398q51 0 79.5 37t28.5 89t-28.5 88.5t-79.5 36.5t-79.5 -36.5t-28.5 -88.5t28.5 -89t79.5 -37z" />
    <glyph glyph-name="guillemotright" unicode="&#xbb;" horiz-adv-x="611" 
d="M453 277v19l-167 180h123l147 -155v-70l-147 -154h-123zM222 277v19l-167 180h123l147 -155v-70l-147 -154h-123z" />
    <glyph glyph-name="onequarter" unicode="&#xbc;" horiz-adv-x="870" 
d="M275 0h-89l424 700h88zM208 401h88v-68h-259v68h92v228h-14l-78 -45v75l95 55h76v-313zM784 149h49v-68h-49v-81h-77v81h-186v76l169 224h94v-232zM600 149h109v142h-14l-95 -128v-14z" />
    <glyph glyph-name="onehalf" unicode="&#xbd;" horiz-adv-x="886" 
d="M275 0h-89l424 700h88zM208 401h88v-68h-259v68h92v228h-14l-78 -45v75l95 55h76v-313zM679 68h170v-68h-292v81l114 78q50 34 67.5 58.5t17.5 45.5q0 27 -16 41t-43 14q-29 0 -46 -15.5t-18 -44.5h-78q1 40 18 69t49.5 45t76.5 16q58 0 97 -31.5t39 -90.5
q0 -74 -75 -126l-81 -58v-14z" />
    <glyph glyph-name="threequarters" unicode="&#xbe;" horiz-adv-x="875" 
d="M279 0h-89l424 700h88zM789 149h49v-68h-49v-81h-77v81h-186v76l169 224h94v-232zM605 149h109v142h-14l-95 -128v-14zM236 568q39 -6 66.5 -35.5t27.5 -76.5q0 -22 -7.5 -44.5t-27 -43.5t-51.5 -31.5t-62 -10.5q-63 0 -105.5 35.5t-44.5 93.5h77q3 -28 23 -43.5
t50 -15.5q31 0 50.5 16.5t19.5 44.5q0 29 -19 46t-50 17q-19 0 -37 -4v63l68 53v14h-155v68h254v-77l-77 -56v-13z" />
    <glyph glyph-name="questiondown" unicode="&#xbf;" horiz-adv-x="559" 
d="M360 375h-131v134h131v-134zM281 -209q-67 0 -122 25t-81.5 72.5t-26.5 101.5q0 43 13.5 74t37 54.5t71.5 59.5q38 27 51 46.5t13 57.5v25h115v-25q0 -59 -22.5 -93.5t-82.5 -81.5q-45 -34 -57 -49t-17.5 -31t-5.5 -37q0 -29 17 -54t43.5 -35t51.5 -10q116 0 120 118h115
q-2 -72 -33.5 -120.5t-82 -73t-117.5 -24.5z" />
    <glyph glyph-name="Agrave" unicode="&#xc0;" horiz-adv-x="705" 
d="M562 0l-66 205h-291l-65 -205h-122l237 714h194l238 -714h-125zM329 597l-90 -285h222l-91 285h-41zM299 767l-112 129h129l89 -129h-106z" />
    <glyph glyph-name="Aacute" unicode="&#xc1;" horiz-adv-x="705" 
d="M562 0l-66 205h-291l-65 -205h-122l237 714h194l238 -714h-125zM329 597l-90 -285h222l-91 285h-41zM514 896l-113 -129h-105l88 129h130z" />
    <glyph glyph-name="Acircumflex" unicode="&#xc2;" horiz-adv-x="705" 
d="M562 0l-66 205h-291l-65 -205h-122l237 714h194l238 -714h-125zM329 597l-90 -285h222l-91 285h-41zM405 896l111 -129h-100l-55 60h-20l-54 -60h-98l111 129h105z" />
    <glyph glyph-name="Atilde" unicode="&#xc3;" horiz-adv-x="705" 
d="M562 0l-66 205h-291l-65 -205h-122l237 714h194l238 -714h-125zM329 597l-90 -285h222l-91 285h-41zM453 896h66q0 -63 -26.5 -96t-75.5 -33q-20 0 -39 7t-49.5 26t-47.5 19q-14 0 -24 -9.5t-10 -42.5h-65q0 63 26.5 96t74.5 33q21 0 39.5 -7t49.5 -25.5t48 -18.5
q14 0 23.5 9t9.5 42z" />
    <glyph glyph-name="Adieresis" unicode="&#xc4;" horiz-adv-x="705" 
d="M562 0l-66 205h-291l-65 -205h-122l237 714h194l238 -714h-125zM329 597l-90 -285h222l-91 285h-41zM501 790h-104v106h104v-106zM312 790h-105v106h105v-106z" />
    <glyph glyph-name="Aring" unicode="&#xc5;" horiz-adv-x="705" 
d="M353 878q22 0 48.5 -11t45.5 -39t19 -62q0 -31 -16 -58l236 -708h-123l-66 205h-293l-65 -205h-120l236 710q-16 26 -16 56q0 22 11.5 48t40 45t62.5 19zM328 597l-90 -285h224l-91 285h-43zM353 714q22 0 37.5 15.5t15.5 36.5q0 22 -16 38t-37 16t-37 -16t-16 -38
q0 -21 15.5 -36.5t37.5 -15.5z" />
    <glyph glyph-name="AE" unicode="&#xc6;" horiz-adv-x="1028" 
d="M507 0v206h-261l-107 -206h-132l380 714h582v-109h-342v-184h260v-107h-260v-205h355v-109h-475zM455 605l-153 -293h205v293h-52z" />
    <glyph glyph-name="Ccedilla" unicode="&#xc7;" horiz-adv-x="728" 
d="M553 216h126q-9 -50 -32.5 -92.5t-60.5 -72.5t-86.5 -47t-107.5 -17l-17 -45h13q12 9 36 9q29 0 49 -23t20 -59t-26.5 -63t-77.5 -27q-43 0 -69 22.5t-28 52.5h63q3 -10 12.5 -17t23.5 -7q16 0 26 10t10 26t-10 26t-26 10q-19 0 -31 -12h-58l37 100q-67 7 -121.5 37.5
t-91 79t-55.5 112.5t-19 138q0 79 22.5 147.5t66 118t107 77t141.5 27.5q112 0 187 -57.5t95 -153.5h-126q-33 102 -156 102q-66 0 -113 -31t-74.5 -89.5t-27.5 -140.5q0 -54 13 -101.5t39.5 -83t67.5 -56t94 -20.5q31 0 66 10.5t62 39.5t37 70z" />
    <glyph glyph-name="Egrave" unicode="&#xc8;" horiz-adv-x="659" 
d="M207 109h406v-109h-526v714h513v-109h-393v-184h311v-107h-311v-205zM313 767l-112 129h129l89 -129h-106z" />
    <glyph glyph-name="Eacute" unicode="&#xc9;" horiz-adv-x="659" 
d="M207 109h406v-109h-526v714h513v-109h-393v-184h311v-107h-311v-205zM471 896l-113 -129h-105l88 129h130z" />
    <glyph glyph-name="Ecircumflex" unicode="&#xca;" horiz-adv-x="659" 
d="M207 109h406v-109h-526v714h513v-109h-393v-184h311v-107h-311v-205zM397 896l111 -129h-100l-55 60h-20l-54 -60h-98l111 129h105z" />
    <glyph glyph-name="Edieresis" unicode="&#xcb;" horiz-adv-x="659" 
d="M207 109h406v-109h-526v714h513v-109h-393v-184h311v-107h-311v-205zM488 790h-104v106h104v-106zM299 790h-105v106h105v-106z" />
    <glyph glyph-name="Igrave" unicode="&#xcc;" horiz-adv-x="305" 
d="M92 714h120v-714h-120v714zM101 767l-112 129h129l89 -129h-106z" />
    <glyph glyph-name="Iacute" unicode="&#xcd;" horiz-adv-x="305" 
d="M92 714h120v-714h-120v714zM318 896l-113 -129h-105l88 129h130z" />
    <glyph glyph-name="Icircumflex" unicode="&#xce;" horiz-adv-x="305" 
d="M92 714h120v-714h-120v714zM206 896l111 -129h-100l-55 60h-20l-54 -60h-98l111 129h105z" />
    <glyph glyph-name="Idieresis" unicode="&#xcf;" horiz-adv-x="305" 
d="M92 714h120v-714h-120v714zM300 790h-104v106h104v-106zM111 790h-105v106h105v-106z" />
    <glyph glyph-name="Eth" unicode="&#xd0;" horiz-adv-x="765" 
d="M20 318v94h80v302h283q80 0 142.5 -25.5t104 -72.5t62.5 -113t21 -146q0 -79 -21 -145.5t-62.5 -113.5t-104 -72.5t-142.5 -25.5h-283v318h-80zM373 109q71 0 118.5 29t73.5 83.5t26 135.5q0 52 -12 97t-38 79t-68.5 53t-99.5 19h-153v-193h205v-94h-205v-209h153z" />
    <glyph glyph-name="Ntilde" unicode="&#xd1;" horiz-adv-x="774" 
d="M574 714h114v-714h-167l-300 542h-20v-542h-114v714h167l300 -542h20v542zM490 896h66q0 -63 -26.5 -96t-75.5 -33q-20 0 -39 7t-49.5 26t-47.5 19q-14 0 -24 -9.5t-10 -42.5h-65q0 63 26.5 96t74.5 33q21 0 39.5 -7t49.5 -25.5t48 -18.5q14 0 23.5 9t9.5 42z" />
    <glyph glyph-name="Ograve" unicode="&#xd2;" horiz-adv-x="785" 
d="M393 727q80 0 144 -28t107.5 -78.5t66 -118.5t22.5 -145t-22.5 -145t-66 -118.5t-107.5 -78.5t-144 -28t-144.5 28t-108 78.5t-66 118.5t-22.5 145t22.5 145t66 118.5t108 78.5t144.5 28zM393 96q68 0 115.5 31t75 89.5t27.5 140.5t-27.5 140.5t-75 89.5t-115.5 31
t-116 -31t-75.5 -89.5t-27.5 -140.5t27.5 -140.5t75.5 -89.5t116 -31zM347 767l-112 129h129l89 -129h-106z" />
    <glyph glyph-name="Oacute" unicode="&#xd3;" horiz-adv-x="785" 
d="M393 727q80 0 144 -28t107.5 -78.5t66 -118.5t22.5 -145t-22.5 -145t-66 -118.5t-107.5 -78.5t-144 -28t-144.5 28t-108 78.5t-66 118.5t-22.5 145t22.5 145t66 118.5t108 78.5t144.5 28zM393 96q68 0 115.5 31t75 89.5t27.5 140.5t-27.5 140.5t-75 89.5t-115.5 31
t-116 -31t-75.5 -89.5t-27.5 -140.5t27.5 -140.5t75.5 -89.5t116 -31zM555 896l-113 -129h-105l88 129h130z" />
    <glyph glyph-name="Ocircumflex" unicode="&#xd4;" horiz-adv-x="785" 
d="M393 727q80 0 144 -28t107.5 -78.5t66 -118.5t22.5 -145t-22.5 -145t-66 -118.5t-107.5 -78.5t-144 -28t-144.5 28t-108 78.5t-66 118.5t-22.5 145t22.5 145t66 118.5t108 78.5t144.5 28zM393 96q68 0 115.5 31t75 89.5t27.5 140.5t-27.5 140.5t-75 89.5t-115.5 31
t-116 -31t-75.5 -89.5t-27.5 -140.5t27.5 -140.5t75.5 -89.5t116 -31zM446 896l111 -129h-100l-55 60h-20l-54 -60h-98l111 129h105z" />
    <glyph glyph-name="Otilde" unicode="&#xd5;" horiz-adv-x="785" 
d="M393 727q80 0 144 -28t107.5 -78.5t66 -118.5t22.5 -145t-22.5 -145t-66 -118.5t-107.5 -78.5t-144 -28t-144.5 28t-108 78.5t-66 118.5t-22.5 145t22.5 145t66 118.5t108 78.5t144.5 28zM393 96q68 0 115.5 31t75 89.5t27.5 140.5t-27.5 140.5t-75 89.5t-115.5 31
t-116 -31t-75.5 -89.5t-27.5 -140.5t27.5 -140.5t75.5 -89.5t116 -31zM496 896h66q0 -63 -26.5 -96t-75.5 -33q-20 0 -39 7t-49.5 26t-47.5 19q-14 0 -24 -9.5t-10 -42.5h-65q0 63 26.5 96t74.5 33q21 0 39.5 -7t49.5 -25.5t48 -18.5q14 0 23.5 9t9.5 42z" />
    <glyph glyph-name="Odieresis" unicode="&#xd6;" horiz-adv-x="785" 
d="M393 727q80 0 144 -28t107.5 -78.5t66 -118.5t22.5 -145t-22.5 -145t-66 -118.5t-107.5 -78.5t-144 -28t-144.5 28t-108 78.5t-66 118.5t-22.5 145t22.5 145t66 118.5t108 78.5t144.5 28zM393 96q68 0 115.5 31t75 89.5t27.5 140.5t-27.5 140.5t-75 89.5t-115.5 31
t-116 -31t-75.5 -89.5t-27.5 -140.5t27.5 -140.5t75.5 -89.5t116 -31zM540 790h-104v106h104v-106zM351 790h-105v106h105v-106z" />
    <glyph glyph-name="multiply" unicode="&#xd7;" horiz-adv-x="650" 
d="M257 287l-174 176l67 67l175 -175l175 174l67 -66l-174 -176l174 -176l-67 -67l-175 175l-174 -173l-67 66z" />
    <glyph glyph-name="Oslash" unicode="&#xd8;" horiz-adv-x="785" 
d="M393 727q119 0 202 -61l39 48h101l-83 -102q39 -49 60 -115t21 -140q0 -77 -22.5 -145t-66 -118.5t-107.5 -78.5t-144 -28q-119 0 -203 60l-39 -47h-101l83 101q-39 48 -60 114.5t-21 141.5q0 77 22.5 145t66 118.5t108 78.5t144.5 28zM393 96q68 0 115.5 31t75 89.5
t27.5 140.5q0 93 -37 160l-311 -380q52 -41 130 -41zM174 357q0 -95 37 -160l311 380q-52 41 -129 41q-68 0 -116 -31t-75.5 -89.5t-27.5 -140.5z" />
    <glyph glyph-name="Ugrave" unicode="&#xd9;" horiz-adv-x="750" 
d="M545 714h120v-455q0 -129 -76 -200.5t-214 -71.5t-214 71.5t-76 200.5v455h120v-452q0 -76 44.5 -121t125.5 -45t125.5 45t44.5 121v452zM337 767l-112 129h129l89 -129h-106z" />
    <glyph glyph-name="Uacute" unicode="&#xda;" horiz-adv-x="750" 
d="M545 714h120v-455q0 -129 -76 -200.5t-214 -71.5t-214 71.5t-76 200.5v455h120v-452q0 -76 44.5 -121t125.5 -45t125.5 45t44.5 121v452zM518 896l-113 -129h-105l88 129h130z" />
    <glyph glyph-name="Ucircumflex" unicode="&#xdb;" horiz-adv-x="750" 
d="M545 714h120v-455q0 -129 -76 -200.5t-214 -71.5t-214 71.5t-76 200.5v455h120v-452q0 -76 44.5 -121t125.5 -45t125.5 45t44.5 121v452zM428 896l111 -129h-100l-55 60h-20l-54 -60h-98l111 129h105z" />
    <glyph glyph-name="Udieresis" unicode="&#xdc;" horiz-adv-x="750" 
d="M545 714h120v-455q0 -129 -76 -200.5t-214 -71.5t-214 71.5t-76 200.5v455h120v-452q0 -76 44.5 -121t125.5 -45t125.5 45t44.5 121v452zM522 790h-104v106h104v-106zM333 790h-105v106h105v-106z" />
    <glyph glyph-name="Yacute" unicode="&#xdd;" horiz-adv-x="661" 
d="M317 409h26l171 305h131l-255 -452v-262h-120v262l-255 452h131zM480 896l-113 -129h-105l88 129h130z" />
    <glyph glyph-name="Thorn" unicode="&#xde;" horiz-adv-x="665" 
d="M375 570q114 0 177 -56.5t63 -156.5q0 -99 -63 -156t-177 -57h-168v-144h-120v714h120v-144h168zM357 250q72 0 104 28t32 80t-32 79t-104 27h-150v-214h150z" />
    <glyph glyph-name="germandbls" unicode="&#xdf;" horiz-adv-x="631" 
d="M466 383q25 -6 54 -26t49.5 -60t20.5 -88q0 -49 -16 -88.5t-46 -66t-72 -40.5t-93 -14h-65v96h46q26 0 57.5 8t53.5 35.5t22 75.5q0 59 -38 91.5t-110 32.5h-14v96h14q55 0 82.5 28t27.5 70q0 46 -29 73t-77 27q-57 0 -85 -34.5t-28 -100.5v-498h-113v413h-90v96h91
q0 103 60.5 161.5t167.5 58.5q95 0 154.5 -52t59.5 -134q0 -49 -23.5 -87.5t-60.5 -52.5v-20z" />
    <glyph glyph-name="agrave" unicode="&#xe0;" horiz-adv-x="572" 
d="M395 0v49h-20q-23 -29 -62 -45.5t-89 -16.5q-53 0 -93.5 20.5t-65.5 58.5t-25 88q0 49 24.5 88t68.5 61t109 22h150v15q0 43 -27 68t-80 25q-47 0 -73 -17.5t-29 -47.5h-112q4 71 61.5 112.5t148.5 41.5q102 0 161 -46.5t59 -137.5v-338h-106zM257 79q35 0 64.5 14.5
t50 43t20.5 66.5v38h-130q-52 0 -80 -21.5t-28 -60.5q0 -38 27.5 -59t75.5 -21zM256 582l-112 145h123l89 -145h-100z" />
    <glyph glyph-name="aacute" unicode="&#xe1;" horiz-adv-x="572" 
d="M395 0v49h-20q-23 -29 -62 -45.5t-89 -16.5q-53 0 -93.5 20.5t-65.5 58.5t-25 88q0 49 24.5 88t68.5 61t109 22h150v15q0 43 -27 68t-80 25q-47 0 -73 -17.5t-29 -47.5h-112q4 71 61.5 112.5t148.5 41.5q102 0 161 -46.5t59 -137.5v-338h-106zM257 79q35 0 64.5 14.5
t50 43t20.5 66.5v38h-130q-52 0 -80 -21.5t-28 -60.5q0 -38 27.5 -59t75.5 -21zM431 727l-113 -145h-102l89 145h126z" />
    <glyph glyph-name="acircumflex" unicode="&#xe2;" horiz-adv-x="572" 
d="M395 0v49h-20q-23 -29 -62 -45.5t-89 -16.5q-53 0 -93.5 20.5t-65.5 58.5t-25 88q0 49 24.5 88t68.5 61t109 22h150v15q0 43 -27 68t-80 25q-47 0 -73 -17.5t-29 -47.5h-112q4 71 61.5 112.5t148.5 41.5q102 0 161 -46.5t59 -137.5v-338h-106zM257 79q35 0 64.5 14.5
t50 43t20.5 66.5v38h-130q-52 0 -80 -21.5t-28 -60.5q0 -38 27.5 -59t75.5 -21zM343 727l111 -145h-97l-59 73h-17l-58 -73h-96l112 145h104z" />
    <glyph glyph-name="atilde" unicode="&#xe3;" horiz-adv-x="572" 
d="M395 0v49h-20q-23 -29 -62 -45.5t-89 -16.5q-53 0 -93.5 20.5t-65.5 58.5t-25 88q0 49 24.5 88t68.5 61t109 22h150v15q0 43 -27 68t-80 25q-47 0 -73 -17.5t-29 -47.5h-112q4 71 61.5 112.5t148.5 41.5q102 0 161 -46.5t59 -137.5v-338h-106zM257 79q35 0 64.5 14.5
t50 43t20.5 66.5v38h-130q-52 0 -80 -21.5t-28 -60.5q0 -38 27.5 -59t75.5 -21zM391 722h65q0 -65 -25.5 -100.5t-75.5 -35.5q-11 0 -24 3t-26 9.5t-41.5 25.5t-45.5 19q-33 0 -33 -57h-65q0 65 26 100.5t75 35.5q20 0 39 -7.5t50.5 -28.5t48.5 -21q14 0 23 11t9 46z" />
    <glyph glyph-name="adieresis" unicode="&#xe4;" horiz-adv-x="572" 
d="M395 0v49h-20q-23 -29 -62 -45.5t-89 -16.5q-53 0 -93.5 20.5t-65.5 58.5t-25 88q0 49 24.5 88t68.5 61t109 22h150v15q0 43 -27 68t-80 25q-47 0 -73 -17.5t-29 -47.5h-112q4 71 61.5 112.5t148.5 41.5q102 0 161 -46.5t59 -137.5v-338h-106zM257 79q35 0 64.5 14.5
t50 43t20.5 66.5v38h-130q-52 0 -80 -21.5t-28 -60.5q0 -38 27.5 -59t75.5 -21zM445 614h-104v113h104v-113zM256 614h-105v113h105v-113z" />
    <glyph glyph-name="aring" unicode="&#xe5;" horiz-adv-x="572" 
d="M395 0v49h-20q-23 -29 -62 -45.5t-89 -16.5q-53 0 -93.5 20.5t-65.5 58.5t-25 88q0 49 24.5 88t68.5 61t109 22h150v15q0 43 -27 68t-80 25q-47 0 -73 -17.5t-29 -47.5h-112q4 71 61.5 112.5t148.5 41.5q102 0 161 -46.5t59 -137.5v-338h-106zM257 79q35 0 64.5 14.5
t50 43t20.5 66.5v38h-130q-52 0 -80 -21.5t-28 -60.5q0 -38 27.5 -59t75.5 -21zM291 798q22 0 48.5 -11t45.5 -39t19 -62q0 -21 -11 -47t-39.5 -45t-62.5 -19q-33 0 -62 19t-40.5 45t-11.5 47q0 22 11.5 48t40 45t62.5 19zM291 634q22 0 37.5 15.5t15.5 36.5q0 22 -16 38
t-37 16t-37 -16t-16 -38q0 -21 15.5 -36.5t37.5 -15.5z" />
    <glyph glyph-name="ae" unicode="&#xe6;" horiz-adv-x="908" 
d="M861 241h-369q2 -72 38 -115t101 -43q86 0 111 65h114q-16 -74 -73 -117.5t-152 -43.5q-60 0 -108.5 25t-79.5 68h-20q-29 -41 -81 -67t-114 -26q-55 0 -96 20t-66.5 57t-25.5 85q0 84 56 130t151 46h137v15q0 43 -26.5 68t-76.5 25q-43 0 -68.5 -17.5t-29.5 -47.5h-112
q3 70 61 112t145 42q55 0 98 -18t69 -52h20q30 32 73.5 51t94.5 19q52 0 95 -18.5t72.5 -51.5t45.5 -77.5t16 -94.5v-39zM384 201v40h-121q-52 0 -80.5 -21.5t-28.5 -58.5q0 -39 27.5 -60.5t73.5 -21.5q26 0 56.5 12t51.5 42.5t21 67.5zM627 432q-26 0 -54 -10t-48 -36
t-27 -61h248q-4 35 -22.5 61t-45 36t-51.5 10z" />
    <glyph glyph-name="ccedilla" unicode="&#xe7;" horiz-adv-x="568" 
d="M412 163h112q-12 -79 -72 -127t-149 -49l-17 -45h13q12 9 36 9q29 0 49 -23t20 -59t-26.5 -63t-77.5 -27q-43 0 -69 22.5t-28 52.5h63q3 -10 12.5 -17t23.5 -7q16 0 26 10t10 26t-10 26t-26 10q-19 0 -31 -12h-58l38 101q-95 16 -149 87t-54 177q0 57 17 106.5t50 85.5
t80.5 55.5t104.5 19.5q91 0 150 -46.5t70 -121.5h-112q-11 34 -38 53t-69 19q-36 0 -63 -13.5t-44.5 -37.5t-25 -55.5t-7.5 -63.5t10 -73t43.5 -70.5t86.5 -29.5q46 0 74.5 21t36.5 59z" />
    <glyph glyph-name="egrave" unicode="&#xe8;" horiz-adv-x="583" 
d="M536 283v-38h-376q2 -78 38.5 -120t104.5 -42q44 0 72 17t39 48h115q-15 -73 -73.5 -117t-153.5 -44q-58 0 -106 20t-80.5 56t-50 86t-17.5 109t17.5 108t50 84t79.5 53.5t104 18.5q41 0 82.5 -12.5t75.5 -42t56 -76t23 -108.5zM298 432q-42 0 -71.5 -17t-43 -41
t-18.5 -45h255q-4 32 -23 57.5t-46.5 35.5t-52.5 10zM271 582l-112 145h123l89 -145h-100z" />
    <glyph glyph-name="eacute" unicode="&#xe9;" horiz-adv-x="583" 
d="M536 283v-38h-376q2 -78 38.5 -120t104.5 -42q44 0 72 17t39 48h115q-15 -73 -73.5 -117t-153.5 -44q-58 0 -106 20t-80.5 56t-50 86t-17.5 109t17.5 108t50 84t79.5 53.5t104 18.5q41 0 82.5 -12.5t75.5 -42t56 -76t23 -108.5zM298 432q-42 0 -71.5 -17t-43 -41
t-18.5 -45h255q-4 32 -23 57.5t-46.5 35.5t-52.5 10zM453 727l-113 -145h-102l89 145h126z" />
    <glyph glyph-name="ecircumflex" unicode="&#xea;" horiz-adv-x="583" 
d="M536 283v-38h-376q2 -78 38.5 -120t104.5 -42q44 0 72 17t39 48h115q-15 -73 -73.5 -117t-153.5 -44q-58 0 -106 20t-80.5 56t-50 86t-17.5 109t17.5 108t50 84t79.5 53.5t104 18.5q41 0 82.5 -12.5t75.5 -42t56 -76t23 -108.5zM298 432q-42 0 -71.5 -17t-43 -41
t-18.5 -45h255q-4 32 -23 57.5t-46.5 35.5t-52.5 10zM352 727l111 -145h-97l-59 73h-17l-58 -73h-96l112 145h104z" />
    <glyph glyph-name="edieresis" unicode="&#xeb;" horiz-adv-x="583" 
d="M536 283v-38h-376q2 -78 38.5 -120t104.5 -42q44 0 72 17t39 48h115q-15 -73 -73.5 -117t-153.5 -44q-58 0 -106 20t-80.5 56t-50 86t-17.5 109t17.5 108t50 84t79.5 53.5t104 18.5q41 0 82.5 -12.5t75.5 -42t56 -76t23 -108.5zM298 432q-42 0 -71.5 -17t-43 -41
t-18.5 -45h255q-4 32 -23 57.5t-46.5 35.5t-52.5 10zM446 614h-104v113h104v-113zM257 614h-105v113h105v-113z" />
    <glyph glyph-name="igrave" unicode="&#xec;" horiz-adv-x="273" 
d="M91 582l-112 145h123l89 -145h-100zM192 509v-509h-113v509h113z" />
    <glyph glyph-name="iacute" unicode="&#xed;" horiz-adv-x="272" 
d="M301 727l-113 -145h-102l89 145h126zM192 509v-509h-113v509h113z" />
    <glyph glyph-name="icircumflex" unicode="&#xee;" horiz-adv-x="272" 
d="M192 509v-509h-113v509h113zM189 727l111 -145h-97l-59 73h-17l-58 -73h-96l112 145h104z" />
    <glyph glyph-name="idieresis" unicode="&#xef;" horiz-adv-x="272" 
d="M283 614h-104v113h104v-113zM94 614h-105v113h105v-113zM192 509v-509h-113v509h113z" />
    <glyph glyph-name="eth" unicode="&#xf0;" horiz-adv-x="604" 
d="M139 555v63h150q-54 51 -136 109h138q28 -20 61.5 -49t61.5 -60h128v-63h-78q92 -136 92 -293q0 -59 -16.5 -109.5t-48.5 -87.5t-81 -57.5t-110 -20.5q-57 0 -104 19.5t-80 54t-50.5 81.5t-17.5 99t17 98.5t47 80t72 52t89 18.5q37 0 69 -10t50 -27h20q-23 51 -64 102
h-209zM302 83q35 0 68.5 15t53 53.5t19.5 88.5q0 30 -7 56t-20.5 47t-41.5 38t-72 17t-78 -20.5t-49 -58.5t-15 -79q0 -30 10.5 -67t44.5 -63.5t87 -26.5z" />
    <glyph glyph-name="ntilde" unicode="&#xf1;" horiz-adv-x="620" 
d="M549 0h-113v296q0 60 -29.5 92.5t-84.5 32.5q-44 0 -75.5 -25t-43.5 -61t-12 -65v-270h-113v509h110v-50h20q21 28 57.5 45.5t86.5 17.5q93 0 145 -55.5t52 -151.5v-315zM417 722h65q0 -65 -25.5 -100.5t-75.5 -35.5q-11 0 -24 3t-26 9.5t-41.5 25.5t-45.5 19
q-33 0 -33 -57h-65q0 65 26 100.5t75 35.5q20 0 39 -7.5t50.5 -28.5t48.5 -21q14 0 23 11t9 46z" />
    <glyph glyph-name="ograve" unicode="&#xf2;" horiz-adv-x="610" 
d="M305 522q58 0 106 -19.5t82 -55.5t51.5 -85.5t17.5 -106.5t-17.5 -107t-51.5 -86t-82 -55.5t-106 -19.5t-106 19.5t-82 55.5t-51.5 86t-17.5 107t17.5 106.5t51.5 85.5t82 55.5t106 19.5zM305 83q44 0 78.5 23t50 64t15.5 85q0 43 -15.5 84t-50 64t-78.5 23t-78.5 -23
t-50 -64t-15.5 -84q0 -44 15.5 -85t50 -64t78.5 -23zM262 582l-112 145h123l89 -145h-100z" />
    <glyph glyph-name="oacute" unicode="&#xf3;" horiz-adv-x="610" 
d="M305 522q58 0 106 -19.5t82 -55.5t51.5 -85.5t17.5 -106.5t-17.5 -107t-51.5 -86t-82 -55.5t-106 -19.5t-106 19.5t-82 55.5t-51.5 86t-17.5 107t17.5 106.5t51.5 85.5t82 55.5t106 19.5zM305 83q44 0 78.5 23t50 64t15.5 85q0 43 -15.5 84t-50 64t-78.5 23t-78.5 -23
t-50 -64t-15.5 -84q0 -44 15.5 -85t50 -64t78.5 -23zM465 727l-113 -145h-102l89 145h126z" />
    <glyph glyph-name="ocircumflex" unicode="&#xf4;" horiz-adv-x="610" 
d="M305 522q58 0 106 -19.5t82 -55.5t51.5 -85.5t17.5 -106.5t-17.5 -107t-51.5 -86t-82 -55.5t-106 -19.5t-106 19.5t-82 55.5t-51.5 86t-17.5 107t17.5 106.5t51.5 85.5t82 55.5t106 19.5zM305 83q44 0 78.5 23t50 64t15.5 85q0 43 -15.5 84t-50 64t-78.5 23t-78.5 -23
t-50 -64t-15.5 -84q0 -44 15.5 -85t50 -64t78.5 -23zM358 727l111 -145h-97l-59 73h-17l-58 -73h-96l112 145h104z" />
    <glyph glyph-name="otilde" unicode="&#xf5;" horiz-adv-x="610" 
d="M305 522q58 0 106 -19.5t82 -55.5t51.5 -85.5t17.5 -106.5t-17.5 -107t-51.5 -86t-82 -55.5t-106 -19.5t-106 19.5t-82 55.5t-51.5 86t-17.5 107t17.5 106.5t51.5 85.5t82 55.5t106 19.5zM305 83q44 0 78.5 23t50 64t15.5 85q0 43 -15.5 84t-50 64t-78.5 23t-78.5 -23
t-50 -64t-15.5 -84q0 -44 15.5 -85t50 -64t78.5 -23zM408 722h65q0 -65 -25.5 -100.5t-75.5 -35.5q-11 0 -24 3t-26 9.5t-41.5 25.5t-45.5 19q-33 0 -33 -57h-65q0 65 26 100.5t75 35.5q20 0 39 -7.5t50.5 -28.5t48.5 -21q14 0 23 11t9 46z" />
    <glyph glyph-name="odieresis" unicode="&#xf6;" horiz-adv-x="610" 
d="M305 522q58 0 106 -19.5t82 -55.5t51.5 -85.5t17.5 -106.5t-17.5 -107t-51.5 -86t-82 -55.5t-106 -19.5t-106 19.5t-82 55.5t-51.5 86t-17.5 107t17.5 106.5t51.5 85.5t82 55.5t106 19.5zM305 83q44 0 78.5 23t50 64t15.5 85q0 43 -15.5 84t-50 64t-78.5 23t-78.5 -23
t-50 -64t-15.5 -84q0 -44 15.5 -85t50 -64t78.5 -23zM452 614h-104v113h104v-113zM263 614h-105v113h105v-113z" />
    <glyph glyph-name="divide" unicode="&#xf7;" horiz-adv-x="686" 
d="M408 17h-130v124h130v-124zM408 433h-130v124h130v-124zM603 239h-520v96h520v-96z" />
    <glyph glyph-name="oslash" unicode="&#xf8;" horiz-adv-x="610" 
d="M305 522q83 0 145 -39l22 26h95l-63 -75q28 -34 43 -80.5t15 -98.5q0 -57 -17.5 -107t-51.5 -86t-82 -55.5t-106 -19.5q-84 0 -145 39l-22 -26h-95l63 75q-28 34 -43 80.5t-15 99.5q0 57 17.5 106.5t51.5 85.5t82 55.5t106 19.5zM305 83q44 0 78.5 23t50 64t15.5 85
q0 48 -19 91l-204 -241q33 -22 79 -22zM161 255q0 -52 18 -93l204 241q-34 23 -78 23t-78.5 -23t-50 -64t-15.5 -84z" />
    <glyph glyph-name="ugrave" unicode="&#xf9;" horiz-adv-x="617" 
d="M71 509h113v-296q0 -61 28.5 -93t83.5 -32q44 0 75.5 25t43 60.5t11.5 65.5v270h113v-509h-110v50h-20q-21 -28 -57.5 -45.5t-85.5 -17.5q-93 0 -144 55.5t-51 151.5v315zM260 582l-112 145h123l89 -145h-100z" />
    <glyph glyph-name="uacute" unicode="&#xfa;" horiz-adv-x="617" 
d="M71 509h113v-296q0 -61 28.5 -93t83.5 -32q44 0 75.5 25t43 60.5t11.5 65.5v270h113v-509h-110v50h-20q-21 -28 -57.5 -45.5t-85.5 -17.5q-93 0 -144 55.5t-51 151.5v315zM451 727l-113 -145h-102l89 145h126z" />
    <glyph glyph-name="ucircumflex" unicode="&#xfb;" horiz-adv-x="617" 
d="M71 509h113v-296q0 -61 28.5 -93t83.5 -32q44 0 75.5 25t43 60.5t11.5 65.5v270h113v-509h-110v50h-20q-21 -28 -57.5 -45.5t-85.5 -17.5q-93 0 -144 55.5t-51 151.5v315zM358 727l111 -145h-97l-59 73h-17l-58 -73h-96l112 145h104z" />
    <glyph glyph-name="udieresis" unicode="&#xfc;" horiz-adv-x="617" 
d="M71 509h113v-296q0 -61 28.5 -93t83.5 -32q44 0 75.5 25t43 60.5t11.5 65.5v270h113v-509h-110v50h-20q-21 -28 -57.5 -45.5t-85.5 -17.5q-93 0 -144 55.5t-51 151.5v315zM452 614h-104v113h104v-113zM263 614h-105v113h105v-113z" />
    <glyph glyph-name="yacute" unicode="&#xfd;" horiz-adv-x="566" 
d="M245 -200h-117l105 250l-216 459h120l142 -307h26l129 307h119zM443 727l-113 -145h-102l89 145h126z" />
    <glyph glyph-name="thorn" unicode="&#xfe;" horiz-adv-x="629" 
d="M581 254q0 -57 -16 -106t-45.5 -85t-72 -56t-92.5 -20q-97 0 -144 63h-20v-250h-113v927h113v-269h20q47 63 144 63q50 0 92.5 -20t72 -56t45.5 -85t16 -106zM468 254q0 76 -36 123.5t-103 47.5q-44 0 -77.5 -23t-48.5 -64t-15 -84t15 -84t48.5 -64t77.5 -23
q67 0 103 47.5t36 123.5z" />
    <glyph glyph-name="ydieresis" unicode="&#xff;" horiz-adv-x="566" 
d="M245 -200h-117l105 250l-216 459h120l142 -307h26l129 307h119zM434 614h-104v113h104v-113zM245 614h-105v113h105v-113z" />
    <glyph glyph-name="Amacron" unicode="&#x100;" horiz-adv-x="706" 
d="M562 0l-66 205h-291l-65 -205h-122l237 714h194l238 -714h-125zM329 597l-90 -285h222l-91 285h-41zM498 801h-292v75h292v-75z" />
    <glyph glyph-name="amacron" unicode="&#x101;" horiz-adv-x="572" 
d="M395 0v49h-20q-23 -29 -62 -45.5t-89 -16.5q-53 0 -93.5 20.5t-65.5 58.5t-25 88q0 49 24.5 88t68.5 61t109 22h150v15q0 43 -27 68t-80 25q-47 0 -73 -17.5t-29 -47.5h-112q4 71 61.5 112.5t148.5 41.5q102 0 161 -46.5t59 -137.5v-338h-106zM257 79q35 0 64.5 14.5
t50 43t20.5 66.5v38h-130q-52 0 -80 -21.5t-28 -60.5q0 -38 27.5 -59t75.5 -21zM438 628h-292v77h292v-77z" />
    <glyph glyph-name="Abreve" unicode="&#x102;" horiz-adv-x="705" 
d="M562 0l-66 205h-291l-65 -205h-122l237 714h194l238 -714h-125zM329 597l-90 -285h222l-91 285h-41zM418 896h78q-1 -61 -39 -95t-105 -34q-66 0 -104 34t-39 95h79q0 -29 16.5 -44t47.5 -15q64 0 66 59z" />
    <glyph glyph-name="abreve" unicode="&#x103;" horiz-adv-x="572" 
d="M395 0v49h-20q-23 -29 -62 -45.5t-89 -16.5q-53 0 -93.5 20.5t-65.5 58.5t-25 88q0 49 24.5 88t68.5 61t109 22h150v15q0 43 -27 68t-80 25q-47 0 -73 -17.5t-29 -47.5h-112q4 71 61.5 112.5t148.5 41.5q102 0 161 -46.5t59 -137.5v-338h-106zM257 79q35 0 64.5 14.5
t50 43t20.5 66.5v38h-130q-52 0 -80 -21.5t-28 -60.5q0 -38 27.5 -59t75.5 -21zM354 727h78q0 -68 -37.5 -106.5t-105.5 -38.5t-106 38.5t-38 106.5h79q0 -72 65 -72q32 0 48.5 19t16.5 53z" />
    <glyph glyph-name="Aogonek" unicode="&#x104;" horiz-adv-x="706" 
d="M563 0l-66 205h-293l-65 -205h-120l237 714h192l238 -714q-29 -15 -47 -36.5t-18 -44.5q0 -22 18 -35t49 -13v-71h-26q-63 0 -96 26t-33 70q0 14 7 33.5t25.5 39.5t43.5 31h-46zM328 597l-90 -285h224l-91 285h-43z" />
    <glyph glyph-name="aogonek" unicode="&#x105;" horiz-adv-x="572" 
d="M395 0v49h-20q-23 -29 -62 -45.5t-89 -16.5q-53 0 -93.5 20.5t-65.5 58.5t-25 88q0 49 24.5 88t68.5 61t109 22h150v15q0 43 -27 68t-80 25q-47 0 -73 -17.5t-29 -47.5h-112q4 71 61.5 112.5t148.5 41.5q102 0 161 -46.5t59 -137.5v-338q-29 -15 -47 -36.5t-18 -44.5
q0 -22 18 -35t49 -13v-71h-26q-63 0 -96 26t-33 70q0 14 7 33.5t25.5 39.5t43.5 31h-29zM257 79q26 0 58 12.5t54.5 44.5t22.5 70v39h-130q-52 0 -80 -22t-28 -62q0 -38 27.5 -60t75.5 -22z" />
    <glyph glyph-name="Cacute" unicode="&#x106;" horiz-adv-x="728" 
d="M553 216h126q-19 -103 -96 -166t-195 -63q-78 0 -141.5 27.5t-106.5 77t-65.5 118t-22.5 147.5t22.5 147.5t66 118t107 77t141.5 27.5q112 0 187 -57.5t95 -153.5h-126q-33 102 -156 102q-66 0 -113 -31t-74.5 -89.5t-27.5 -140.5q0 -54 13 -101.5t39.5 -83t67.5 -56
t94 -20.5q31 0 66 10.5t62 39.5t37 70zM547 896l-113 -129h-105l88 129h130z" />
    <glyph glyph-name="cacute" unicode="&#x107;" horiz-adv-x="568" 
d="M412 163h112q-12 -79 -72.5 -127.5t-151.5 -48.5q-57 0 -104.5 19.5t-80.5 55.5t-50 85.5t-17 107.5q0 57 17 106.5t50 85.5t80.5 55.5t104.5 19.5q91 0 150 -46.5t70 -121.5h-112q-11 34 -38 53t-69 19q-36 0 -63 -13.5t-44.5 -37.5t-25 -55.5t-7.5 -63.5t10 -73
t43.5 -70.5t86.5 -29.5q46 0 74.5 21t36.5 59zM446 727l-113 -145h-102l89 145h126z" />
    <glyph glyph-name="Ccaron" unicode="&#x10c;" horiz-adv-x="728" 
d="M553 216h126q-19 -103 -96 -166t-195 -63q-78 0 -141.5 27.5t-106.5 77t-65.5 118t-22.5 147.5t22.5 147.5t66 118t107 77t141.5 27.5q112 0 187 -57.5t95 -153.5h-126q-33 102 -156 102q-66 0 -113 -31t-74.5 -89.5t-27.5 -140.5q0 -54 13 -101.5t39.5 -83t67.5 -56
t94 -20.5q31 0 66 10.5t62 39.5t37 70zM334 767l-111 129h100l54 -60h20l55 60h98l-111 -129h-105z" />
    <glyph glyph-name="ccaron" unicode="&#x10d;" horiz-adv-x="568" 
d="M412 163h112q-12 -79 -72.5 -127.5t-151.5 -48.5q-57 0 -104.5 19.5t-80.5 55.5t-50 85.5t-17 107.5q0 57 17 106.5t50 85.5t80.5 55.5t104.5 19.5q91 0 150 -46.5t70 -121.5h-112q-11 34 -38 53t-69 19q-36 0 -63 -13.5t-44.5 -37.5t-25 -55.5t-7.5 -63.5t10 -73
t43.5 -70.5t86.5 -29.5q46 0 74.5 21t36.5 59zM247 582l-111 145h97l58 -73h18l58 73h96l-112 -145h-104z" />
    <glyph glyph-name="Dcaron" unicode="&#x10e;" horiz-adv-x="753" 
d="M370 714q80 0 142.5 -25.5t104 -72.5t62.5 -113t21 -146q0 -79 -21 -145.5t-62.5 -113.5t-104 -72.5t-142.5 -25.5h-283v714h283zM360 109q71 0 118.5 29t73.5 83.5t26 135.5q0 52 -12 97t-38 79t-68.5 53t-99.5 19h-153v-496h153zM292 767l-111 129h100l54 -60h20l55 60
h98l-111 -129h-105z" />
    <glyph glyph-name="dcaron" unicode="&#x10f;" horiz-adv-x="738" 
d="M274 522q97 0 144 -63h20v268h113v-727h-110v50h-20q-50 -63 -147 -63q-51 0 -93 20t-72 56t-45.5 85.5t-15.5 106.5t16 106t45.5 85t72 56t92.5 20zM300 83q44 0 77.5 23t48.5 64t15 85q0 43 -15 84t-48.5 64t-77.5 23q-67 0 -103 -47.5t-36 -123.5q0 -77 36 -124.5
t103 -47.5zM696 616h-58v111h131v-128l-64 -82h-73l64 82v17z" />
    <glyph glyph-name="Dcroat" unicode="&#x110;" horiz-adv-x="765" 
d="M20 318v94h80v302h283q80 0 142.5 -25.5t104 -72.5t62.5 -113t21 -146q0 -79 -21 -145.5t-62.5 -113.5t-104 -72.5t-142.5 -25.5h-283v318h-80zM373 109q71 0 118.5 29t73.5 83.5t26 135.5q0 52 -12 97t-38 79t-68.5 53t-99.5 19h-153v-193h205v-94h-205v-209h153z" />
    <glyph glyph-name="dcroat" unicode="&#x111;" horiz-adv-x="642" 
d="M274 522q97 0 144 -63h20v116h-160v69h160v83h113v-83h77v-69h-77v-575h-110v50h-20q-50 -63 -147 -63q-51 0 -93 20t-72 56t-45.5 85.5t-15.5 106.5t16 106t45.5 85t72 56t92.5 20zM300 83q44 0 77.5 23t48.5 64t15 85q0 43 -15 84t-48.5 64t-77.5 23q-67 0 -103 -47.5
t-36 -123.5q0 -77 36 -124.5t103 -47.5z" />
    <glyph glyph-name="Emacron" unicode="&#x112;" horiz-adv-x="659" 
d="M207 109h406v-109h-526v714h513v-109h-393v-184h311v-107h-311v-205zM485 801h-292v75h292v-75z" />
    <glyph glyph-name="emacron" unicode="&#x113;" horiz-adv-x="583" 
d="M536 283v-38h-376q2 -78 38.5 -120t104.5 -42q44 0 72 17t39 48h115q-15 -73 -73.5 -117t-153.5 -44q-58 0 -106 20t-80.5 56t-50 86t-17.5 109t17.5 108t50 84t79.5 53.5t104 18.5q41 0 82.5 -12.5t75.5 -42t56 -76t23 -108.5zM298 432q-42 0 -71.5 -17t-43 -41
t-18.5 -45h255q-4 32 -23 57.5t-46.5 35.5t-52.5 10zM441 628h-292v77h292v-77z" />
    <glyph glyph-name="Edotaccent" unicode="&#x116;" horiz-adv-x="659" 
d="M207 109h406v-109h-526v714h513v-109h-393v-184h311v-107h-311v-205zM409 790h-120v106h120v-106z" />
    <glyph glyph-name="edotaccent" unicode="&#x117;" horiz-adv-x="583" 
d="M536 283v-38h-376q2 -78 38.5 -120t104.5 -42q44 0 72 17t39 48h115q-15 -73 -73.5 -117t-153.5 -44q-58 0 -106 20t-80.5 56t-50 86t-17.5 109t17.5 108t50 84t79.5 53.5t104 18.5q41 0 82.5 -12.5t75.5 -42t56 -76t23 -108.5zM298 432q-42 0 -71.5 -17t-43 -41
t-18.5 -45h255q-4 32 -23 57.5t-46.5 35.5t-52.5 10zM360 627h-120v113h120v-113z" />
    <glyph glyph-name="Eogonek" unicode="&#x118;" horiz-adv-x="659" 
d="M207 109h406v-109q-29 -15 -47 -36.5t-18 -44.5q0 -22 18 -35t49 -13v-71h-26q-63 0 -96 26t-33 70q0 14 7 33.5t25.5 39.5t43.5 31h-449v714h513v-109h-393v-184h311v-107h-311v-205z" />
    <glyph glyph-name="eogonek" unicode="&#x119;" horiz-adv-x="583" 
d="M536 283v-38h-376q2 -78 38.5 -120t104.5 -42q44 0 72 17t39 48h115q-19 -92 -105 -136q-36 -19 -53.5 -40t-17.5 -50q0 -24 17.5 -37.5t49.5 -13.5v-71h-26q-63 0 -96 26t-33 70q0 26 15 49.5t40 41.5h-18q-58 0 -106 20t-80.5 56t-50 86t-17.5 109t17.5 108t50 84
t79.5 53.5t104 18.5q41 0 82.5 -12.5t75.5 -42t56 -76t23 -108.5zM298 432q-42 0 -71.5 -17t-43 -41t-18.5 -45h255q-4 32 -23 57.5t-46.5 35.5t-52.5 10z" />
    <glyph glyph-name="Ecaron" unicode="&#x11a;" horiz-adv-x="659" 
d="M207 109h406v-109h-526v714h513v-109h-393v-184h311v-107h-311v-205zM298 767l-111 129h100l54 -60h20l55 60h98l-111 -129h-105z" />
    <glyph glyph-name="ecaron" unicode="&#x11b;" horiz-adv-x="583" 
d="M536 283v-38h-376q2 -78 38.5 -120t104.5 -42q44 0 72 17t39 48h115q-15 -73 -73.5 -117t-153.5 -44q-58 0 -106 20t-80.5 56t-50 86t-17.5 109t17.5 108t50 84t79.5 53.5t104 18.5q41 0 82.5 -12.5t75.5 -42t56 -76t23 -108.5zM298 432q-42 0 -71.5 -17t-43 -41
t-18.5 -45h255q-4 32 -23 57.5t-46.5 35.5t-52.5 10zM249 582l-111 145h97l58 -73h18l58 73h96l-112 -145h-104z" />
    <glyph glyph-name="Gcommaaccent" unicode="&#x122;" horiz-adv-x="757" 
d="M381 388h316v-78q0 -63 -17.5 -121t-54.5 -103.5t-96.5 -72t-138.5 -26.5q-80 0 -143.5 27.5t-107 77.5t-65.5 118t-22 147t22.5 147t66 118t107.5 77.5t143 27.5q115 0 189.5 -56t95.5 -152h-125q-14 47 -54.5 73t-105.5 26q-53 0 -94.5 -20t-68.5 -55.5t-40.5 -83.5
t-13.5 -102t13.5 -102t40 -84t68.5 -56t95 -20q90 0 136.5 51t48.5 140h-195v102zM396 -226h-74l62 64v17h-52v89h125v-106z" />
    <glyph glyph-name="gcommaaccent" unicode="&#x123;" 
d="M442 509h110v-484q0 -107 -67 -170.5t-179 -63.5q-102 0 -165.5 43t-72.5 121h112q14 -71 124 -71q69 0 102 39.5t33 109.5v35h-20q-20 -28 -55.5 -45.5t-85.5 -17.5q-51 0 -93.5 19t-73 53.5t-46.5 82.5t-16 103t16 103t46.5 83t73 54t93.5 19t88 -18t56 -45h20v50z
M301 101q34 0 61 13t45.5 35.5t27 53t8.5 60.5t-11 68.5t-45.5 66.5t-85.5 28q-65 0 -102 -45t-37 -118q0 -72 37 -117t102 -45zM303 746h74l-62 -64v-17h52v-89h-125v106z" />
    <glyph glyph-name="Itilde" unicode="&#x128;" horiz-adv-x="305" 
d="M92 714h120v-714h-120v714zM256 896h66q0 -63 -26.5 -96t-75.5 -33q-20 0 -39 7t-49.5 26t-47.5 19q-14 0 -24 -9.5t-10 -42.5h-65q0 63 26.5 96t74.5 33q21 0 39.5 -7t49.5 -25.5t48 -18.5q14 0 23.5 9t9.5 42z" />
    <glyph glyph-name="itilde" unicode="&#x129;" horiz-adv-x="272" 
d="M239 722h65q0 -65 -25.5 -100.5t-75.5 -35.5q-11 0 -24 3t-26 9.5t-41.5 25.5t-45.5 19q-33 0 -33 -57h-65q0 65 26 100.5t75 35.5q20 0 39 -7.5t50.5 -28.5t48.5 -21q14 0 23 11t9 46zM192 509v-509h-113v509h113z" />
    <glyph glyph-name="Imacron" unicode="&#x12a;" horiz-adv-x="305" 
d="M92 714h120v-714h-120v714zM298 801h-292v75h292v-75z" />
    <glyph glyph-name="imacron" unicode="&#x12b;" horiz-adv-x="272" 
d="M281 628h-292v77h292v-77zM192 509v-509h-113v509h113z" />
    <glyph glyph-name="Iogonek" unicode="&#x12e;" horiz-adv-x="305" 
d="M92 714h120v-714q-29 -15 -47 -36.5t-18 -44.5q0 -22 18 -35t49 -13v-71h-26q-63 0 -96 26t-33 70q0 14 7 33.5t25.5 39.5t43.5 31h-43v714z" />
    <glyph glyph-name="iogonek" unicode="&#x12f;" horiz-adv-x="272" 
d="M192 509v-509q-29 -15 -47 -36.5t-18 -44.5q0 -22 18 -35t49 -13v-71h-26q-63 0 -96 26t-33 70q0 14 7 33.5t25.5 39.5t43.5 31h-36v509h113zM196 614h-120v113h120v-113z" />
    <glyph glyph-name="dotlessi" unicode="&#x131;" horiz-adv-x="272" 
d="M192 509v-509h-113v509h113z" />
    <glyph glyph-name="Kcommaaccent" unicode="&#x136;" horiz-adv-x="736" 
d="M87 0v714h120v-324l327 324h145l-217 -225l246 -489h-129l-199 385h-20l-153 -150v-235h-120zM394 -226h-74l62 64v17h-52v89h125v-106z" />
    <glyph glyph-name="kcommaaccent" unicode="&#x137;" horiz-adv-x="576" 
d="M564 0h-122l-131 256h-20l-100 -111v-145h-113v727h113v-443l212 225h132l-148 -161zM321 -226h-74l62 64v17h-52v89h125v-106z" />
    <glyph glyph-name="kgreenlandic" unicode="&#x138;" horiz-adv-x="576" 
d="M564 0h-120l-133 257h-20l-100 -111v-146h-113v509h113v-227l214 227h129l-148 -160z" />
    <glyph glyph-name="Lacute" unicode="&#x139;" horiz-adv-x="637" 
d="M207 113h389v-113h-509v714h120v-601zM312 896l-113 -129h-105l88 129h130z" />
    <glyph glyph-name="lacute" unicode="&#x13a;" horiz-adv-x="269" 
d="M78 727h113v-727h-113v727zM300 896l-113 -129h-105l88 129h130z" />
    <glyph glyph-name="Lcommaaccent" unicode="&#x13b;" horiz-adv-x="637" 
d="M207 113h389v-113h-509v714h120v-601zM346 -226h-74l62 64v17h-52v89h125v-106z" />
    <glyph glyph-name="lcommaaccent" unicode="&#x13c;" horiz-adv-x="269" 
d="M78 727h113v-727h-113v727zM140 -226h-74l62 64v17h-52v89h125v-106z" />
    <glyph glyph-name="Lcaron" unicode="&#x13d;" horiz-adv-x="637" 
d="M207 113h389v-113h-509v714h120v-601zM432 603h-58v111h131v-128l-64 -82h-73l64 82v17z" />
    <glyph glyph-name="lcaron" unicode="&#x13e;" horiz-adv-x="377" 
d="M78 727h113v-727h-113v727zM335 616h-58v111h131v-128l-64 -82h-73l64 82v17z" />
    <glyph glyph-name="Lslash" unicode="&#x141;" horiz-adv-x="659" 
d="M229 113h389v-113h-509v287l-89 -36v102l89 35v326h120v-278l175 71v-101l-175 -71v-222z" />
    <glyph glyph-name="lslash" unicode="&#x142;" horiz-adv-x="355" 
d="M121 727h113v-281l98 44v-103l-98 -44v-343h-113v292l-98 -44v103l98 44v332z" />
    <glyph glyph-name="Nacute" unicode="&#x143;" horiz-adv-x="774" 
d="M574 714h114v-714h-167l-300 542h-20v-542h-114v714h167l300 -542h20v542zM544 896l-113 -129h-105l88 129h130z" />
    <glyph glyph-name="nacute" unicode="&#x144;" horiz-adv-x="620" 
d="M549 0h-113v296q0 60 -29.5 92.5t-84.5 32.5q-44 0 -75.5 -25t-43.5 -61t-12 -65v-270h-113v509h110v-50h20q21 28 57.5 45.5t86.5 17.5q93 0 145 -55.5t52 -151.5v-315zM473 727l-113 -145h-102l89 145h126z" />
    <glyph glyph-name="Ncommaaccent" unicode="&#x145;" horiz-adv-x="774" 
d="M574 714h114v-714h-167l-300 542h-20v-542h-114v714h167l300 -542h20v542zM389 -226h-74l62 64v17h-52v89h125v-106z" />
    <glyph glyph-name="ncommaaccent" unicode="&#x146;" horiz-adv-x="620" 
d="M549 0h-113v296q0 60 -29.5 92.5t-84.5 32.5q-44 0 -75.5 -25t-43.5 -61t-12 -65v-270h-113v509h110v-50h20q21 28 57.5 45.5t86.5 17.5q93 0 145 -55.5t52 -151.5v-315zM318 -226h-74l62 64v17h-52v89h125v-106z" />
    <glyph glyph-name="Ncaron" unicode="&#x147;" horiz-adv-x="774" 
d="M574 714h114v-714h-167l-300 542h-20v-542h-114v714h167l300 -542h20v542zM335 767l-111 129h100l54 -60h20l55 60h98l-111 -129h-105z" />
    <glyph glyph-name="ncaron" unicode="&#x148;" horiz-adv-x="620" 
d="M549 0h-113v296q0 60 -29.5 92.5t-84.5 32.5q-44 0 -75.5 -25t-43.5 -61t-12 -65v-270h-113v509h110v-50h20q21 28 57.5 45.5t86.5 17.5q93 0 145 -55.5t52 -151.5v-315zM263 582l-111 145h97l58 -73h18l58 73h96l-112 -145h-104z" />
    <glyph glyph-name="Eng" unicode="&#x14a;" horiz-adv-x="774" 
d="M574 714h114v-694q0 -105 -60 -162.5t-164 -57.5h-48v101h44q53 0 82 23.5t34 75.5h-53l-302 540h-20v-540h-114v714h165l302 -540h20v540z" />
    <glyph glyph-name="eng" unicode="&#x14b;" horiz-adv-x="620" 
d="M436 296q0 60 -29.5 92.5t-84.5 32.5q-44 0 -75.5 -25t-43.5 -61t-12 -65v-270h-113v509h110v-50h20q21 28 57.5 45.5t86.5 17.5q93 0 145 -55.5t52 -151.5v-336q0 -89 -48.5 -134t-131.5 -45h-64v96h46q85 0 85 90v310z" />
    <glyph glyph-name="Omacron" unicode="&#x14c;" horiz-adv-x="786" 
d="M393 727q80 0 144 -28t107.5 -78.5t66 -118.5t22.5 -145t-22.5 -145t-66 -118.5t-107.5 -78.5t-144 -28t-144.5 28t-108 78.5t-66 118.5t-22.5 145t22.5 145t66 118.5t108 78.5t144.5 28zM393 96q68 0 115.5 31t75 89.5t27.5 140.5t-27.5 140.5t-75 89.5t-115.5 31
t-116 -31t-75.5 -89.5t-27.5 -140.5t27.5 -140.5t75.5 -89.5t116 -31zM539 801h-292v75h292v-75z" />
    <glyph glyph-name="omacron" unicode="&#x14d;" horiz-adv-x="610" 
d="M305 522q58 0 106 -19.5t82 -55.5t51.5 -85.5t17.5 -106.5t-17.5 -107t-51.5 -86t-82 -55.5t-106 -19.5t-106 19.5t-82 55.5t-51.5 86t-17.5 107t17.5 106.5t51.5 85.5t82 55.5t106 19.5zM305 83q44 0 78.5 23t50 64t15.5 85q0 43 -15.5 84t-50 64t-78.5 23t-78.5 -23
t-50 -64t-15.5 -84q0 -44 15.5 -85t50 -64t78.5 -23zM451 628h-292v77h292v-77z" />
    <glyph glyph-name="Ohungarumlaut" unicode="&#x150;" horiz-adv-x="785" 
d="M393 727q80 0 144 -28t107.5 -78.5t66 -118.5t22.5 -145t-22.5 -145t-66 -118.5t-107.5 -78.5t-144 -28t-144.5 28t-108 78.5t-66 118.5t-22.5 145t22.5 145t66 118.5t108 78.5t144.5 28zM393 96q68 0 115.5 31t75 89.5t27.5 140.5t-27.5 140.5t-75 89.5t-115.5 31
t-116 -31t-75.5 -89.5t-27.5 -140.5t27.5 -140.5t75.5 -89.5t116 -31zM439 896l-100 -129h-92l77 129h115zM611 896l-101 -129h-91l78 129h114z" />
    <glyph glyph-name="ohungarumlaut" unicode="&#x151;" horiz-adv-x="610" 
d="M305 522q58 0 106 -19.5t82 -55.5t51.5 -85.5t17.5 -106.5t-17.5 -107t-51.5 -86t-82 -55.5t-106 -19.5t-106 19.5t-82 55.5t-51.5 86t-17.5 107t17.5 106.5t51.5 85.5t82 55.5t106 19.5zM305 83q44 0 78.5 23t50 64t15.5 85q0 43 -15.5 84t-50 64t-78.5 23t-78.5 -23
t-50 -64t-15.5 -84q0 -44 15.5 -85t50 -64t78.5 -23zM346 727l-97 -145h-91l75 145h113zM520 727l-99 -145h-90l75 145h114z" />
    <glyph glyph-name="OE" unicode="&#x152;" horiz-adv-x="1088" 
d="M687 109h355v-109h-475v46h-20q-30 -28 -76.5 -43.5t-95.5 -15.5q-73 0 -133.5 27t-102.5 76t-64.5 118t-22.5 149t22.5 149t64.5 118t102.5 76t133.5 27q49 0 95.5 -15.5t76.5 -43.5h20v46h462v-109h-342v-184h260v-106h-260v-206zM392 96q64 0 109 27t66 69v330
q-21 43 -66 69.5t-109 26.5q-54 0 -95.5 -20.5t-68.5 -56.5t-40.5 -83.5t-13.5 -100.5t13.5 -100.5t40.5 -83.5t68.5 -56.5t95.5 -20.5z" />
    <glyph glyph-name="oe" unicode="&#x153;" horiz-adv-x="972" 
d="M925 245h-370q2 -75 37 -118.5t101 -43.5q86 0 111 65h114q-15 -74 -72.5 -117.5t-152.5 -43.5q-58 0 -106 24t-78 64h-20q-30 -41 -79.5 -64.5t-108.5 -23.5q-42 0 -86.5 13.5t-85.5 50t-61 92t-20 112.5q0 56 17.5 105.5t50.5 85.5t80.5 56t104.5 20q58 0 107.5 -23.5
t80.5 -63.5h20q28 39 77.5 63t109.5 24q52 0 95 -18.5t73 -51.5t45.5 -76.5t15.5 -92.5v-38zM302 83q26 0 51.5 9t48 34t32 61.5t9.5 67.5t-8.5 63t-26 56t-44.5 38t-62 14q-26 0 -51.5 -9.5t-48 -34t-32 -60.5t-9.5 -67t8.5 -63.5t26 -57t44.5 -38t62 -13.5zM691 432
q-41 0 -70 -16.5t-42.5 -41t-18.5 -45.5h248q-3 33 -21 58t-44.5 35t-51.5 10z" />
    <glyph glyph-name="Racute" unicode="&#x154;" horiz-adv-x="718" 
d="M413 714q115 0 179 -57t64 -158q0 -65 -28 -113.5t-79 -73.5l110 -312h-122l-101 286q-21 -2 -63 -2h-166v-284h-120v714h326zM207 608v-220h189q138 0 138 110q0 54 -32.5 82t-105.5 28h-189zM491 896l-113 -129h-105l88 129h130z" />
    <glyph glyph-name="racute" unicode="&#x155;" horiz-adv-x="424" 
d="M391 509v-105h-43q-76 0 -116.5 -43t-40.5 -123v-238h-113v509h110v-60h20q19 25 54 42.5t87 17.5h42zM363 727l-113 -145h-102l89 145h126z" />
    <glyph glyph-name="Rcommaaccent" unicode="&#x156;" horiz-adv-x="718" 
d="M413 714q115 0 179 -57t64 -158q0 -65 -28 -113.5t-79 -73.5l110 -312h-122l-101 286q-21 -2 -63 -2h-166v-284h-120v714h326zM207 608v-220h189q138 0 138 110q0 54 -32.5 82t-105.5 28h-189zM365 -226h-74l62 64v17h-52v89h125v-106z" />
    <glyph glyph-name="rcommaaccent" unicode="&#x157;" horiz-adv-x="424" 
d="M391 509v-105h-43q-76 0 -116.5 -43t-40.5 -123v-238h-113v509h110v-60h20q19 25 54 42.5t87 17.5h42zM139 -226h-74l62 64v17h-52v89h125v-106z" />
    <glyph glyph-name="Rcaron" unicode="&#x158;" horiz-adv-x="718" 
d="M413 714q115 0 179 -57t64 -158q0 -65 -28 -113.5t-79 -73.5l110 -312h-122l-101 286q-21 -2 -63 -2h-166v-284h-120v714h326zM207 608v-220h189q138 0 138 110q0 54 -32.5 82t-105.5 28h-189zM302 767l-111 129h100l54 -60h20l55 60h98l-111 -129h-105z" />
    <glyph glyph-name="rcaron" unicode="&#x159;" horiz-adv-x="424" 
d="M391 509v-105h-43q-76 0 -116.5 -43t-40.5 -123v-238h-113v509h110v-60h20q19 25 54 42.5t87 17.5h42zM181 582l-111 145h97l58 -73h18l58 73h96l-112 -145h-104z" />
    <glyph glyph-name="Sacute" unicode="&#x15a;" horiz-adv-x="677" 
d="M605 526h-122q-22 96 -150 96q-59 0 -98 -25t-39 -72q0 -20 10 -38.5t34.5 -30.5t59.5 -19l134 -26q187 -41 187 -205q0 -44 -17.5 -83.5t-52.5 -70t-88.5 -48t-120.5 -17.5q-127 0 -206.5 61t-89.5 161h122q11 -63 60.5 -90t118.5 -27q31 0 68 9.5t61 35.5t24 64
q0 23 -9.5 45.5t-35 37.5t-63.5 23l-139 27q-85 16 -131.5 63.5t-46.5 124.5q0 31 10 60.5t29 54.5t46.5 43.5t71 32.5t103.5 14q112 0 185 -54.5t85 -146.5zM482 896l-113 -129h-105l88 129h130z" />
    <glyph glyph-name="sacute" unicode="&#x15b;" horiz-adv-x="531" 
d="M244 323l85 -15q47 -8 85 -27t57 -53.5t19 -78.5q0 -31 -14.5 -60.5t-42 -52.5t-69.5 -36t-93 -13q-54 0 -96 12t-71 33.5t-45.5 52.5t-20.5 69h113q3 -18 16 -35.5t40 -27.5t62 -10q48 0 73.5 14.5t30 30t4.5 21.5q0 28 -20 42.5t-66 23.5l-97 18q-136 30 -136 136
q0 49 26.5 84t72 53t109.5 18q44 0 90.5 -13.5t79.5 -49.5t39 -86h-113q-3 21 -21.5 34t-40.5 17t-39 4q-27 0 -49.5 -7.5t-31.5 -20t-9 -25.5q0 -17 13 -30.5t60 -21.5zM413 727l-113 -145h-102l89 145h126z" />
    <glyph glyph-name="Scedilla" unicode="&#x15e;" horiz-adv-x="677" 
d="M605 526h-122q-22 96 -150 96q-59 0 -98 -25t-39 -72q0 -20 10 -38.5t34.5 -30.5t59.5 -19l134 -26q187 -41 187 -205q0 -44 -17.5 -83.5t-52.5 -70t-88.5 -48t-120.5 -17.5h-4l-17 -45h13q12 9 36 9q29 0 49 -23t20 -59t-26.5 -63t-77.5 -27q-43 0 -69 22.5t-28 52.5h63
q3 -10 12.5 -17t23.5 -7q16 0 26 10t10 26t-10 26t-26 10q-19 0 -31 -12h-58l38 100q-104 13 -168 71.5t-72 147.5h122q11 -63 60.5 -90t118.5 -27q31 0 68 9.5t61 35.5t24 64q0 23 -9.5 45.5t-35 37.5t-63.5 23l-139 27q-85 16 -131.5 63.5t-46.5 124.5q0 31 10 60.5
t29 54.5t46.5 43.5t71 32.5t103.5 14q112 0 185 -54.5t85 -146.5z" />
    <glyph glyph-name="scedilla" unicode="&#x15f;" horiz-adv-x="531" 
d="M244 323l85 -15q47 -8 85 -27t57 -53.5t19 -78.5q0 -31 -14.5 -60.5t-42 -52.5t-69.5 -36t-93 -13h-8l-17 -45h13q12 9 35 9q29 0 49.5 -23t20.5 -59t-26.5 -63t-77.5 -27q-43 0 -69 22.5t-28 52.5h63q3 -10 12.5 -17t23.5 -7q16 0 26 10t10 26t-10 26t-26 10
q-19 0 -31 -12h-58l38 101q-79 11 -122.5 53.5t-50.5 109.5h113q3 -18 16 -35.5t40 -27.5t62 -10q48 0 73.5 14.5t30 30t4.5 21.5q0 28 -20 42.5t-66 23.5l-97 18q-136 30 -136 136q0 49 26.5 84t72 53t109.5 18q44 0 90.5 -13.5t79.5 -49.5t39 -86h-113q-3 21 -21.5 34
t-40.5 17t-39 4q-27 0 -49.5 -7.5t-31.5 -20t-9 -25.5q0 -17 13 -30.5t60 -21.5z" />
    <glyph glyph-name="Scaron" unicode="&#x160;" horiz-adv-x="677" 
d="M605 526h-122q-22 96 -150 96q-59 0 -98 -25t-39 -72q0 -20 10 -38.5t34.5 -30.5t59.5 -19l134 -26q187 -41 187 -205q0 -44 -17.5 -83.5t-52.5 -70t-88.5 -48t-120.5 -17.5q-127 0 -206.5 61t-89.5 161h122q11 -63 60.5 -90t118.5 -27q31 0 68 9.5t61 35.5t24 64
q0 23 -9.5 45.5t-35 37.5t-63.5 23l-139 27q-85 16 -131.5 63.5t-46.5 124.5q0 31 10 60.5t29 54.5t46.5 43.5t71 32.5t103.5 14q112 0 185 -54.5t85 -146.5zM283 767l-111 129h100l54 -60h20l55 60h98l-111 -129h-105z" />
    <glyph glyph-name="scaron" unicode="&#x161;" horiz-adv-x="531" 
d="M244 323l85 -15q47 -8 85 -27t57 -53.5t19 -78.5q0 -31 -14.5 -60.5t-42 -52.5t-69.5 -36t-93 -13q-54 0 -96 12t-71 33.5t-45.5 52.5t-20.5 69h113q3 -18 16 -35.5t40 -27.5t62 -10q48 0 73.5 14.5t30 30t4.5 21.5q0 28 -20 42.5t-66 23.5l-97 18q-136 30 -136 136
q0 49 26.5 84t72 53t109.5 18q44 0 90.5 -13.5t79.5 -49.5t39 -86h-113q-3 21 -21.5 34t-40.5 17t-39 4q-27 0 -49.5 -7.5t-31.5 -20t-9 -25.5q0 -17 13 -30.5t60 -21.5zM217 582l-111 145h97l58 -73h18l58 73h96l-112 -145h-104z" />
    <glyph glyph-name="Tcommaaccent" unicode="&#x162;" horiz-adv-x="611" 
d="M594 714v-106h-228v-608h-120v608h-229v106h577zM310 -226h-74l62 64v17h-52v89h125v-106z" />
    <glyph glyph-name="tcommaaccent" unicode="&#x163;" horiz-adv-x="421" 
d="M231 509h134v-96h-134v-251q0 -31 18 -47.5t58 -16.5h58v-98h-62q-105 0 -145 36t-40 109v268h-93v96h93v148h113v-148zM243 -226h-74l62 64v17h-52v89h125v-106z" />
    <glyph glyph-name="Tcaron" unicode="&#x164;" horiz-adv-x="611" 
d="M594 714v-106h-228v-608h-120v608h-229v106h577zM253 767l-111 129h100l54 -60h20l55 60h98l-111 -129h-105z" />
    <glyph glyph-name="tcaron" unicode="&#x165;" horiz-adv-x="458" 
d="M231 509h134v-96h-134v-251q0 -31 18 -47.5t58 -16.5h58v-98h-62q-105 0 -145 36t-40 109v268h-93v96h93v148h113v-148zM412 657h-58v111h131v-128l-64 -82h-73l64 82v17z" />
    <glyph glyph-name="Tbar" unicode="&#x166;" horiz-adv-x="611" 
d="M594 714v-106h-228v-196h152v-94h-152v-318h-120v318h-154v94h154v196h-229v106h577z" />
    <glyph glyph-name="tbar" unicode="&#x167;" horiz-adv-x="421" 
d="M25 237v92h93v88h-93v92h93v148h113v-148h134v-92h-134v-88h134v-92h-134v-75q0 -31 18 -47.5t58 -16.5h58v-98h-62q-105 0 -145 36t-40 109v92h-93z" />
    <glyph glyph-name="Utilde" unicode="&#x168;" horiz-adv-x="750" 
d="M545 714h120v-455q0 -129 -76 -200.5t-214 -71.5t-214 71.5t-76 200.5v455h120v-452q0 -76 44.5 -121t125.5 -45t125.5 45t44.5 121v452zM478 896h66q0 -63 -26.5 -96t-75.5 -33q-20 0 -39 7t-49.5 26t-47.5 19q-14 0 -24 -9.5t-10 -42.5h-65q0 63 26.5 96t74.5 33
q21 0 39.5 -7t49.5 -25.5t48 -18.5q14 0 23.5 9t9.5 42z" />
    <glyph glyph-name="utilde" unicode="&#x169;" horiz-adv-x="617" 
d="M71 509h113v-296q0 -61 28.5 -93t83.5 -32q44 0 75.5 25t43 60.5t11.5 65.5v270h113v-509h-110v50h-20q-21 -28 -57.5 -45.5t-85.5 -17.5q-93 0 -144 55.5t-51 151.5v315zM407 722h65q0 -65 -25.5 -100.5t-75.5 -35.5q-11 0 -24 3t-26 9.5t-41.5 25.5t-45.5 19
q-33 0 -33 -57h-65q0 65 26 100.5t75 35.5q20 0 39 -7.5t50.5 -28.5t48.5 -21q14 0 23 11t9 46z" />
    <glyph glyph-name="Umacron" unicode="&#x16a;" horiz-adv-x="750" 
d="M545 714h120v-455q0 -129 -76 -200.5t-214 -71.5t-214 71.5t-76 200.5v455h120v-452q0 -76 44.5 -121t125.5 -45t125.5 45t44.5 121v452zM521 801h-292v75h292v-75z" />
    <glyph glyph-name="umacron" unicode="&#x16b;" horiz-adv-x="617" 
d="M71 509h113v-296q0 -61 28.5 -93t83.5 -32q44 0 75.5 25t43 60.5t11.5 65.5v270h113v-509h-110v50h-20q-21 -28 -57.5 -45.5t-85.5 -17.5q-93 0 -144 55.5t-51 151.5v315zM450 628h-292v77h292v-77z" />
    <glyph glyph-name="Uring" unicode="&#x16e;" horiz-adv-x="750" 
d="M545 714h120v-455q0 -129 -76 -200.5t-214 -71.5t-214 71.5t-76 200.5v455h120v-452q0 -76 44.5 -121t125.5 -45t125.5 45t44.5 121v452zM375 974q22 0 48.5 -11t45.5 -39t19 -62q0 -21 -11 -47t-39.5 -45t-62.5 -19q-33 0 -62 19t-40.5 45t-11.5 47q0 22 11.5 48t40 45
t62.5 19zM375 810q22 0 37.5 15.5t15.5 36.5q0 22 -16 38t-37 16t-37 -16t-16 -38q0 -21 15.5 -36.5t37.5 -15.5z" />
    <glyph glyph-name="uring" unicode="&#x16f;" horiz-adv-x="617" 
d="M71 509h113v-296q0 -61 28.5 -93t83.5 -32q44 0 75.5 25t43 60.5t11.5 65.5v270h113v-509h-110v50h-20q-21 -28 -57.5 -45.5t-85.5 -17.5q-93 0 -144 55.5t-51 151.5v315zM304 798q22 0 48.5 -11t45.5 -39t19 -62q0 -21 -11 -47t-39.5 -45t-62.5 -19q-33 0 -62 19
t-40.5 45t-11.5 47q0 22 11.5 48t40 45t62.5 19zM304 634q22 0 37.5 15.5t15.5 36.5q0 22 -16 38t-37 16t-37 -16t-16 -38q0 -21 15.5 -36.5t37.5 -15.5z" />
    <glyph glyph-name="Uhungarumlaut" unicode="&#x170;" horiz-adv-x="750" 
d="M545 714h120v-455q0 -129 -76 -200.5t-214 -71.5t-214 71.5t-76 200.5v455h120v-452q0 -76 44.5 -121t125.5 -45t125.5 45t44.5 121v452zM425 896l-100 -129h-92l77 129h115zM597 896l-101 -129h-91l78 129h114z" />
    <glyph glyph-name="uhungarumlaut" unicode="&#x171;" horiz-adv-x="617" 
d="M71 509h113v-296q0 -61 28.5 -93t83.5 -32q44 0 75.5 25t43 60.5t11.5 65.5v270h113v-509h-110v50h-20q-21 -28 -57.5 -45.5t-85.5 -17.5q-93 0 -144 55.5t-51 151.5v315zM334 727l-97 -145h-91l75 145h113zM508 727l-99 -145h-90l75 145h114z" />
    <glyph glyph-name="Uogonek" unicode="&#x172;" horiz-adv-x="750" 
d="M375 96q81 0 125.5 45t44.5 121v452h120v-455q0 -85 -35 -148.5t-114 -98.5q-52 -23 -76 -43t-24 -50q0 -22 18 -35t49 -13v-71h-26q-63 0 -96 26t-33 70q0 51 55 91h-8q-138 0 -214 71.5t-76 200.5v455h120v-452q0 -76 44.5 -121t125.5 -45z" />
    <glyph glyph-name="uogonek" unicode="&#x173;" horiz-adv-x="617" 
d="M71 509h113v-296q0 -61 28.5 -93t83.5 -32q44 0 75.5 25t43 60.5t11.5 65.5v270h113v-509q-29 -15 -47 -36.5t-18 -44.5q0 -22 18 -35t49 -13v-71h-26q-63 0 -96 26t-33 70q0 14 7 33.5t25.5 39.5t43.5 31h-33v50h-20q-21 -28 -57.5 -45.5t-85.5 -17.5q-93 0 -144 55.5
t-51 151.5v315z" />
    <glyph glyph-name="Ydieresis" unicode="&#x178;" horiz-adv-x="661" 
d="M317 409h26l171 305h131l-255 -452v-262h-120v262l-255 452h131zM478 790h-104v106h104v-106zM289 790h-105v106h105v-106z" />
    <glyph glyph-name="Zacute" unicode="&#x179;" horiz-adv-x="656" 
d="M594 714v-130l-397 -454v-21h412v-109h-563v130l398 454v21h-371v109h521zM484 896l-113 -129h-105l88 129h130z" />
    <glyph glyph-name="zacute" unicode="&#x17a;" horiz-adv-x="535" 
d="M486 0h-437v116l283 277v20h-266v96h414v-115l-282 -278v-20h288v-96zM417 727l-113 -145h-102l89 145h126z" />
    <glyph glyph-name="Zdotaccent" unicode="&#x17b;" horiz-adv-x="656" 
d="M594 714v-130l-397 -454v-21h412v-109h-563v130l398 454v21h-371v109h521zM388 790h-120v106h120v-106z" />
    <glyph glyph-name="zdotaccent" unicode="&#x17c;" horiz-adv-x="535" 
d="M486 0h-437v116l283 277v20h-266v96h414v-115l-282 -278v-20h288v-96zM332 614h-120v113h120v-113z" />
    <glyph glyph-name="Zcaron" unicode="&#x17d;" horiz-adv-x="656" 
d="M594 714v-130l-397 -454v-21h412v-109h-563v130l398 454v21h-371v109h521zM276 767l-111 129h100l54 -60h20l55 60h98l-111 -129h-105z" />
    <glyph glyph-name="zcaron" unicode="&#x17e;" horiz-adv-x="535" 
d="M486 0h-437v116l283 277v20h-266v96h414v-115l-282 -278v-20h288v-96zM222 582l-111 145h97l58 -73h18l58 73h96l-112 -145h-104z" />
    <glyph glyph-name="florin" unicode="&#x192;" horiz-adv-x="432" 
d="M143 -200h-113l95 540h-91v96h108l17 97q11 65 37 107t69 64.5t113 22.5h44v-96h-42q-24 0 -47.5 -9.5t-39 -35.5t-23.5 -67l-16 -83h113v-96h-129z" />
    <glyph glyph-name="circumflex" unicode="&#x2c6;" horiz-adv-x="399" 
d="M252 727l111 -145h-97l-59 73h-17l-58 -73h-96l112 145h104z" />
    <glyph glyph-name="caron" unicode="&#x2c7;" horiz-adv-x="399" 
d="M147 582l-111 145h97l58 -73h18l58 73h96l-112 -145h-104z" />
    <glyph glyph-name="breve" unicode="&#x2d8;" horiz-adv-x="363" 
d="M247 727h78q0 -68 -37.5 -106.5t-105.5 -38.5t-106 38.5t-38 106.5h79q0 -72 65 -72q32 0 48.5 19t16.5 53z" />
    <glyph glyph-name="dotaccent" unicode="&#x2d9;" horiz-adv-x="196" 
d="M158 614h-120v113h120v-113z" />
    <glyph glyph-name="ring" unicode="&#x2da;" horiz-adv-x="307" 
d="M154 798q22 0 48.5 -11t45.5 -39t19 -62q0 -21 -11 -47t-39.5 -45t-62.5 -19q-33 0 -62 19t-40.5 45t-11.5 47q0 22 11.5 48t40 45t62.5 19zM154 634q22 0 37.5 15.5t15.5 36.5q0 22 -16 38t-37 16t-37 -16t-16 -38q0 -21 15.5 -36.5t37.5 -15.5z" />
    <glyph glyph-name="ogonek" unicode="&#x2db;" horiz-adv-x="234" 
d="M126 8l57 -8q-29 -15 -47 -36.5t-18 -44.5q0 -22 18 -35t49 -13v-71h-26q-63 0 -96 26t-33 70q0 26 15 51.5t37.5 40.5t43.5 20z" />
    <glyph glyph-name="tilde" unicode="&#x2dc;" horiz-adv-x="410" 
d="M308 722h65q0 -65 -25.5 -100.5t-75.5 -35.5q-11 0 -24 3t-26 9.5t-41.5 25.5t-45.5 19q-33 0 -33 -57h-65q0 65 26 100.5t75 35.5q20 0 39 -7.5t50.5 -28.5t48.5 -21q14 0 23 11t9 46z" />
    <glyph glyph-name="hungarumlaut" unicode="&#x2dd;" horiz-adv-x="440" 
d="M227 727l-97 -145h-91l75 145h113zM401 727l-99 -145h-90l75 145h114z" />
    <glyph glyph-name="Omega" unicode="&#x3a9;" horiz-adv-x="765" 
d="M588 117v-19h123v-98h-284v96q48 32 85 74t57.5 94.5t20.5 113.5q0 55 -15 100t-43 76t-66.5 47.5t-83.5 16.5t-83.5 -16.5t-66.5 -47.5t-43 -76t-15 -100q0 -61 20.5 -113.5t57.5 -94.5t85 -74v-96h-284v98h124v19q-37 31 -65.5 73t-44 91t-15.5 106q0 72 23 135t66 109
t105 71t136 25q75 0 137 -25t105 -71t65.5 -108.5t22.5 -135.5q0 -58 -15.5 -107t-43.5 -90.5t-65 -72.5z" />
    <glyph glyph-name="pi" unicode="&#x3c0;" horiz-adv-x="631" 
d="M583 0h-37q-83 0 -124.5 36t-41.5 129v248h-163v-413h-113v413h-79v96h558v-96h-90v-248q0 -69 53 -69h37v-96z" />
    <glyph glyph-name="afii10023" unicode="&#x401;" horiz-adv-x="659" 
d="M207 109h406v-109h-526v714h513v-109h-393v-184h311v-107h-311v-205zM487 790h-104v106h104v-106zM298 790h-105v106h105v-106z" />
    <glyph glyph-name="afii10051" unicode="&#x402;" horiz-adv-x="813" 
d="M763 207q0 -55 -17 -97t-48.5 -69t-75.5 -40.5t-98 -13.5q-35 0 -53 4v109q14 -4 43 -4q68 0 98.5 30t30.5 80q0 62 -44 88t-123 26q-32 0 -73 -4.5t-71 -11.5v-304h-120v608h-195v106h566v-106h-251v-195q82 16 167 16q88 0 145.5 -26.5t88 -75.5t30.5 -120z" />
    <glyph glyph-name="afii10052" unicode="&#x403;" horiz-adv-x="631" 
d="M476 896l-113 -129h-105l88 129h130zM589 605h-382v-605h-120v714h502v-109z" />
    <glyph glyph-name="afii10053" unicode="&#x404;" horiz-adv-x="726" 
d="M551 203h126q-8 -47 -32 -87t-62 -69t-88 -44.5t-108 -15.5q-78 0 -141 27.5t-106 77.5t-65.5 118t-22.5 147t22 147.5t65 118t106 77t141 27.5q55 0 102.5 -14.5t84.5 -41.5t61.5 -65t34.5 -83h-125q-17 46 -57.5 71t-102.5 25q-57 0 -99 -23t-69.5 -67.5t-35.5 -110.5
h298v-107h-299q5 -70 32.5 -118t71.5 -73t103 -25q30 0 65 9.5t62.5 35.5t37.5 63z" />
    <glyph glyph-name="afii10054" unicode="&#x405;" horiz-adv-x="677" 
d="M605 526h-122q-22 96 -150 96q-59 0 -98 -25t-39 -72q0 -20 10 -38.5t34.5 -30.5t59.5 -19l134 -26q187 -41 187 -205q0 -44 -17.5 -83.5t-52.5 -70t-88.5 -48t-120.5 -17.5q-127 0 -206.5 61t-89.5 161h122q11 -63 60.5 -90t118.5 -27q31 0 68 9.5t61 35.5t24 64
q0 23 -9.5 45.5t-35 37.5t-63.5 23l-139 27q-85 16 -131.5 63.5t-46.5 124.5q0 31 10 60.5t29 54.5t46.5 43.5t71 32.5t103.5 14q112 0 185 -54.5t85 -146.5z" />
    <glyph glyph-name="afii10055" unicode="&#x406;" horiz-adv-x="304" 
d="M92 714h120v-714h-120v714z" />
    <glyph glyph-name="afii10056" unicode="&#x407;" horiz-adv-x="304" 
d="M92 714h120v-714h-120v714zM299 790h-104v106h104v-106zM110 790h-105v106h105v-106z" />
    <glyph glyph-name="afii10057" unicode="&#x408;" horiz-adv-x="593" 
d="M274 -13q-51 0 -94 15.5t-75 45.5t-50.5 74t-21.5 99h120q3 -45 22 -75t47 -40t53 -10q24 0 51.5 11t44.5 43.5t17 83.5v480h120v-480q0 -116 -62.5 -181.5t-171.5 -65.5z" />
    <glyph glyph-name="afii10058" unicode="&#x409;" horiz-adv-x="1132" 
d="M826 0h-300v605h-252v-184q0 -97 -9 -178t-33.5 -135.5t-68 -81t-123.5 -26.5h-23v118h22q43 0 68.5 19.5t40 81t14.5 205.5v290h484v-258h180q121 0 188.5 -60.5t67.5 -166.5q0 -107 -67.5 -168t-188.5 -61zM806 106q81 0 117.5 31.5t36.5 91.5q0 36 -13.5 62t-46 42.5
t-94.5 16.5h-160v-244h160z" />
    <glyph glyph-name="afii10059" unicode="&#x40a;" horiz-adv-x="1160" 
d="M854 0h-300v319h-347v-319h-120v714h120v-285h347v285h120v-258h180q121 0 188.5 -60.5t67.5 -166.5q0 -107 -67.5 -168t-188.5 -61zM834 106q81 0 117.5 31.5t36.5 91.5q0 36 -13.5 62t-46 42.5t-94.5 16.5h-160v-244h160z" />
    <glyph glyph-name="afii10060" unicode="&#x40b;" horiz-adv-x="819" 
d="M763 0h-120v190q0 48 -10.5 73t-46.5 41t-107 16q-75 0 -147 -18v-302h-120v608h-195v106h566v-106h-251v-197q34 8 83 13t88 5q70 0 123.5 -13t84 -41.5t41.5 -67.5t11 -105v-202z" />
    <glyph glyph-name="afii10061" unicode="&#x40c;" horiz-adv-x="713" 
d="M87 0v714h120v-292h188l142 292h124l-165 -347l174 -367h-124l-151 313h-188v-313h-120zM510 896l-113 -129h-105l88 129h130z" />
    <glyph glyph-name="afii10062" unicode="&#x40e;" horiz-adv-x="662" 
d="M325 368h28l165 346h123l-342 -714h-122l102 214l-264 500h128zM426 904h91q-4 -72 -53 -113t-129 -41q-79 0 -128 41t-53 113h92q1 -24 15 -42.5t35 -25.5t39 -7q39 0 63.5 20.5t27.5 54.5z" />
    <glyph glyph-name="afii10145" unicode="&#x40f;" horiz-adv-x="759" 
d="M320 -175v175h-233v714h120v-605h346v605h120v-714h-233v-175h-120z" />
    <glyph glyph-name="afii10017" unicode="&#x410;" horiz-adv-x="705" 
d="M562 0l-66 205h-291l-65 -205h-122l237 714h194l238 -714h-125zM329 597l-90 -285h222l-91 285h-41z" />
    <glyph glyph-name="afii10018" unicode="&#x411;" horiz-adv-x="702" 
d="M408 433q115 0 179.5 -57.5t64.5 -158.5t-64.5 -159t-179.5 -58h-321v714h506v-109h-386v-172h201zM387 106q76 0 110 29t34 85q0 34 -12.5 58t-43 39.5t-88.5 15.5h-180v-227h180z" />
    <glyph glyph-name="afii10019" unicode="&#x412;" horiz-adv-x="713" 
d="M565 364q19 -8 42 -29t39.5 -57t16.5 -74q0 -43 -15 -80.5t-45.5 -65t-77.5 -43t-106 -15.5h-332v714h323q56 0 100 -14.5t73 -40t44 -59.5t15 -71q0 -47 -21 -87t-56 -58v-20zM399 421q120 0 120 95q0 94 -120 94h-192v-189h192zM403 104q137 0 137 108q0 52 -32.5 79.5
t-104.5 27.5h-196v-215h196z" />
    <glyph glyph-name="afii10020" unicode="&#x413;" horiz-adv-x="631" 
d="M589 605h-382v-605h-120v714h502v-109z" />
    <glyph glyph-name="afii10021" unicode="&#x414;" horiz-adv-x="779" 
d="M651 109h102v-284h-117v175h-504v-175h-117v284h74q87 172 87 438v167h475v-605zM533 109v496h-245v-69q0 -123 -19 -235t-57 -192h321z" />
    <glyph glyph-name="afii10022" unicode="&#x415;" horiz-adv-x="659" 
d="M207 109h406v-109h-526v714h513v-109h-393v-184h311v-107h-311v-205z" />
    <glyph glyph-name="afii10024" unicode="&#x416;" horiz-adv-x="1052" 
d="M746 308h-161v-308h-118v308h-161l-132 -308h-124l156 362l-147 352h124l123 -297h161v297h118v-297h161l123 297h124l-147 -352l156 -362h-124z" />
    <glyph glyph-name="afii10025" unicode="&#x417;" horiz-adv-x="678" 
d="M478 520q0 46 -38 72t-97 26q-63 0 -100.5 -24.5t-47.5 -71.5h-124q4 35 19.5 71t52 69t90.5 49t111 16q60 0 108.5 -14.5t81.5 -41t50 -61.5t17 -75q0 -54 -21.5 -91.5t-53.5 -53.5v-20q46 -17 74 -58.5t28 -107.5q0 -44 -18.5 -83.5t-55 -69.5t-89.5 -47t-118 -17
q-50 0 -101 10t-93 35.5t-71.5 68.5t-38.5 106h126q14 -54 60 -82.5t119 -28.5q33 0 70 10t61 36.5t24 65.5q0 51 -34.5 79.5t-108.5 28.5h-110v107h110q24 0 46 5t39.5 18.5t25 34t7.5 39.5z" />
    <glyph glyph-name="afii10026" unicode="&#x418;" horiz-adv-x="776" 
d="M87 714h114v-556h20l303 556h166v-714h-114v556h-20l-303 -556h-166v714z" />
    <glyph glyph-name="afii10027" unicode="&#x419;" horiz-adv-x="776" 
d="M87 714h114v-556h20l303 556h166v-714h-114v556h-20l-303 -556h-166v714zM479 904h91q-4 -72 -53 -113t-129 -41q-79 0 -128 41t-53 113h92q1 -24 15 -42.5t35 -25.5t39 -7q39 0 63.5 20.5t27.5 54.5z" />
    <glyph glyph-name="afii10028" unicode="&#x41a;" horiz-adv-x="699" 
d="M87 0v714h120v-292h188l142 292h124l-165 -347l174 -367h-124l-151 313h-188v-313h-120z" />
    <glyph glyph-name="afii10029" unicode="&#x41b;" horiz-adv-x="743" 
d="M17 118h22q53 0 77 27.5t35 95t11 194.5v279h495v-714h-120v605h-263v-184q0 -97 -9 -178t-33.5 -135.5t-68 -81t-123.5 -26.5h-23v118z" />
    <glyph glyph-name="afii10030" unicode="&#x41c;" horiz-adv-x="868" 
d="M87 0v714h186l152 -318h20l150 318h187v-714h-114v578h-20l-155 -320h-118l-154 320h-20v-578h-114z" />
    <glyph glyph-name="afii10031" unicode="&#x41d;" horiz-adv-x="770" 
d="M564 714h120v-714h-120v312h-357v-312h-120v714h120v-290h357v290z" />
    <glyph glyph-name="afii10032" unicode="&#x41e;" horiz-adv-x="785" 
d="M393 727q80 0 144 -28t107.5 -78.5t66 -118.5t22.5 -145t-22.5 -145t-66 -118.5t-107.5 -78.5t-144 -28t-144.5 28t-108 78.5t-66 118.5t-22.5 145t22.5 145t66 118.5t108 78.5t144.5 28zM393 96q68 0 115.5 31t75 89.5t27.5 140.5t-27.5 140.5t-75 89.5t-115.5 31
t-116 -31t-75.5 -89.5t-27.5 -140.5t27.5 -140.5t75.5 -89.5t116 -31z" />
    <glyph glyph-name="afii10033" unicode="&#x41f;" horiz-adv-x="762" 
d="M87 714h589v-714h-120v605h-349v-605h-120v714z" />
    <glyph glyph-name="afii10034" unicode="&#x420;" horiz-adv-x="701" 
d="M401 714q118 0 184 -58.5t66 -161.5q0 -104 -66 -163.5t-184 -59.5h-194v-271h-120v714h314zM383 377q77 0 111.5 30t34.5 86q0 57 -34.5 86t-111.5 29h-176v-231h176z" />
    <glyph glyph-name="afii10035" unicode="&#x421;" horiz-adv-x="728" 
d="M553 216h126q-19 -103 -96 -166t-195 -63q-78 0 -141.5 27.5t-106.5 77t-65.5 118t-22.5 147.5t22.5 147.5t66 118t107 77t141.5 27.5q112 0 187 -57.5t95 -153.5h-126q-33 102 -156 102q-66 0 -113 -31t-74.5 -89.5t-27.5 -140.5q0 -54 13 -101.5t39.5 -83t67.5 -56
t94 -20.5q31 0 66 10.5t62 39.5t37 70z" />
    <glyph glyph-name="afii10036" unicode="&#x422;" horiz-adv-x="611" 
d="M594 714v-106h-228v-608h-120v608h-229v106h577z" />
    <glyph glyph-name="afii10037" unicode="&#x423;" horiz-adv-x="662" 
d="M325 368h28l165 346h123l-342 -714h-122l102 214l-264 500h128z" />
    <glyph glyph-name="afii10038" unicode="&#x424;" horiz-adv-x="875" 
d="M495 654h11q72 0 132 -18.5t103 -54.5t66.5 -90.5t23.5 -123.5q0 -70 -23 -125t-66 -90.5t-103.5 -53.5t-132.5 -18h-11v-93h-116v93h-10q-73 0 -133.5 18t-103.5 53.5t-66 90.5t-23 125q0 69 23.5 123.5t66.5 90.5t103.5 54.5t132.5 18.5h10v83h116v-83zM369 184h10v366
h-10q-97 0 -151.5 -45.5t-54.5 -137.5q0 -91 54.5 -137t151.5 -46zM495 184h11q96 0 151 46t55 137t-54.5 137t-151.5 46h-11v-366z" />
    <glyph glyph-name="afii10039" unicode="&#x425;" horiz-adv-x="671" 
d="M515 0l-166 309h-28l-170 -309h-132l207 376l-178 338h128l146 -273h28l149 273h127l-181 -334l207 -380h-137z" />
    <glyph glyph-name="afii10040" unicode="&#x426;" horiz-adv-x="801" 
d="M657 -175v175h-570v714h120v-605h345v605h120v-605h103v-284h-118z" />
    <glyph glyph-name="afii10041" unicode="&#x427;" horiz-adv-x="692" 
d="M55 714h120v-204q0 -48 10.5 -73t46.5 -41t107 -16q75 0 147 18v316h120v-714h-120v289q-34 -8 -83 -13t-88 -5q-70 0 -123.5 13t-84 41.5t-41.5 67.5t-11 105v216z" />
    <glyph glyph-name="afii10042" unicode="&#x428;" horiz-adv-x="1030" 
d="M457 109v605h117v-605h253v605h117v-714h-857v714h117v-605h253z" />
    <glyph glyph-name="afii10043" unicode="&#x429;" horiz-adv-x="1072" 
d="M929 -175v175h-842v714h117v-605h253v605h117v-605h253v605h117v-605h102v-284h-117z" />
    <glyph glyph-name="afii10044" unicode="&#x42a;" horiz-adv-x="802" 
d="M496 0h-309v605h-182v109h302v-258h189q121 0 188.5 -60t67.5 -167t-67.5 -168t-188.5 -61zM476 106q81 0 117.5 31.5t36.5 91.5q0 36 -13.5 62t-46 42.5t-94.5 16.5h-169v-244h169z" />
    <glyph glyph-name="afii10045" unicode="&#x42b;" horiz-adv-x="928" 
d="M721 714h121v-714h-121v714zM358 106q81 0 117.5 31.5t36.5 91.5q0 36 -13.5 62t-46 42.5t-94.5 16.5h-151v-244h151zM377 0h-290v714h120v-258h170q121 0 189 -60.5t68 -166.5q0 -107 -68 -168t-189 -61z" />
    <glyph glyph-name="afii10046" unicode="&#x42c;" horiz-adv-x="702" 
d="M376 106q81 0 117.5 31.5t36.5 91.5q0 36 -13.5 62t-46 42.5t-94.5 16.5h-169v-244h169zM396 0h-309v714h120v-258h189q121 0 188.5 -60.5t67.5 -166.5q0 -107 -67.5 -168t-188.5 -61z" />
    <glyph glyph-name="afii10047" unicode="&#x42d;" horiz-adv-x="720" 
d="M43 203h126q10 -37 37.5 -63t62.5 -35.5t65 -9.5q59 0 103 25t71.5 73t32.5 118h-299v107h298q-8 66 -35.5 110.5t-69.5 67.5t-99 23q-62 0 -102.5 -25t-57.5 -71h-125q7 33 25.5 68.5t57 69t92 50t108.5 16.5q78 0 141 -27.5t106 -77t65 -118t22 -147.5t-22.5 -147
t-65.5 -118t-106 -77.5t-141 -27.5q-58 0 -108 15.5t-88 44.5t-62 69t-32 87z" />
    <glyph glyph-name="afii10048" unicode="&#x42e;" horiz-adv-x="1059" 
d="M673 727q78 0 141.5 -28t106 -78.5t64.5 -118.5t22 -145t-22 -145t-64.5 -118.5t-106 -78.5t-141.5 -28q-54 0 -110 16.5t-102.5 55.5t-79 102.5t-40.5 150.5h-134v-312h-120v714h120v-290h137q8 65 33.5 120.5t67.5 96.5t100 63.5t128 22.5zM673 96q65 0 111 31t73 89.5
t27 140.5t-27 140.5t-73 89.5t-111 31t-111.5 -31t-73.5 -89.5t-27 -140.5t27 -140.5t73.5 -89.5t111.5 -31z" />
    <glyph glyph-name="afii10049" unicode="&#x42f;" horiz-adv-x="716" 
d="M304 714h326v-714h-120v284h-166q-42 0 -63 2l-101 -286h-122l110 312q-51 25 -79 73.5t-28 113.5q0 101 64 158t179 57zM510 388v220h-189q-73 0 -105.5 -28t-32.5 -82q0 -110 138 -110h189z" />
    <glyph glyph-name="afii10065" unicode="&#x430;" horiz-adv-x="572" 
d="M395 0v49h-20q-23 -29 -62 -45.5t-89 -16.5q-53 0 -93.5 20.5t-65.5 58.5t-25 88q0 49 24.5 88t68.5 61t109 22h150v15q0 43 -27 68t-80 25q-47 0 -73 -17.5t-29 -47.5h-112q4 71 61.5 112.5t148.5 41.5q102 0 161 -46.5t59 -137.5v-338h-106zM257 79q35 0 64.5 14.5
t50 43t20.5 66.5v38h-130q-52 0 -80 -21.5t-28 -60.5q0 -38 27.5 -59t75.5 -21z" />
    <glyph glyph-name="afii10066" unicode="&#x431;" horiz-adv-x="614" 
d="M307 83q35 0 63 12.5t46 34.5t26.5 51t8.5 58t-8.5 58.5t-26.5 51.5t-46 34.5t-63 12.5q-36 0 -70 -15.5t-54 -54t-20 -87.5q0 -29 8.5 -58t26.5 -51t45.5 -34.5t63.5 -12.5zM330 492q106 0 171 -69t65 -180q0 -55 -18 -102.5t-51.5 -82t-82 -53t-105.5 -18.5
q-121 0 -191 80.5t-70 229.5q0 112 18.5 185.5t62.5 121t120 62.5l127 21q22 3 37.5 10t18.5 30h102q-2 -68 -30 -94.5t-76 -36.5l-157 -26q-31 -5 -58 -21.5t-43 -50t-23 -79.5h19q53 73 164 73z" />
    <glyph glyph-name="afii10067" unicode="&#x432;" horiz-adv-x="587" 
d="M453 260q37 -9 61.5 -41t24.5 -79q0 -68 -46.5 -104t-133.5 -36h-281v509h272q76 0 118.5 -34.5t42.5 -94.5q0 -35 -17.5 -62.5t-40.5 -38.5v-19zM338 86q87 0 87 66q0 30 -21 48.5t-66 18.5h-149v-133h149zM189 423v-118h137q37 0 54.5 16.5t17.5 42.5t-17.5 42.5
t-54.5 16.5h-137z" />
    <glyph glyph-name="afii10068" unicode="&#x433;" horiz-adv-x="505" 
d="M78 0v509h397v-96h-284v-413h-113z" />
    <glyph glyph-name="afii10069" unicode="&#x434;" horiz-adv-x="668" 
d="M550 96h92v-239h-108v143h-408v-143h-108v239h72q55 130 55 270v143h405v-413zM437 96v317h-189v-48q0 -147 -48 -269h237z" />
    <glyph glyph-name="afii10070" unicode="&#x435;" horiz-adv-x="583" 
d="M536 283v-38h-376q2 -78 38.5 -120t104.5 -42q44 0 72 17t39 48h115q-15 -73 -73.5 -117t-153.5 -44q-58 0 -106 20t-80.5 56t-50 86t-17.5 109t17.5 108t50 84t79.5 53.5t104 18.5q41 0 82.5 -12.5t75.5 -42t56 -76t23 -108.5zM298 432q-42 0 -71.5 -17t-43 -41
t-18.5 -45h255q-4 32 -23 57.5t-46.5 35.5t-52.5 10z" />
    <glyph glyph-name="afii10072" unicode="&#x436;" horiz-adv-x="829" 
d="M254 212l-101 -212h-116l123 262l-116 247h115l95 -201h108v201h106v-201h108l94 201h115l-115 -247l123 -262h-117l-100 212h-108v-212h-106v212h-108z" />
    <glyph glyph-name="afii10073" unicode="&#x437;" horiz-adv-x="550" 
d="M370 365q0 29 -27 45t-72 16q-95 0 -109 -65h-105q5 48 30.5 83t73 56.5t116.5 21.5q47 0 95 -14t79 -50t31 -81q0 -40 -15.5 -66t-37.5 -35v-20q30 -9 49.5 -37t19.5 -74q0 -68 -60 -113t-160 -45q-109 0 -169.5 43.5t-70.5 121.5h106q11 -37 45.5 -53t84.5 -16
q37 0 64 9.5t37 25.5t10 32q0 31 -23 47t-73 16h-87v92h82q43 0 64.5 16t21.5 44z" />
    <glyph glyph-name="afii10074" unicode="&#x438;" 
d="M205 0h-127v509h110v-334h20l214 334h130v-509h-110v334h-20z" />
    <glyph glyph-name="afii10075" unicode="&#x439;" 
d="M205 0h-127v509h110v-334h20l214 334h130v-509h-110v334h-20zM394 721h89q-4 -70 -48 -109t-121 -39t-121 39t-48 109h89q2 -24 13.5 -41.5t30 -24t36.5 -6.5t36.5 6.5t30 24t13.5 41.5z" />
    <glyph glyph-name="afii10076" unicode="&#x43a;" horiz-adv-x="586" 
d="M430 0l-113 213h-126v-213h-113v509h113v-200h128l107 200h116l-130 -245l137 -264h-119z" />
    <glyph glyph-name="afii10077" unicode="&#x43b;" horiz-adv-x="628" 
d="M23 0v107h18q58 0 77.5 49t19.5 147v206h412v-509h-113v413h-195v-113q0 -83 -10.5 -134t-29.5 -86t-57 -57.5t-104 -22.5h-18z" />
    <glyph glyph-name="afii10078" unicode="&#x43c;" horiz-adv-x="728" 
d="M78 0v509h157l120 -223h20l119 223h156v-509h-110v366h-20l-105 -191h-102l-105 191h-20v-366h-110z" />
    <glyph glyph-name="afii10079" unicode="&#x43d;" horiz-adv-x="628" 
d="M550 0h-113v213h-246v-213h-113v509h113v-200h246v200h113v-509z" />
    <glyph glyph-name="afii10080" unicode="&#x43e;" horiz-adv-x="610" 
d="M305 522q58 0 106 -19.5t82 -55.5t51.5 -85.5t17.5 -106.5t-17.5 -107t-51.5 -86t-82 -55.5t-106 -19.5t-106 19.5t-82 55.5t-51.5 86t-17.5 107t17.5 106.5t51.5 85.5t82 55.5t106 19.5zM305 83q44 0 78.5 23t50 64t15.5 85q0 43 -15.5 84t-50 64t-78.5 23t-78.5 -23
t-50 -64t-15.5 -84q0 -44 15.5 -85t50 -64t78.5 -23z" />
    <glyph glyph-name="afii10081" unicode="&#x43f;" horiz-adv-x="624" 
d="M546 0h-113v413h-242v-413h-113v509h468v-509z" />
    <glyph glyph-name="afii10082" unicode="&#x440;" horiz-adv-x="629" 
d="M355 -13q-97 0 -144 63h-20v-250h-113v709h110v-50h20q50 63 147 63q51 0 93 -20t72 -56t45.5 -85.5t15.5 -106.5t-16 -106t-45.5 -85t-72 -56t-92.5 -20zM329 426q-44 0 -77.5 -23t-48.5 -64t-15 -85q0 -43 15 -84t48.5 -64t77.5 -23q67 0 103 47.5t36 123.5
q0 77 -36 124.5t-103 47.5z" />
    <glyph glyph-name="afii10083" unicode="&#x441;" horiz-adv-x="568" 
d="M412 163h112q-12 -79 -72.5 -127.5t-151.5 -48.5q-57 0 -104.5 19.5t-80.5 55.5t-50 85.5t-17 107.5q0 57 17 106.5t50 85.5t80.5 55.5t104.5 19.5q91 0 150 -46.5t70 -121.5h-112q-11 34 -38 53t-69 19q-36 0 -63 -13.5t-44.5 -37.5t-25 -55.5t-7.5 -63.5t10 -73
t43.5 -70.5t86.5 -29.5q46 0 74.5 21t36.5 59z" />
    <glyph glyph-name="afii10084" unicode="&#x442;" horiz-adv-x="516" 
d="M30 413v96h456v-96h-171v-413h-113v413h-172z" />
    <glyph glyph-name="afii10085" unicode="&#x443;" horiz-adv-x="566" 
d="M245 -200h-117l105 250l-216 459h120l142 -307h26l129 307h119z" />
    <glyph glyph-name="afii10086" unicode="&#x444;" horiz-adv-x="749" 
d="M430 0v-200h-111v200h-12q-121 1 -190 71.5t-69 183.5q0 54 17 100.5t50 80.5t81 53t108 20h15v218h111v-218h15q59 -1 107.5 -20t81.5 -53t50 -80.5t17 -100.5q0 -57 -18 -104.5t-52.5 -81t-86 -51.5t-114.5 -18zM159 255q0 -31 8.5 -61.5t27 -53.5t47 -36t64.5 -13h13
v327h-12q-27 0 -54 -9t-50.5 -32t-33.5 -57.5t-10 -64.5zM430 91h11q72 1 110.5 47.5t38.5 116.5q0 30 -9 60.5t-28 53.5t-47.5 36t-64.5 13h-11v-327z" />
    <glyph glyph-name="afii10087" unicode="&#x445;" horiz-adv-x="577" 
d="M418 0l-115 200h-28l-117 -200h-124l154 261l-139 248h121l106 -188h28l108 188h119l-140 -245l152 -264h-125z" />
    <glyph glyph-name="afii10088" unicode="&#x446;" horiz-adv-x="659" 
d="M429 509h113v-413h91v-239h-107v143h-448v509h113v-413h238v413z" />
    <glyph glyph-name="afii10089" unicode="&#x447;" horiz-adv-x="577" 
d="M49 509h113v-147q0 -29 7.5 -47.5t32.5 -29.5t72 -11q54 0 111 12v223h114v-509h-114v192q-29 -6 -70.5 -10t-72.5 -4q-63 0 -107 15.5t-65 50.5t-21 103v162z" />
    <glyph glyph-name="afii10090" unicode="&#x448;" horiz-adv-x="835" 
d="M647 509h110v-509h-679v509h110v-413h175v413h109v-413h175v413z" />
    <glyph glyph-name="afii10091" unicode="&#x449;" horiz-adv-x="875" 
d="M647 509h110v-413h92v-239h-108v143h-663v509h110v-413h175v413h109v-413h175v413z" />
    <glyph glyph-name="afii10092" unicode="&#x44a;" horiz-adv-x="654" 
d="M18 413v96h262v-158h137q95 0 147 -46t52 -127q0 -82 -52 -130t-147 -48h-250v413h-149zM401 96q54 0 77.5 21.5t23.5 60.5q0 40 -23 61t-78 21h-121v-164h121z" />
    <glyph glyph-name="afii10093" unicode="&#x44b;" horiz-adv-x="786" 
d="M78 509h113v-158h127q95 0 146.5 -46t51.5 -127q0 -83 -52 -130.5t-146 -47.5h-240v509zM191 260v-164h111q54 0 77.5 21.5t23.5 60.5q0 40 -23 61t-78 21h-111zM595 509h113v-509h-113v509z" />
    <glyph glyph-name="afii10094" unicode="&#x44c;" horiz-adv-x="564" 
d="M191 509v-158h137q95 0 146.5 -46t51.5 -127q0 -83 -52 -130.5t-146 -47.5h-250v509h113zM312 96q54 0 77.5 21.5t23.5 60.5q0 40 -23 61t-78 21h-121v-164h121z" />
    <glyph glyph-name="afii10095" unicode="&#x44d;" horiz-adv-x="575" 
d="M47 155h108q8 -35 39.5 -53.5t80.5 -18.5q30 0 60.5 11.5t51.5 43.5t25 74h-203v92h202q-6 55 -41.5 88.5t-94.5 33.5q-96 0 -115 -65h-107q14 73 74 117t149 44q56 0 103 -19.5t80 -55t50.5 -85t17.5 -107.5t-17.5 -108t-50.5 -85.5t-80 -55t-104 -19.5q-90 0 -152 46.5
t-76 121.5z" />
    <glyph glyph-name="afii10096" unicode="&#x44e;" horiz-adv-x="845" 
d="M543 522q56 0 104 -20t81 -56.5t51 -85.5t18 -105t-18 -105.5t-51 -86t-80.5 -56.5t-104.5 -20q-103 0 -170.5 63t-79.5 164h-104v-214h-111v509h111v-199h107q7 46 28 85t52.5 67.5t74.5 44t92 15.5zM543 83q26 0 51.5 9t48 34t32 61.5t9.5 67.5t-8.5 63t-26 56
t-44.5 38t-62 14q-26 0 -52 -9.5t-48.5 -34t-32 -60.5t-9.5 -67t8.5 -63.5t26 -57t45 -38t62.5 -13.5z" />
    <glyph glyph-name="afii10097" unicode="&#x44f;" horiz-adv-x="587" 
d="M254 509h256v-509h-113v185h-120l-36 1l-71 -186h-114l82 210q-37 20 -57 55t-20 81q0 76 50.5 119.5t142.5 43.5zM397 273v144h-134q-90 0 -90 -72t90 -72h134z" />
    <glyph glyph-name="afii10071" unicode="&#x451;" horiz-adv-x="583" 
d="M536 283v-38h-376q2 -78 38.5 -120t104.5 -42q44 0 72 17t39 48h115q-15 -73 -73.5 -117t-153.5 -44q-58 0 -106 20t-80.5 56t-50 86t-17.5 109t17.5 108t50 84t79.5 53.5t104 18.5q41 0 82.5 -12.5t75.5 -42t56 -76t23 -108.5zM298 432q-42 0 -71.5 -17t-43 -41
t-18.5 -45h255q-4 32 -23 57.5t-46.5 35.5t-52.5 10zM446 606h-104v113h104v-113zM257 606h-105v113h105v-113z" />
    <glyph glyph-name="afii10099" unicode="&#x452;" horiz-adv-x="645" 
d="M574 -21q0 -89 -48.5 -134t-131.5 -45h-64v96h46q85 0 85 90v271q0 60 -29.5 92.5t-84.5 32.5q-44 0 -75.5 -25t-43.5 -61t-12 -65v-231h-113v571h-77v73h77v83h113v-83h191v-73h-191v-151h20q47 63 141 63q93 0 145 -55.5t52 -151.5v-297z" />
    <glyph glyph-name="afii10100" unicode="&#x453;" horiz-adv-x="505" 
d="M413 727l-113 -145h-102l89 145h126zM78 0v509h397v-96h-284v-413h-113z" />
    <glyph glyph-name="afii10101" unicode="&#x454;" horiz-adv-x="572" 
d="M420 155h108q-14 -75 -76 -121.5t-152 -46.5q-57 0 -104 19.5t-80 55t-50.5 85.5t-17.5 108t17.5 107.5t50.5 85t80 55t103 19.5q89 0 149 -44t74 -117h-107q-19 65 -115 65q-59 0 -94.5 -33.5t-41.5 -88.5h202v-92h-203q2 -27 15 -57t44 -51t78 -21q49 0 80.5 18.5
t39.5 53.5z" />
    <glyph glyph-name="afii10102" unicode="&#x455;" horiz-adv-x="531" 
d="M244 323l85 -15q47 -8 85 -27t57 -53.5t19 -78.5q0 -31 -14.5 -60.5t-42 -52.5t-69.5 -36t-93 -13q-54 0 -96 12t-71 33.5t-45.5 52.5t-20.5 69h113q3 -18 16 -35.5t40 -27.5t62 -10q48 0 73.5 14.5t30 30t4.5 21.5q0 28 -20 42.5t-66 23.5l-97 18q-136 30 -136 136
q0 49 26.5 84t72 53t109.5 18q44 0 90.5 -13.5t79.5 -49.5t39 -86h-113q-3 21 -21.5 34t-40.5 17t-39 4q-27 0 -49.5 -7.5t-31.5 -20t-9 -25.5q0 -17 13 -30.5t60 -21.5z" />
    <glyph glyph-name="afii10103" unicode="&#x456;" horiz-adv-x="272" 
d="M196 614h-120v113h120v-113zM192 509v-509h-113v509h113z" />
    <glyph glyph-name="afii10104" unicode="&#x457;" horiz-adv-x="272" 
d="M283 614h-104v113h104v-113zM94 614h-105v113h105v-113zM192 509v-509h-113v509h113z" />
    <glyph glyph-name="afii10105" unicode="&#x458;" horiz-adv-x="283" 
d="M24 -200h-64v96h46q85 0 85 90v523h113v-530q0 -89 -48.5 -134t-131.5 -45zM207 614h-120v113h120v-113z" />
    <glyph glyph-name="afii10106" unicode="&#x459;" horiz-adv-x="907" 
d="M23 0v107h18q58 0 77.5 49t19.5 147v206h403v-158h130q95 0 146.5 -46t51.5 -127q0 -83 -52 -130.5t-146 -47.5h-243v413h-186v-113q0 -83 -10.5 -134t-29.5 -86t-57 -57.5t-104 -22.5h-18zM655 96q54 0 77.5 21.5t23.5 60.5q0 40 -23 61t-78 21h-114v-164h114z" />
    <glyph glyph-name="afii10107" unicode="&#x45a;" horiz-adv-x="899" 
d="M533 509v-158h130q95 0 146.5 -46t51.5 -127q0 -83 -52 -130.5t-146 -47.5h-243v213h-229v-213h-113v509h113v-200h229v200h113zM647 96q54 0 77.5 21.5t23.5 60.5q0 40 -23 61t-78 21h-114v-164h114z" />
    <glyph glyph-name="afii10108" unicode="&#x45b;" horiz-adv-x="644" 
d="M573 0h-113v257q0 60 -29.5 92.5t-84.5 32.5q-44 0 -75.5 -25t-43.5 -61t-12 -65v-231h-113v571h-77v73h77v83h113v-83h191v-73h-191v-151h20q47 63 141 63q93 0 145 -55.5t52 -151.5v-276z" />
    <glyph glyph-name="afii10109" unicode="&#x45c;" horiz-adv-x="579" 
d="M443 727l-113 -145h-102l89 145h126zM430 0l-113 213h-126v-213h-113v509h113v-200h128l107 200h116l-130 -245l137 -264h-119z" />
    <glyph glyph-name="afii10110" unicode="&#x45e;" horiz-adv-x="566" 
d="M245 -200h-117l105 250l-216 459h120l142 -307h26l129 307h119zM362 721h89q-4 -70 -48 -109t-121 -39t-121 39t-48 109h89q2 -24 13.5 -41.5t30 -24t36.5 -6.5t36.5 6.5t30 24t13.5 41.5z" />
    <glyph glyph-name="afii10193" unicode="&#x45f;" horiz-adv-x="620" 
d="M429 509h113v-509h-178v-143h-108v143h-178v509h113v-413h238v413z" />
    <glyph glyph-name="afii10050" unicode="&#x490;" horiz-adv-x="631" 
d="M207 605v-605h-120v714h390v150h112v-259h-382z" />
    <glyph glyph-name="afii10098" unicode="&#x491;" horiz-adv-x="494" 
d="M357 637h107v-224h-273v-413h-113v509h279v128z" />
    <glyph glyph-name="uni0492" unicode="&#x492;" horiz-adv-x="662" 
d="M25 307v94h94v313h501v-109h-381v-204h225v-94h-225v-307h-120v307h-94z" />
    <glyph glyph-name="uni0493" unicode="&#x493;" horiz-adv-x="524" 
d="M21 184v85h81v240h392v-96h-279v-144h180v-85h-180v-184h-113v184h-81z" />
    <glyph glyph-name="uni049A" unicode="&#x49a;" horiz-adv-x="747" 
d="M87 0v714h120v-292h188l142 292h124l-165 -347l124 -258h101v-284h-117v175h-58l-151 313h-188v-313h-120z" />
    <glyph glyph-name="uni049B" unicode="&#x49b;" horiz-adv-x="616" 
d="M431 0l-114 213h-126v-213h-113v509h113v-200h128l107 200h116l-130 -245l90 -168h88v-239h-108v143h-51z" />
    <glyph glyph-name="uni04A2" unicode="&#x4a2;" horiz-adv-x="812" 
d="M564 714h120v-605h102v-284h-117v175h-105v312h-357v-312h-120v714h120v-290h357v290z" />
    <glyph glyph-name="uni04A3" unicode="&#x4a3;" horiz-adv-x="667" 
d="M550 509v-413h91v-239h-107v143h-97v213h-246v-213h-113v509h113v-200h246v200h113z" />
    <glyph glyph-name="uni04AE" unicode="&#x4ae;" horiz-adv-x="661" 
d="M317 409h26l171 305h131l-255 -452v-262h-120v262l-255 452h131z" />
    <glyph glyph-name="uni04AF" unicode="&#x4af;" horiz-adv-x="561" 
d="M222 -49h-45l-155 558h115l121 -451h46l117 451h115l-157 -558h-44v-150h-113v150z" />
    <glyph glyph-name="uni04B0" unicode="&#x4b0;" horiz-adv-x="661" 
d="M316 409h28l171 305h129l-217 -385h146v-94h-183v-235h-120v235h-182v94h145l-217 385h129z" />
    <glyph glyph-name="uni04B1" unicode="&#x4b1;" horiz-adv-x="565" 
d="M71 -82v82h92l-141 509h115l121 -451h46l117 451h115l-143 -509h94v-82h-152v-117h-113v117h-151z" />
    <glyph glyph-name="uni04BA" unicode="&#x4ba;" horiz-adv-x="693" 
d="M638 0h-120v204q0 48 -10.5 73t-46.5 41t-107 16q-75 0 -147 -18v-316h-120v714h120v-289q34 8 83 13t88 5q70 0 123.5 -13t84 -41.5t41.5 -67.5t11 -105v-216z" />
    <glyph glyph-name="uni04BB" unicode="&#x4bb;" horiz-adv-x="620" 
d="M549 0h-113v296q0 60 -29.5 92.5t-84.5 32.5q-44 0 -75.5 -25t-43.5 -61t-12 -65v-270h-113v727h113v-268h20q47 63 141 63q93 0 145 -55.5t52 -151.5v-315z" />
    <glyph glyph-name="uni04D8" unicode="&#x4d8;" horiz-adv-x="765" 
d="M375 95q62 0 107 25t73 73t32 118h-413q2 -45 14.5 -84.5t37.5 -69t63 -46t86 -16.5zM373 727q80 0 144 -28t107.5 -78t66 -118t22.5 -146q0 -77 -22 -145t-64.5 -118.5t-106 -78.5t-142.5 -28q-76 0 -137.5 27.5t-103.5 78.5t-63.5 123t-21.5 159l2 43h532
q-8 66 -37 110.5t-72.5 67.5t-102.5 23q-65 0 -106 -24.5t-57 -71.5h-125q10 46 34.5 84t61.5 64.5t86 41t105 14.5z" />
    <glyph glyph-name="afii10846" unicode="&#x4d9;" horiz-adv-x="583" 
d="M48 253l1 35h373q-5 50 -27 82.5t-54 44t-60 11.5q-91 0 -113 -65h-112q13 73 73 117t152 44q58 0 105.5 -20.5t80.5 -57t50.5 -86.5t17.5 -107q0 -58 -17.5 -107t-50 -84t-79.5 -54t-103 -19q-110 0 -173.5 70t-63.5 196zM286 77q60 0 96 33t40 94h-263
q1 -60 34.5 -93.5t92.5 -33.5z" />
    <glyph glyph-name="uni04E8" unicode="&#x4e8;" horiz-adv-x="785" 
d="M393 727q80 0 144 -28t107.5 -78.5t66 -118.5t22.5 -145t-22.5 -145t-66 -118.5t-107.5 -78.5t-144 -28t-144.5 28t-108 78.5t-66 118.5t-22.5 145t22.5 145t66 118.5t108 78.5t144.5 28zM393 96q62 0 106.5 24.5t73.5 72.5t36 118h-433q4 -46 19.5 -85t42.5 -68.5
t66.5 -45.5t88.5 -16zM393 618q-36 0 -71.5 -10t-64.5 -33.5t-50 -62t-29 -94.5h429q-10 67 -39 111t-72.5 66.5t-102.5 22.5z" />
    <glyph glyph-name="uni04E9" unicode="&#x4e9;" horiz-adv-x="610" 
d="M305 522q58 0 106 -19.5t82 -55.5t51.5 -85.5t17.5 -106.5t-17.5 -107t-51.5 -86t-82 -55.5t-106 -19.5t-106 19.5t-82 55.5t-51.5 86t-17.5 107t17.5 106.5t51.5 85.5t82 55.5t106 19.5zM305 83q60 0 97 36.5t44 94.5h-282q7 -58 44 -94.5t97 -36.5zM305 426
q-59 0 -96 -36t-45 -92h281q-7 55 -44.5 91.5t-95.5 36.5z" />
    <glyph glyph-name="endash" unicode="&#x2013;" horiz-adv-x="619" 
d="M572 234h-526v91h526v-91z" />
    <glyph glyph-name="emdash" unicode="&#x2014;" horiz-adv-x="878" 
d="M831 234h-785v91h785v-91z" />
    <glyph glyph-name="quoteleft" unicode="&#x2018;" horiz-adv-x="276" 
d="M142 585h58v-134h-131v151l66 112h73l-66 -112v-17z" />
    <glyph glyph-name="quoteright" unicode="&#x2019;" horiz-adv-x="276" 
d="M130 580h-58v134h131v-151l-66 -112h-73l66 112v17z" />
    <glyph glyph-name="quotesinglbase" unicode="&#x201a;" horiz-adv-x="276" 
d="M130 0h-58v134h131v-151l-66 -112h-73l66 112v17z" />
    <glyph glyph-name="quotedblleft" unicode="&#x201c;" horiz-adv-x="475" 
d="M142 585h58v-134h-131v151l66 112h73l-66 -112v-17zM341 585h58v-134h-131v151l66 112h73l-66 -112v-17z" />
    <glyph glyph-name="quotedblright" unicode="&#x201d;" horiz-adv-x="475" 
d="M130 580h-58v134h131v-151l-66 -112h-73l66 112v17zM329 580h-58v134h131v-151l-66 -112h-73l66 112v17z" />
    <glyph glyph-name="quotedblbase" unicode="&#x201e;" horiz-adv-x="475" 
d="M130 0h-58v134h131v-151l-66 -112h-73l66 112v17zM329 0h-58v134h131v-151l-66 -112h-73l66 112v17z" />
    <glyph glyph-name="dagger" unicode="&#x2020;" horiz-adv-x="549" 
d="M223 419h-181v95h181v200h104v-200h181v-95h-181v-571h-104v571z" />
    <glyph glyph-name="daggerdbl" unicode="&#x2021;" horiz-adv-x="549" 
d="M223 419h-181v95h181v200h104v-200h181v-95h-181v-273h181v-95h-181v-203h-104v203h-181v95h181v273z" />
    <glyph glyph-name="bullet" unicode="&#x2022;" horiz-adv-x="422" 
d="M64 356q0 29 14.5 63t51 59t81.5 25q29 0 63 -14.5t59 -51t25 -81.5q0 -29 -14.5 -63t-51 -59t-81.5 -25q-29 0 -63 14.5t-59 51t-25 81.5z" />
    <glyph glyph-name="ellipsis" unicode="&#x2026;" horiz-adv-x="810" 
d="M202 0h-129v134h129v-134zM469 0h-129v134h129v-134zM736 0h-129v134h129v-134z" />
    <glyph glyph-name="perthousand" unicode="&#x2030;" horiz-adv-x="1253" 
d="M274 0h-90l424 700h89zM206 714q49 0 85 -22t57.5 -64.5t21.5 -102.5q0 -40 -10.5 -74.5t-31 -60t-51.5 -40t-71 -14.5q-29 0 -58.5 9.5t-52.5 32.5t-37.5 60t-14.5 87t14.5 86.5t37.5 60t52.5 33t58.5 9.5zM206 409q20 0 40 11t31.5 39t11.5 66q0 51 -21.5 83.5
t-61.5 32.5q-19 0 -39 -11t-31.5 -39.5t-11.5 -65.5q0 -38 11.5 -66t31.5 -39t39 -11zM674 365q49 0 85 -22t57.5 -64.5t21.5 -102.5q0 -83 -43 -136t-121 -53q-40 0 -71 14.5t-51.5 40t-31 60t-10.5 74.5q0 60 21.5 102.5t57.5 64.5t85 22zM674 60q19 0 39 11t32 39t12 66
q0 37 -12 65.5t-32 39.5t-39 11q-40 0 -61.5 -32.5t-21.5 -83.5q0 -38 11.5 -66t31.5 -39t40 -11zM1046 365q49 0 85 -22t57.5 -64.5t21.5 -102.5q0 -83 -43 -136t-121 -53t-121 53t-43 136q0 60 21.5 102.5t57.5 64.5t85 22zM1046 60q20 0 40 11t31.5 39t11.5 66
q0 51 -21.5 83.5t-61.5 32.5t-61.5 -32.5t-21.5 -83.5q0 -38 11.5 -66t31.5 -39t40 -11z" />
    <glyph glyph-name="guilsinglleft" unicode="&#x2039;" horiz-adv-x="380" 
d="M158 296v-19l167 -180h-123l-147 154v70l147 155h123z" />
    <glyph glyph-name="guilsinglright" unicode="&#x203a;" horiz-adv-x="380" 
d="M222 277v19l-167 180h123l147 -155v-70l-147 -154h-123z" />
    <glyph glyph-name="fraction" unicode="&#x2044;" horiz-adv-x="237" 
d="M-51 0h-89l424 700h88z" />
    <glyph glyph-name="Euro" unicode="&#x20ac;" horiz-adv-x="688" 
d="M418 319l-21 -63h-167q11 -81 52 -123t108 -42q41 0 72 18t45 46.5t18 55.5h114q-14 -103 -80 -163.5t-170 -60.5q-40 0 -83 11.5t-86 45.5t-70 91t-36 121h-85l21 63h58q-3 34 0 67h-79l21 63h65q20 126 93 195.5t181 69.5q100 0 165 -56t80 -153h-116q-9 51 -41.5 78
t-87.5 27q-64 0 -104.5 -41.5t-53.5 -119.5h232l-21 -63h-218q-2 -34 -1 -67h195z" />
    <glyph glyph-name="uni20B4" unicode="&#x20b4;" horiz-adv-x="671" 
d="M35 257v63h601v-63h-415q-9 -24 -9 -52q0 -27 12.5 -53.5t46.5 -43.5t77 -17q55 0 92 23t48 73h117q-7 -45 -26.5 -82t-52 -63.5t-77.5 -40.5t-101 -14q-59 0 -106.5 16.5t-80 46t-49 68t-16.5 82.5q0 11 3 29t6 28h-70zM35 450h413q17 26 17 59q0 36 -19 60t-47 32.5
t-52 8.5q-105 0 -123 -85h-115q10 86 74.5 137.5t164.5 51.5q40 0 81 -10.5t78.5 -39t55 -69.5t17.5 -80q0 -35 -14 -65h70v-63h-601v63z" />
    <glyph glyph-name="uni20B8" unicode="&#x20b8;" horiz-adv-x="538" 
d="M17 507v63h504v-63h-194v-507h-116v507h-194zM17 637v63h504v-63h-504z" />
    <glyph glyph-name="uni20BD" unicode="&#x20bd;" horiz-adv-x="696" 
d="M36 271v100h95v329h273q115 0 178.5 -56.5t63.5 -156.5q0 -101 -63.5 -158.5t-178.5 -57.5h-157v-67h209v-63h-209v-141h-116v141h-95v63h95v67h-95zM387 371q143 0 143 116q0 114 -143 114h-140v-230h140z" />
    <glyph glyph-name="afii61352" unicode="&#x2116;" horiz-adv-x="1155" 
d="M565 700h110v-700h-160l-298 534h-20v-534h-110v700h160l298 -534h20v534zM1098 206h-328v71h328v-71zM933 714q49 0 85 -22t57.5 -64.5t21.5 -102.5q0 -40 -10.5 -74.5t-31 -60t-51.5 -40t-71 -14.5q-29 0 -58.5 9.5t-52.5 32.5t-37.5 60t-14.5 87t14.5 86.5t37.5 60
t52.5 33t58.5 9.5zM933 409q20 0 40 11t31.5 39t11.5 66q0 51 -21.5 83.5t-61.5 32.5q-19 0 -39 -11t-31.5 -39.5t-11.5 -65.5q0 -38 11.5 -66t31.5 -39t39 -11z" />
    <glyph glyph-name="trademark" unicode="&#x2122;" horiz-adv-x="856" 
d="M522 714l74 -161h12l72 161h115v-379h-70v294h-13l-75 -163h-71l-76 163h-12v-294h-71v379h115zM343 714v-67h-123v-312h-74v312h-123v67h320z" />
    <glyph glyph-name="uni2126" unicode="&#x2126;" horiz-adv-x="764" 
d="M588 117v-19h123v-98h-284v96q48 32 85 74t57.5 94.5t20.5 113.5q0 55 -15 100t-43 76t-66.5 47.5t-83.5 16.5t-83.5 -16.5t-66.5 -47.5t-43 -76t-15 -100q0 -61 20.5 -113.5t57.5 -94.5t85 -74v-96h-284v98h124v19q-37 31 -65.5 73t-44 91t-15.5 106q0 72 23 135t66 109
t105 71t136 25q75 0 137 -25t105 -71t65.5 -108.5t22.5 -135.5q0 -58 -15.5 -107t-43.5 -90.5t-65 -72.5z" />
    <glyph glyph-name="arrowleft" unicode="&#x2190;" horiz-adv-x="814" 
d="M299 509h135l-185 -186v-20h509v-98h-509v-20l185 -185h-135l-255 254z" />
    <glyph glyph-name="arrowup" unicode="&#x2191;" horiz-adv-x="675" 
d="M83 324v134l255 256l254 -255v-135l-185 185h-20v-509h-98v509h-20z" />
    <glyph glyph-name="arrowright" unicode="&#x2192;" horiz-adv-x="814" 
d="M380 509h135l255 -255l-255 -254h-135l185 185v20h-509v98h509v20z" />
    <glyph glyph-name="arrowdown" unicode="&#x2193;" horiz-adv-x="675" 
d="M592 390v-134l-255 -256l-254 255v135l185 -185h20v509h98v-509h20z" />
    <glyph glyph-name="uni2196" unicode="&#x2196;" horiz-adv-x="706" 
d="M180 258l-97 94v362h360l96 -96h-262l-14 -15l360 -359l-69 -70l-360 360l-14 -14v-262z" />
    <glyph glyph-name="uni2197" unicode="&#x2197;" horiz-adv-x="706" 
d="M623 352l-97 -94v262l-14 14l-360 -360l-69 70l360 359l-14 15h-262l96 96h360v-362z" />
    <glyph glyph-name="uni2198" unicode="&#x2198;" horiz-adv-x="706" 
d="M83 362l97 94v-262l14 -14l360 360l69 -70l-360 -359l14 -15h262l-96 -96h-360v362z" />
    <glyph glyph-name="uni2199" unicode="&#x2199;" horiz-adv-x="706" 
d="M526 456l97 -94v-362h-360l-96 96h262l14 15l-360 359l69 70l360 -360l14 14v262z" />
    <glyph glyph-name="partialdiff" unicode="&#x2202;" horiz-adv-x="604" 
d="M302 83q35 0 68.5 15t53 53.5t19.5 88.5q0 30 -7 56t-20.5 47t-41.5 38t-72 17t-78 -20.5t-49 -58.5t-15 -79q0 -30 10.5 -67t44.5 -63.5t87 -26.5zM153 727h138q89 -62 149 -139.5t88 -159.5t28 -166q0 -59 -16.5 -109.5t-48.5 -87.5t-81 -57.5t-110 -20.5
q-57 0 -104 19.5t-80 54t-50.5 81.5t-17.5 99t17 98.5t47 80t72 52t89 18.5q37 0 69 -10t50 -27h20q-57 133 -259 274z" />
    <glyph glyph-name="uni2206" unicode="&#x2206;" horiz-adv-x="646" 
d="M384 714l221 -597v-117h-565v117l222 597h122zM504 97v20l-171 468h-20l-171 -468v-20h362z" />
    <glyph glyph-name="product" unicode="&#x220f;" horiz-adv-x="610" 
d="M487 -200h-101v820h-162v-820h-101v820h-96v94h556v-94h-96v-820z" />
    <glyph glyph-name="summation" unicode="&#x2211;" horiz-adv-x="562" 
d="M174 104h362v-104h-500v124l188 223v20l-180 223v124h474v-104h-337v-20l168 -213v-41l-175 -212v-20z" />
    <glyph glyph-name="minus" unicode="&#x2212;" horiz-adv-x="678" 
d="M595 239h-512v96h512v-96z" />
    <glyph glyph-name="uni2215" unicode="&#x2215;" horiz-adv-x="512" 
d="M89 0h-89l424 700h88z" />
    <glyph glyph-name="radical" unicode="&#x221a;" horiz-adv-x="655" 
d="M33 509h98l117 -391h20l186 596h174v-87h-104l-199 -627h-136z" />
    <glyph glyph-name="infinity" unicode="&#x221e;" horiz-adv-x="918" 
d="M449 324h20q64 70 110.5 95t91.5 25q72 0 118 -44.5t46 -117.5t-46 -117.5t-118 -44.5q-45 0 -91.5 25t-110.5 95h-20q-64 -70 -110.5 -95t-91.5 -25q-72 0 -118 44.5t-46 117.5t46 117.5t118 44.5q45 0 91.5 -25t110.5 -95zM418 282q-54 65 -93 88t-75 23q-34 0 -62 -17
t-39 -43.5t-11 -50.5t11 -50.5t39 -43.5t62 -17q36 0 75 23t93 88zM500 282q54 -65 93 -88t75 -23q34 0 62 17t39 43.5t11 50.5t-11 50.5t-39 43.5t-62 17q-36 0 -75 -23t-93 -88z" />
    <glyph glyph-name="integral" unicode="&#x222b;" horiz-adv-x="497" 
d="M441 727h44v-96h-41q-49 0 -75 -28.5t-35 -82.5l-93 -526q-18 -103 -71.5 -148.5t-146.5 -45.5h-44v96h40q24 0 48.5 9.5t40 35.5t22.5 66l92 526q18 103 72 148.5t147 45.5z" />
    <glyph glyph-name="approxequal" unicode="&#x2248;" horiz-adv-x="671" 
d="M506 473h82q0 -82 -36.5 -122.5t-100.5 -40.5q-21 0 -41 6t-39.5 16.5t-69.5 43.5t-82 33q-54 0 -54 -75h-82q0 82 36 122.5t100 40.5q17 0 37 -5t42 -16.5t72 -44.5t81 -33q55 0 55 75zM506 255h82q0 -82 -36.5 -122.5t-100.5 -40.5q-21 0 -41 6t-39.5 16.5t-69.5 43.5
t-82 33q-54 0 -54 -75h-82q0 82 36 122.5t100 40.5q17 0 37 -5t42 -16.5t72 -44.5t81 -33q55 0 55 75z" />
    <glyph glyph-name="notequal" unicode="&#x2260;" horiz-adv-x="676" 
d="M593 233v-97h-301l-77 -120h-102l77 120h-107v97h169l69 107h-238v97h301l77 120h102l-77 -120h107v-97h-170l-69 -107h239z" />
    <glyph glyph-name="lessequal" unicode="&#x2264;" horiz-adv-x="677" 
d="M83 0v96h511v-96h-511zM594 135l-511 158v106l511 158v-99l-355 -102v-20l355 -102v-99z" />
    <glyph glyph-name="greaterequal" unicode="&#x2265;" horiz-adv-x="677" 
d="M594 293l-511 -158v99l355 102v20l-355 102v99l511 -158v-106zM594 96v-96h-511v96h511z" />
    <glyph glyph-name="lozenge" unicode="&#x25ca;" horiz-adv-x="554" 
d="M328 714l171 -357l-171 -357h-101l-172 357l172 357h101zM287 128l103 229l-103 229h-20l-103 -229l103 -229h20z" />
    <glyph glyph-name="uniF6C3" unicode="&#xf6c3;" horiz-adv-x="201" 
d="M110 -226h-74l62 64v17h-52v89h125v-106z" />
    <glyph glyph-name="zero.frac" horiz-adv-x="384" 
d="M347 523q0 -61 -17.5 -104t-52 -68t-85.5 -25q-70 0 -112.5 49.5t-42.5 147.5q0 62 17.5 105.5t51.5 68t86 24.5q51 0 85.5 -24.5t52 -68t17.5 -105.5zM192 396q29 0 47.5 21.5t24 51t5.5 54.5q0 56 -19 92t-58 36q-40 0 -58.5 -36t-18.5 -92t18.5 -91.5t58.5 -35.5z" />
    <glyph glyph-name="one.frac" horiz-adv-x="333" 
d="M208 401h88v-68h-259v68h92v228h-14l-78 -45v75l95 55h76v-313z" />
    <glyph glyph-name="two.frac" horiz-adv-x="366" 
d="M159 401h170v-68h-292v81l114 78q50 34 67.5 58.5t17.5 45.5q0 27 -16 41t-43 14q-29 0 -46 -15.5t-18 -44.5h-78q1 40 18 69t49.5 45t76.5 16q58 0 97 -31.5t39 -90.5q0 -74 -75 -126l-81 -58v-14z" />
    <glyph glyph-name="three.frac" horiz-adv-x="369" 
d="M237 568q39 -6 66.5 -35.5t27.5 -76.5q0 -22 -7.5 -44.5t-27 -43.5t-51.5 -31.5t-62 -10.5q-63 0 -105.5 35.5t-44.5 93.5h77q3 -28 23 -43.5t50 -15.5q31 0 50.5 16.5t19.5 44.5q0 29 -19 46t-50 17q-19 0 -37 -4v63l68 53v14h-155v68h254v-77l-77 -56v-13z" />
    <glyph glyph-name="four.frac" horiz-adv-x="382" 
d="M296 482h49v-68h-49v-81h-77v81h-186v76l169 224h94v-232zM112 482h109v142h-14l-95 -128v-14z" />
    <glyph glyph-name="five.frac" horiz-adv-x="368" 
d="M201 595q56 0 93 -37.5t37 -92.5q0 -62 -41 -100.5t-104 -38.5q-42 0 -74.5 15t-52 44t-22.5 69h78q4 -28 22 -43t47 -15q31 0 49.5 18.5t18.5 49.5q0 30 -18 48.5t-48 18.5q-20 0 -38.5 -8t-29.5 -22h-72l20 213h242v-68h-182l-6 -73h14q11 9 29 15.5t38 6.5z" />
    <glyph glyph-name="six.frac" horiz-adv-x="373" 
d="M205 588q25 0 56 -12t53 -43t22 -71q0 -27 -13 -59t-47.5 -54.5t-82.5 -22.5q-53 0 -87 22t-51.5 63t-17.5 104q0 67 20 113t54.5 69.5t84.5 23.5q37 0 67.5 -17.5t44.5 -42t18 -45.5h-77q-11 40 -55 40q-33 0 -55.5 -25.5t-26.5 -71.5h14q29 29 79 29zM191 392
q29 0 48 18t19 50q0 31 -19.5 48t-48.5 17q-30 0 -49 -17t-19 -48q0 -32 19.5 -50t49.5 -18z" />
    <glyph glyph-name="seven.frac" horiz-adv-x="343" 
d="M37 714h269v-75l-158 -306h-82l156 299v14h-185v68z" />
    <glyph glyph-name="eight.frac" horiz-adv-x="377" 
d="M189 659q-27 0 -44.5 -14t-17.5 -35t17.5 -35t44.5 -14q26 0 43.5 14t17.5 35t-17.5 35t-43.5 14zM189 391q33 0 53 16.5t20 40.5q0 23 -20 39t-53 16q-34 0 -54 -16t-20 -39q0 -24 20 -40.5t54 -16.5zM95 542q-17 10 -30 29t-13 46q0 21 12.5 45.5t46 41.5t78.5 17
q29 0 61.5 -10t53.5 -36t21 -58q0 -20 -10 -41t-33 -34v-13q24 -11 41 -33.5t17 -56.5q0 -22 -13.5 -48.5t-50 -45.5t-88.5 -19q-35 0 -69.5 11t-58 39.5t-23.5 62.5q0 26 13.5 51t44.5 39v13z" />
    <glyph glyph-name="nine.frac" horiz-adv-x="373" 
d="M168 459q-25 0 -56 12t-53 43t-22 71q0 27 13 59t47.5 54.5t82.5 22.5q53 0 87 -22t51.5 -63t17.5 -104q0 -67 -20 -113t-54.5 -69.5t-84.5 -23.5q-37 0 -67.5 17.5t-44.5 42t-18 45.5h77q11 -40 55 -40q33 0 55.5 25.5t26.5 71.5h-14q-29 -29 -79 -29zM182 655
q-29 0 -48 -18t-19 -50q0 -31 19.5 -48t48.5 -17q30 0 49 17t19 48q0 32 -19.5 50t-49.5 18z" />
    <glyph glyph-name="zero.dnom" horiz-adv-x="384" 
d="M347 190q0 -61 -17.5 -104t-52 -68t-85.5 -25q-70 0 -112.5 49.5t-42.5 147.5q0 62 17.5 105.5t51.5 68t86 24.5q51 0 85.5 -24.5t52 -68t17.5 -105.5zM192 63q29 0 47.5 21.5t24 51t5.5 54.5q0 56 -19 92t-58 36q-40 0 -58.5 -36t-18.5 -92t18.5 -91.5t58.5 -35.5z" />
    <glyph glyph-name="one.dnom" horiz-adv-x="333" 
d="M208 68h88v-68h-259v68h92v228h-14l-78 -45v75l95 55h76v-313z" />
    <glyph glyph-name="two.dnom" horiz-adv-x="366" 
d="M159 68h170v-68h-292v81l114 78q50 34 67.5 58.5t17.5 45.5q0 27 -16 41t-43 14q-29 0 -46 -15.5t-18 -44.5h-78q1 40 18 69t49.5 45t76.5 16q58 0 97 -31.5t39 -90.5q0 -74 -75 -126l-81 -58v-14z" />
    <glyph glyph-name="three.dnom" horiz-adv-x="369" 
d="M237 235q39 -6 66.5 -35.5t27.5 -76.5q0 -22 -7.5 -44.5t-27 -43.5t-51.5 -31.5t-62 -10.5q-63 0 -105.5 35.5t-44.5 93.5h77q3 -28 23 -43.5t50 -15.5q31 0 50.5 16.5t19.5 44.5q0 29 -19 46t-50 17q-19 0 -37 -4v63l68 53v14h-155v68h254v-77l-77 -56v-13z" />
    <glyph glyph-name="four.dnom" horiz-adv-x="382" 
d="M296 149h49v-68h-49v-81h-77v81h-186v76l169 224h94v-232zM112 149h109v142h-14l-95 -128v-14z" />
    <glyph glyph-name="five.dnom" horiz-adv-x="368" 
d="M201 262q56 0 93 -37.5t37 -92.5q0 -62 -41 -100.5t-104 -38.5q-42 0 -74.5 15t-52 44t-22.5 69h78q4 -28 22 -43t47 -15q31 0 49.5 18.5t18.5 49.5q0 30 -18 48.5t-48 18.5q-20 0 -38.5 -8t-29.5 -22h-72l20 213h242v-68h-182l-6 -73h14q11 9 29 15.5t38 6.5z" />
    <glyph glyph-name="six.dnom" horiz-adv-x="373" 
d="M205 255q25 0 56 -12t53 -43t22 -71q0 -27 -13 -59t-47.5 -54.5t-82.5 -22.5q-53 0 -87 22t-51.5 63t-17.5 104q0 67 20 113t54.5 69.5t84.5 23.5q37 0 67.5 -17.5t44.5 -42t18 -45.5h-77q-11 40 -55 40q-33 0 -55.5 -25.5t-26.5 -71.5h14q29 29 79 29zM191 59
q29 0 48 18t19 50q0 31 -19.5 48t-48.5 17q-30 0 -49 -17t-19 -48q0 -32 19.5 -50t49.5 -18z" />
    <glyph glyph-name="seven.dnom" horiz-adv-x="343" 
d="M37 381h269v-75l-158 -306h-82l156 299v14h-185v68z" />
    <glyph glyph-name="eight.dnom" horiz-adv-x="377" 
d="M189 326q-27 0 -44.5 -14t-17.5 -35t17.5 -35t44.5 -14q26 0 43.5 14t17.5 35t-17.5 35t-43.5 14zM189 58q33 0 53 16.5t20 40.5q0 23 -20 39t-53 16q-34 0 -54 -16t-20 -39q0 -24 20 -40.5t54 -16.5zM95 209q-17 10 -30 29t-13 46q0 21 12.5 45.5t46 41.5t78.5 17
q29 0 61.5 -10t53.5 -36t21 -58q0 -20 -10 -41t-33 -34v-13q24 -11 41 -33.5t17 -56.5q0 -22 -13.5 -48.5t-50 -45.5t-88.5 -19q-35 0 -69.5 11t-58 39.5t-23.5 62.5q0 26 13.5 51t44.5 39v13z" />
    <glyph glyph-name="nine.dnom" horiz-adv-x="373" 
d="M168 126q-25 0 -56 12t-53 43t-22 71q0 27 13 59t47.5 54.5t82.5 22.5q53 0 87 -22t51.5 -63t17.5 -104q0 -67 -20 -113t-54.5 -69.5t-84.5 -23.5q-37 0 -67.5 17.5t-44.5 42t-18 45.5h77q11 -40 55 -40q33 0 55.5 25.5t26.5 71.5h-14q-29 -29 -79 -29zM182 322
q-29 0 -48 -18t-19 -50q0 -31 19.5 -48t48.5 -17q30 0 49 17t19 48q0 32 -19.5 50t-49.5 18z" />
    <glyph glyph-name="zero.oldstyle" horiz-adv-x="616" 
d="M309 522q55 0 103.5 -19t84 -54t55 -85t19.5 -109t-19.5 -109t-55 -85.5t-84 -54.5t-103.5 -19t-104 19t-84.5 54.5t-55 85.5t-19.5 109t19.5 109t55 85t84.5 54t104 19zM309 87q71 0 109.5 46t38.5 122t-38.5 121.5t-109.5 45.5q-45 0 -77.5 -18.5t-52.5 -55.5t-20 -93
q0 -46 17 -86.5t52.5 -61t80.5 -20.5z" />
    <glyph glyph-name="one.oldstyle" horiz-adv-x="486" 
d="M60 0v100h142v295h-20l-122 -77v114l122 77h134v-409h129v-100h-385z" />
    <glyph glyph-name="two.oldstyle" horiz-adv-x="552" 
d="M508 100v-100h-463v117l185 89q59 28 87 47t41.5 39.5t13.5 47.5q0 37 -28 59.5t-76 22.5q-55 0 -84.5 -27t-28.5 -79h-114q0 43 15 80.5t44.5 65.5t73 44t96.5 16q39 0 77.5 -9.5t69 -32t49.5 -56t19 -75.5q0 -27 -10.5 -59t-37.5 -60t-64 -47l-124 -64v-19h259z" />
    <glyph glyph-name="three.oldstyle" horiz-adv-x="584" 
d="M73 509h430v-118l-154 -131v-19q39 -2 73.5 -16.5t60 -41t40 -64.5t14.5 -84q0 -53 -18.5 -97.5t-53 -75t-81.5 -46.5t-102 -16t-101.5 16.5t-80.5 46t-53 69.5t-21 85h114q4 -39 28 -67.5t55.5 -39t58.5 -10.5q63 0 102.5 37t39.5 98t-38 97t-104 36q-36 0 -62 -6v100
l152 129v20h-299v98z" />
    <glyph glyph-name="four.oldstyle" horiz-adv-x="623" 
d="M489 100h92v-100h-92v-191h-112v191h-340v122l310 387h142v-409zM148 100h233v289h-20l-213 -269v-20z" />
    <glyph glyph-name="five.oldstyle" horiz-adv-x="610" 
d="M333 285q36 0 75 -11.5t76.5 -43.5t56 -80.5t18.5 -97.5q0 -56 -18 -103t-51.5 -80t-80 -51t-99.5 -18q-72 0 -126 25t-88.5 73.5t-39.5 118.5h113q7 -55 43.5 -86t93.5 -31q62 0 101 41t39 107t-38.5 105.5t-99.5 39.5q-84 0 -125 -60h-111l31 376h416v-98h-326
l-13 -171h19q52 45 134 45z" />
    <glyph glyph-name="six.oldstyle" horiz-adv-x="607" 
d="M340 460q47 0 88.5 -16.5t72 -47t47.5 -73.5t17 -92q0 -50 -17 -94.5t-49 -78t-78.5 -52.5t-101.5 -19q-59 0 -107.5 19t-84 60.5t-55 109t-19.5 158.5q0 81 16.5 151t50 121t86 79.5t120.5 28.5q89 0 149 -50t72 -126h-113q-11 37 -38.5 58t-71.5 21q-35 0 -60.5 -13
t-45.5 -34.5t-36 -64.5t-19 -107h20q14 18 39.5 33t57.5 22t60 7zM317 85q36 0 65.5 14.5t49.5 46t20 81.5t-22 83t-54.5 44.5t-59.5 11.5t-59.5 -12t-54.5 -45t-22 -81q0 -33 10.5 -60t29.5 -46t45 -28t52 -9z" />
    <glyph glyph-name="seven.oldstyle" horiz-adv-x="561" 
d="M510 389l-291 -580h-119l291 581v19h-342v100h461v-120z" />
    <glyph glyph-name="eight.oldstyle" horiz-adv-x="620" 
d="M463 360q28 -10 55 -37t40 -61t13 -68q0 -42 -17.5 -80t-51.5 -66.5t-83 -44.5t-108 -16t-108.5 16t-83.5 44.5t-51.5 66.5t-17.5 80q0 47 20.5 85t45.5 56.5t42 24.5v20q-22 11 -44 35t-32 54.5t-10 56.5q0 82 65.5 135t173.5 53q107 0 172.5 -53t65.5 -135
q0 -26 -10 -56.5t-32 -54.5t-44 -35v-20zM311 622q-54 0 -91.5 -29.5t-37.5 -75.5q0 -22 12.5 -46.5t45 -41.5t71.5 -17q25 0 55 9.5t51.5 35.5t21.5 60q0 46 -37 75.5t-91 29.5zM311 85q34 0 68.5 11t56.5 39.5t22 67.5q0 32 -15.5 58t-48 43.5t-83.5 17.5q-34 0 -68.5 -11
t-57 -40t-22.5 -68q0 -53 39.5 -85.5t108.5 -32.5z" />
    <glyph glyph-name="nine.oldstyle" horiz-adv-x="607" 
d="M265 49q-46 0 -87.5 16.5t-72 47t-47.5 73.5t-17 92q0 50 17 94.5t49 78t78 52.5t101 19q59 0 107.5 -19t84 -60.5t55 -109t19.5 -158.5q0 -81 -16.5 -150t-50 -119.5t-85.5 -78t-120 -27.5q-33 0 -68.5 9t-67 31t-55 56.5t-30.5 80.5h113q10 -37 37.5 -58t71.5 -21
q72 0 115 55t47 158h-20q-21 -25 -61.5 -43.5t-96.5 -18.5zM289 424q-37 0 -69 -16t-49 -50t-17 -76q0 -50 22 -83t54.5 -44.5t59.5 -11.5t59 12t54 45t22 81q0 24 -7 49.5t-26 49t-48 34t-55 10.5z" />
    <glyph glyph-name="zero.tnum" 
d="M314 714q57 0 106 -21.5t85 -66.5t56 -115t20 -161t-20 -160.5t-56 -114.5t-85 -66.5t-106 -21.5t-105.5 21.5t-84 66.5t-55.5 114.5t-20 160.5t20 161t55.5 115t84 66.5t105.5 21.5zM166 350q0 -109 27 -171l198 406q-14 11 -34.5 18t-42.5 7q-49 0 -81.5 -30.5
t-49.5 -87.5t-17 -142zM314 91q50 0 82.5 30.5t50 87t17.5 141.5q0 102 -28 170l-198 -405q34 -24 76 -24z" />
    <glyph glyph-name="one.tnum" 
d="M63 0v102h216v479h-20l-148 -93v117l149 95h135v-598h175v-102h-507z" />
    <glyph glyph-name="two.tnum" 
d="M62 498q6 104 72 160t172 56q24 0 60.5 -5.5t74 -26.5t59.5 -51t32 -64t10 -72q0 -49 -23 -97.5t-56 -84.5t-62 -59l-162 -132v-20h325v-102h-499v121l250 199q110 87 110 174q0 55 -33.5 85.5t-88.5 30.5q-52 0 -85.5 -28.5t-39.5 -83.5h-116z" />
    <glyph glyph-name="three.tnum" 
d="M97 700h430v-119l-152 -131v-21q50 -3 94.5 -27.5t68.5 -72.5t24 -107q0 -39 -12.5 -80.5t-47.5 -79.5t-88.5 -56.5t-108.5 -18.5q-40 0 -83.5 11t-80.5 37.5t-63 69.5t-29 100h117q5 -52 44 -83t95 -31q64 0 102.5 35.5t38.5 95.5q0 61 -37 96.5t-103 35.5q-37 0 -63 -6
v102l151 131v20h-297v99z" />
    <glyph glyph-name="four.tnum" 
d="M497 259h91v-102h-91v-157h-113v157h-340v127l307 416h146v-441zM159 259h228v309h-20l-208 -289v-20z" />
    <glyph glyph-name="five.tnum" 
d="M344 474q49 0 91 -17.5t72.5 -49t47 -75t16.5 -93.5q0 -55 -18.5 -102t-52 -80.5t-80 -51.5t-99.5 -18q-57 0 -104 16.5t-79.5 46t-50.5 69.5t-21 86h116q7 -55 42.5 -84.5t92.5 -29.5q62 0 99.5 39.5t37.5 105.5q0 65 -37 104.5t-98 39.5q-83 0 -125 -59h-112l31 379
h417v-99h-325l-13 -173h20q33 27 65.5 36.5t66.5 9.5z" />
    <glyph glyph-name="six.tnum" 
d="M347 461q46 0 88 -17t73 -47.5t48.5 -73.5t17.5 -92t-17 -94t-49.5 -78.5t-79 -52.5t-102.5 -19q-90 0 -149 41t-89 116.5t-30 189.5q0 81 16.5 151t50.5 121t87 79.5t121 28.5q56 0 106 -22.5t79.5 -65t36.5 -88.5h-115q-22 77 -109 77q-71 0 -114 -57t-47 -160h20
q15 17 40.5 33t57 23t59.5 7zM324 87q27 0 58.5 12t53 45t21.5 83q0 49 -21.5 81.5t-53.5 44t-59 11.5t-59 -11.5t-53.5 -44t-21.5 -80.5q0 -49 22 -82.5t54 -46t59 -12.5z" />
    <glyph glyph-name="seven.tnum" 
d="M540 580l-289 -580h-124l292 579v20h-341v101h462v-120z" />
    <glyph glyph-name="eight.tnum" 
d="M469 360q28 -10 55 -37t40 -61t13 -68q0 -42 -17.5 -80t-51.5 -66.5t-83.5 -44.5t-108.5 -16q-60 0 -109.5 16t-83 44.5t-51.5 66.5t-18 80q0 34 13 68t40 61t55 37v20q-22 11 -44 34.5t-32 54t-10 57.5q0 82 66 135t174 53q107 0 173 -53t66 -135q0 -26 -10 -56.5
t-32 -54.5t-44 -35v-20zM316 620q-25 0 -55 -9.5t-51 -34.5t-21 -59q0 -46 36.5 -75t90.5 -29t90 29t36 75q0 34 -20.5 59t-50.5 34.5t-55 9.5zM316 87q25 0 51 6t49 21.5t34.5 41t11.5 49.5t-10 47t-28.5 38.5t-46 24t-61.5 8.5q-16 0 -36 -3t-39 -10.5t-35.5 -22t-26 -37
t-9.5 -45.5q0 -10 4 -30t16 -36t27.5 -26.5t40 -18t58.5 -7.5z" />
    <glyph glyph-name="nine.tnum" 
d="M283 240q-46 0 -88 17t-73 47.5t-48.5 73.5t-17.5 92t17 94t49.5 78.5t79 52.5t102.5 19q90 0 149 -41t89 -116.5t30 -189.5q0 -81 -16.5 -151t-50.5 -121t-87 -79.5t-121 -28.5q-56 0 -106 22.5t-79.5 65t-36.5 88.5h115q22 -77 109 -77q71 0 114 57t47 160h-20
q-15 -17 -40.5 -33t-57 -23t-59.5 -7zM306 614q-27 0 -58.5 -12t-53 -45t-21.5 -83q0 -49 21.5 -81.5t53.5 -44t59 -11.5t59 11.5t53.5 44t21.5 80.5q0 49 -22 82.5t-54 46t-59 12.5z" />
    <glyph glyph-name="dollar.aalt" 
d="M282 798h67v-85q86 -10 143 -63.5t67 -133.5h-114q-20 81 -96 95v-201l50 -12q96 -22 137.5 -72.5t41.5 -125.5q0 -41 -14.5 -78t-43 -66t-72 -47t-99.5 -22v-85h-67v87q-101 10 -160 67t-71 151h115q9 -49 39.5 -78.5t76.5 -38.5v229l-45 10q-163 34 -163 183
q0 80 55 137t153 65v84zM349 305v-217q51 5 82.5 33t31.5 74q0 44 -23 69t-68 36zM282 422v191q-42 -5 -67.5 -29.5t-25.5 -66.5q0 -39 22.5 -62t70.5 -33z" />
    <glyph glyph-name="Euro.aalt" 
d="M380 319l-21 -63h-155q11 -81 49.5 -123t102.5 -42q26 0 54.5 11t48.5 40t26 69h114q-16 -104 -79 -164t-164 -60q-108 0 -178.5 70t-88.5 199h-74l21 63h46q-2 33 1 67h-68l21 63h53q7 46 24.5 93t53.5 89.5t86.5 62.5t101.5 20q99 0 159.5 -55.5t78.5 -153.5h-116
q-8 49 -38.5 77t-82.5 28q-61 0 -100 -41.5t-51 -119.5h220l-21 -63h-206q-3 -34 0 -67h182z" />
    <glyph glyph-name="sterling.aalt" 
d="M219 102h369v-102h-543v102h18q65 0 65 89v88h-83v93h83v119q0 50 14.5 91.5t42.5 70.5t69 45t92 16q49 0 88.5 -15t67 -42.5t42.5 -66t16 -85.5h-116q-3 105 -97 105q-50 0 -76 -31t-26 -84v-123h211v-93h-211v-80q0 -26 -5 -44t-21 -33v-20z" />
    <glyph glyph-name="yen.aalt" 
d="M98 310v63h88l-157 327h118l153 -327h28l153 327h119l-157 -327h87v-63h-117l-33 -67h150v-63h-158v-180h-116v180h-158v63h151l-33 67h-118z" />
    <glyph glyph-name="uni20BD.aalt" 
d="M118 700h243q115 0 178.5 -56.5t63.5 -156.5q0 -101 -63.5 -158.5t-178.5 -57.5h-127v-67h198v-63h-198v-141h-116v141h-82v63h82v67h-82v100h82v329zM346 371q75 0 108 30t33 87q0 55 -33 84t-108 29h-112v-230h112z" />
    <glyph glyph-name="uni20B4.aalt" 
d="M38 320h554v-63h-384q-9 -21 -9 -52q0 -53 35 -83.5t89 -30.5q107 0 130 96h118q-7 -45 -27 -82t-51 -63.5t-74.5 -40.5t-96.5 -14q-42 0 -85 11t-81 41t-55.5 73t-17.5 85q0 33 9 60h-54v63zM38 450h378q18 25 18 60q0 45 -29 72.5t-76 27.5q-95 0 -115 -85h-115
q5 41 21.5 72t40.5 55t67 43t101 19q51 0 92.5 -16t70 -43.5t43 -64t14.5 -76.5q0 -35 -13 -64h56v-63h-554v63z" />
    <glyph glyph-name="uni20B8.aalt" 
d="M63 507v63h504v-63h-195v-507h-115v507h-194zM63 637v63h504v-63h-504z" />
    <glyph glyph-name="cent.aalt" horiz-adv-x="578" 
d="M267 -80v70q-100 12 -157 84t-57 181q0 108 57 180t157 84v70h68v-69q39 -4 72 -17.5t54.5 -32.5t39 -46.5t24.5 -69.5h-112q-9 27 -28.5 45t-49.5 24v-338q33 6 54 26.5t28 51.5h112q-7 -44 -30.5 -80.5t-64 -62t-99.5 -31.5v-69h-68zM166 256q0 -46 13.5 -83.5t37 -58
t50.5 -27.5v334q-51 -13 -76 -58t-25 -107z" />
    <glyph glyph-name="circumflex.aalt" horiz-adv-x="399" 
d="M252 896l111 -129h-100l-55 60h-20l-54 -60h-98l111 129h105z" />
    <glyph glyph-name="dieresis.aalt" horiz-adv-x="370" 
d="M332 790h-104v106h104v-106zM143 790h-105v106h105v-106z" />
    <glyph glyph-name="acute.aalt" horiz-adv-x="297" 
d="M258 896l-113 -129h-105l88 129h130z" />
    <glyph glyph-name="grave.aalt" horiz-adv-x="297" 
d="M152 767l-112 129h129l89 -129h-106z" />
    <glyph glyph-name="ring.aalt" horiz-adv-x="307" 
d="M154 968q22 0 48.5 -11t45.5 -39t19 -62q0 -21 -11 -47t-39.5 -45t-62.5 -19q-33 0 -62 19t-40.5 45t-11.5 47q0 22 11.5 48t40 45t62.5 19zM154 804q22 0 37.5 15.5t15.5 36.5q0 22 -16 38t-37 16t-37 -16t-16 -38q0 -21 15.5 -36.5t37.5 -15.5z" />
    <glyph glyph-name="caron.aalt" horiz-adv-x="399" 
d="M147 767l-111 129h100l54 -60h20l55 60h98l-111 -129h-105z" />
    <glyph glyph-name="dotaccent.aalt" horiz-adv-x="196" 
d="M158 790h-120v106h120v-106z" />
    <glyph glyph-name="breve.aalt" horiz-adv-x="363" 
d="M247 896h78q-1 -61 -39 -95t-105 -34q-66 0 -104 34t-39 95h79q0 -29 16.5 -44t47.5 -15q64 0 66 59z" />
    <glyph glyph-name="hungarumlaut.aalt" horiz-adv-x="442" 
d="M231 896l-100 -129h-92l77 129h115zM403 896l-101 -129h-91l78 129h114z" />
    <glyph glyph-name="tilde.aalt" horiz-adv-x="411" 
d="M308 896h66q0 -63 -26.5 -96t-75.5 -33q-20 0 -39 7t-49.5 26t-47.5 19q-14 0 -24 -9.5t-10 -42.5h-65q0 63 26.5 96t74.5 33q21 0 39.5 -7t49.5 -25.5t48 -18.5q14 0 23.5 9t9.5 42z" />
    <glyph glyph-name="macron.aalt" horiz-adv-x="372" 
d="M332 801h-292v75h292v-75z" />
    <glyph glyph-name="glyph507" horiz-adv-x="438" 
d="M299 721h89q-4 -70 -48 -109t-121 -39t-121 39t-48 109h89q2 -24 13.5 -41.5t30 -24t36.5 -6.5t36.5 6.5t30 24t13.5 41.5z" />
    <glyph glyph-name="glyph508" horiz-adv-x="443" 
d="M312 904h91q-4 -72 -53 -113t-129 -41q-79 0 -128 41t-53 113h92q1 -24 15 -42.5t35 -25.5t39 -7q39 0 63.5 20.5t27.5 54.5z" />
    <glyph glyph-name="hyphen.case" horiz-adv-x="380" 
d="M334 315h-288v99h288v-99z" />
    <glyph glyph-name="endash.case" horiz-adv-x="619" 
d="M572 319h-526v91h526v-91z" />
    <glyph glyph-name="emdash.case" horiz-adv-x="878" 
d="M831 319h-785v91h785v-91z" />
    <glyph glyph-name="emdash.case.ss02" horiz-adv-x="1444" 
d="M1398 319h-1352v91h1352v-91z" />
    <glyph glyph-name="bracketleft.case" horiz-adv-x="353" 
d="M297 -93h-224v900h224v-86h-123v-728h123v-86z" />
    <glyph glyph-name="bracketright.case" horiz-adv-x="353" 
d="M280 -93h-224v86h123v728h-123v86h224v-900z" />
    <glyph glyph-name="braceleft.case" horiz-adv-x="409" 
d="M188 367v-20q27 -9 44 -36.5t17 -72.5v-143q0 -102 89 -102h34v-86h-48q-80 0 -128 46t-48 125v139q0 48 -15 71.5t-52 23.5h-19v90h19q37 0 52 23.5t15 71.5v139q0 79 48 125t128 46h48v-86h-34q-89 0 -89 -102v-143q0 -45 -17 -72.5t-44 -36.5z" />
    <glyph glyph-name="braceright.case" horiz-adv-x="409" 
d="M221 347v20q-27 9 -44 36.5t-17 72.5v143q0 102 -89 102h-34v86h48q80 0 128 -46t48 -125v-139q0 -48 15 -71.5t52 -23.5h19v-90h-19q-37 0 -52 -23.5t-15 -71.5v-139q0 -79 -48 -125t-128 -46h-48v86h34q89 0 89 102v143q0 45 17 72.5t44 36.5z" />
    <glyph glyph-name="parenleft.case" horiz-adv-x="310" 
d="M148 360q0 -122 39 -233t120 -220h-104q-80 97 -119 212t-39 241q0 72 13.5 145.5t47.5 151.5t92 150h104q-78 -108 -116 -217.5t-38 -229.5z" />
    <glyph glyph-name="parenright.case" horiz-adv-x="310" 
d="M162 360q0 120 -38 229.5t-116 217.5h104q49 -61 82.5 -130t52 -148.5t18.5 -168.5q0 -126 -39 -241t-119 -212h-104q81 109 120 220t39 233z" />
    <glyph glyph-name="guillemotright.case" horiz-adv-x="611" 
d="M453 343v19l-167 180h123l147 -155v-70l-147 -154h-123zM222 343v19l-167 180h123l147 -155v-70l-147 -154h-123z" />
    <glyph glyph-name="guillemotleft.case" horiz-adv-x="611" 
d="M158 362v-19l167 -180h-123l-147 154v70l147 155h123zM389 362v-19l167 -180h-123l-147 154v70l147 155h123z" />
    <glyph glyph-name="guilsinglright.case" horiz-adv-x="380" 
d="M222 343v19l-167 180h123l147 -155v-70l-147 -154h-123z" />
    <glyph glyph-name="guilsinglleft.case" horiz-adv-x="380" 
d="M158 362v-19l167 -180h-123l-147 154v70l147 155h123z" />
    <glyph glyph-name="exclamdown.aalt" horiz-adv-x="330" 
d="M227 0h-120v292l21 220h78l21 -220v-292zM101 714h131v-134h-131v134z" />
    <glyph glyph-name="questiondown.aalt" horiz-adv-x="563" 
d="M289 -13q-67 0 -122 25t-81.5 72.5t-26.5 101.5q0 43 13.5 74t37 54.5t71.5 59.5q38 27 51 46.5t13 57.5v34h115v-34q0 -59 -22.5 -93.5t-82.5 -81.5q-45 -34 -57 -49t-17.5 -31t-5.5 -37q0 -29 17 -54t43.5 -35t51.5 -10q116 0 120 118h115q-2 -72 -33.5 -120.5t-82 -73
t-117.5 -24.5zM238 714h131v-134h-131v134z" />
    <glyph glyph-name="a.aalt" horiz-adv-x="629" 
d="M551 509v-509h-110v50h-20q-50 -63 -147 -63q-51 0 -93 20t-72 56t-45.5 85.5t-15.5 106.5t15.5 106t45.5 85t72 56t93 20q97 0 147 -62h20v49h110zM300 426q-67 0 -103 -47t-36 -124t36 -124.5t103 -47.5q44 0 77.5 23t48.5 64t15 85q0 31 -7 59t-20.5 51t-41.5 42
t-72 19z" />
    <glyph glyph-name="aacute.aalt" horiz-adv-x="629" 
d="M551 509v-509h-110v50h-20q-50 -63 -147 -63q-51 0 -93 20t-72 56t-45.5 85.5t-15.5 106.5t15.5 106t45.5 85t72 56t93 20q97 0 147 -62h20v49h110zM300 426q-67 0 -103 -47t-36 -124t36 -124.5t103 -47.5q44 0 77.5 23t48.5 64t15 85q0 31 -7 59t-20.5 51t-41.5 42
t-72 19zM459 727l-113 -145h-102l89 145h126z" />
    <glyph glyph-name="agrave.aalt" horiz-adv-x="629" 
d="M551 509v-509h-110v50h-20q-50 -63 -147 -63q-51 0 -93 20t-72 56t-45.5 85.5t-15.5 106.5t15.5 106t45.5 85t72 56t93 20q97 0 147 -62h20v49h110zM300 426q-67 0 -103 -47t-36 -124t36 -124.5t103 -47.5q44 0 77.5 23t48.5 64t15 85q0 31 -7 59t-20.5 51t-41.5 42
t-72 19zM276 582l-112 145h123l89 -145h-100z" />
    <glyph glyph-name="acircumflex.aalt" horiz-adv-x="629" 
d="M551 509v-509h-110v50h-20q-50 -63 -147 -63q-51 0 -93 20t-72 56t-45.5 85.5t-15.5 106.5t15.5 106t45.5 85t72 56t93 20q97 0 147 -62h20v49h110zM300 426q-67 0 -103 -47t-36 -124t36 -124.5t103 -47.5q44 0 77.5 23t48.5 64t15 85q0 31 -7 59t-20.5 51t-41.5 42
t-72 19zM365 727l111 -145h-97l-59 73h-17l-58 -73h-96l112 145h104z" />
    <glyph glyph-name="adieresis.aalt" horiz-adv-x="629" 
d="M551 509v-509h-110v50h-20q-50 -63 -147 -63q-51 0 -93 20t-72 56t-45.5 85.5t-15.5 106.5t15.5 106t45.5 85t72 56t93 20q97 0 147 -62h20v49h110zM300 426q-67 0 -103 -47t-36 -124t36 -124.5t103 -47.5q44 0 77.5 23t48.5 64t15 85q0 31 -7 59t-20.5 51t-41.5 42
t-72 19zM457 614h-104v113h104v-113zM268 614h-105v113h105v-113z" />
    <glyph glyph-name="atilde.aalt" horiz-adv-x="629" 
d="M551 509v-509h-110v50h-20q-50 -63 -147 -63q-51 0 -93 20t-72 56t-45.5 85.5t-15.5 106.5t15.5 106t45.5 85t72 56t93 20q97 0 147 -62h20v49h110zM300 426q-67 0 -103 -47t-36 -124t36 -124.5t103 -47.5q44 0 77.5 23t48.5 64t15 85q0 31 -7 59t-20.5 51t-41.5 42
t-72 19zM412 722h65q0 -65 -25.5 -100.5t-75.5 -35.5q-11 0 -24 3t-26 9.5t-41.5 25.5t-45.5 19q-33 0 -33 -57h-65q0 65 26 100.5t75 35.5q20 0 39 -7.5t50.5 -28.5t48.5 -21q14 0 23 11t9 46z" />
    <glyph glyph-name="aring.aalt" horiz-adv-x="629" 
d="M313 798q22 0 48.5 -11t45.5 -39t19 -62q0 -21 -11 -47t-39.5 -45t-62.5 -19q-33 0 -62 19t-40.5 45t-11.5 47q0 22 11.5 48t40 45t62.5 19zM313 634q22 0 37.5 15.5t15.5 36.5q0 22 -16 38t-37 16t-37 -16t-16 -38q0 -21 15.5 -36.5t37.5 -15.5zM551 509v-509h-110v50
h-20q-50 -63 -147 -63q-51 0 -93 20t-72 56t-45.5 85.5t-15.5 106.5t15.5 106t45.5 85t72 56t93 20q97 0 147 -62h20v49h110zM300 426q-67 0 -103 -47t-36 -124t36 -124.5t103 -47.5q44 0 77.5 23t48.5 64t15 85q0 31 -7 59t-20.5 51t-41.5 42t-72 19z" />
    <glyph glyph-name="amacron.aalt" horiz-adv-x="629" 
d="M551 509v-509h-110v50h-20q-50 -63 -147 -63q-51 0 -93 20t-72 56t-45.5 85.5t-15.5 106.5t15.5 106t45.5 85t72 56t93 20q97 0 147 -62h20v49h110zM300 426q-67 0 -103 -47t-36 -124t36 -124.5t103 -47.5q44 0 77.5 23t48.5 64t15 85q0 31 -7 59t-20.5 51t-41.5 42
t-72 19zM458 628h-292v77h292v-77z" />
    <glyph glyph-name="abreve.aalt" horiz-adv-x="629" 
d="M551 509v-509h-110v50h-20q-50 -63 -147 -63q-51 0 -93 20t-72 56t-45.5 85.5t-15.5 106.5t15.5 106t45.5 85t72 56t93 20q97 0 147 -62h20v49h110zM300 426q-67 0 -103 -47t-36 -124t36 -124.5t103 -47.5q44 0 77.5 23t48.5 64t15 85q0 31 -7 59t-20.5 51t-41.5 42
t-72 19zM373 727h78q0 -68 -37.5 -106.5t-105.5 -38.5t-106 38.5t-38 106.5h79q0 -72 65 -72q32 0 48.5 19t16.5 53z" />
    <glyph glyph-name="aogonek.aalt" horiz-adv-x="629" 
d="M551 509v-509q-29 -15 -47 -36.5t-18 -44.5q0 -22 18 -35t49 -13v-71h-26q-63 0 -96 26t-33 70q0 14 7 33.5t25.5 39.5t43.5 31h-33v50h-20q-50 -63 -147 -63q-51 0 -93 20t-72 56t-45.5 85.5t-15.5 106.5t15.5 106t45.5 85t72 56t93 20q97 0 147 -62h20v49h110zM300 426
q-67 0 -103 -47t-36 -124t36 -124.5t103 -47.5q44 0 77.5 23t48.5 64t15 85q0 31 -7 59t-20.5 51t-41.5 42t-72 19z" />
    <glyph glyph-name="t.aalt" horiz-adv-x="393" 
d="M231 0h-113v413h-93v96h93v148h113v-148h134v-96h-134v-413z" />
    <glyph glyph-name="tcaron.aalt" horiz-adv-x="428" 
d="M385 657h-58v111h125v-128l-65 -82h-67l65 82v17zM231 0h-113v413h-93v96h93v148h113v-148h134v-96h-134v-413z" />
    <glyph glyph-name="tcommaaccent.aalt" horiz-adv-x="393" 
d="M231 0h-113v413h-93v96h93v148h113v-148h134v-96h-134v-413zM178 -226h-74l62 64v17h-52v89h125v-106z" />
    <glyph glyph-name="Y.aalt" horiz-adv-x="662" 
d="M325 368h28l165 346h123l-342 -714h-122l102 214l-264 500h128z" />
    <glyph glyph-name="Yacute.aalt" horiz-adv-x="662" 
d="M325 368h28l165 346h123l-342 -714h-122l102 214l-264 500h128zM495 896l-113 -129h-105l88 129h130z" />
    <glyph glyph-name="Ydieresis.aalt" horiz-adv-x="662" 
d="M325 368h28l165 346h123l-342 -714h-122l102 214l-264 500h128zM484 790h-104v106h104v-106zM295 790h-105v106h105v-106z" />
    <glyph glyph-name="ampersand.aalt" horiz-adv-x="669" 
d="M638 423v-98h-68v-104q0 -51 -19 -94.5t-53.5 -74.5t-83 -48t-105.5 -17q-58 0 -107.5 15.5t-84.5 44t-53.5 68.5t-18.5 86q0 66 32.5 110t75.5 58v20q-25 11 -45 33.5t-28 51t-8 54.5q0 31 11.5 63.5t39 59.5t72 45t103.5 18q96 0 154.5 -45.5t69.5 -124.5h-114
q-10 35 -38.5 53.5t-73.5 18.5q-24 0 -50 -8.5t-43.5 -31.5t-17.5 -53q0 -45 31.5 -72.5t87.5 -27.5h45v-98h-45q-67 0 -105.5 -29.5t-38.5 -88.5q0 -41 23 -69.5t59 -39t67 -10.5q71 0 109 34.5t38 98.5v202h182z" />
    <glyph glyph-name="zero.ss07" horiz-adv-x="636" 
d="M317 714q57 0 106 -21.5t85 -66.5t56 -115t20 -161t-20 -160.5t-56 -114.5t-85 -66.5t-106 -21.5t-105.5 21.5t-84 66.5t-55.5 114.5t-20 160.5t20 161t55.5 115t84 66.5t105.5 21.5zM169 350q0 -109 27 -171l198 406q-14 11 -34.5 18t-42.5 7q-49 0 -81.5 -30.5
t-49.5 -87.5t-17 -142zM317 91q50 0 82.5 30.5t50 87t17.5 141.5q0 102 -28 170l-198 -405q34 -24 76 -24z" />
    <glyph glyph-name="emdash.ss02" horiz-adv-x="1444" 
d="M1398 234h-1352v91h1352v-91z" />
    <glyph glyph-name="afii10065.aalt" horiz-adv-x="629" 
d="M551 509v-509h-110v50h-20q-50 -63 -147 -63q-51 0 -93 20t-72 56t-45.5 85.5t-15.5 106.5t15.5 106t45.5 85t72 56t93 20q97 0 147 -62h20v49h110zM300 426q-67 0 -103 -47t-36 -124t36 -124.5t103 -47.5q44 0 77.5 23t48.5 64t15 85q0 31 -7 59t-20.5 51t-41.5 42
t-72 19z" />
    <glyph glyph-name="afii10037.aalt" horiz-adv-x="662" 
d="M132 0v116h30q38 0 61.5 13.5t39.5 46.5l20 41l-263 497h128l181 -344h28l164 344h122l-264 -554q-41 -88 -88 -124t-126 -36h-33z" />
    <glyph glyph-name="afii10062.aalt" horiz-adv-x="662" 
d="M132 0v116h30q38 0 61.5 13.5t39.5 46.5l20 41l-263 497h128l181 -344h28l164 344h122l-264 -554q-41 -88 -88 -124t-126 -36h-33zM425 904h91q-4 -72 -53 -113t-129 -41q-79 0 -128 41t-53 113h92q1 -24 15 -42.5t35 -25.5t39 -7q39 0 63.5 20.5t27.5 54.5z" />
    <glyph glyph-name="quotedbl.aalt" horiz-adv-x="317" 
d="M80 473v241h34v-241h-34zM203 473v241h34v-241h-34z" />
    <glyph glyph-name="numbersign.aalt" horiz-adv-x="551" 
d="M300 0l32 208h-159l-32 -208h-34l32 208h-104v31h110l34 222h-102v31h107l33 208h34l-34 -208h161l33 208h34l-33 -208h104v-31h-109l-35 -222h103v-31h-108l-32 -208h-35zM213 461l-35 -222h160l35 222h-160z" />
    <glyph glyph-name="quotesingle.aalt" horiz-adv-x="194" 
d="M80 473v241h34v-241h-34z" />
    <glyph glyph-name="parenleft.ss01" horiz-adv-x="238" 
d="M232 759q-148 -188 -148 -450q0 -261 148 -450h-43q-139 189 -139 450t140 450h42z" />
    <glyph glyph-name="parenright.ss01" horiz-adv-x="240" 
d="M6 759h42q140 -189 140 -450t-139 -450h-43q148 189 148 450q0 262 -148 450z" />
    <glyph glyph-name="bracketleft.ss01" horiz-adv-x="258" 
d="M198 -141h-118v900h118v-31h-84v-838h84v-31z" />
    <glyph glyph-name="bracketright.ss01" horiz-adv-x="258" 
d="M178 -141h-118v31h84v838h-84v31h118v-900z" />
    <glyph glyph-name="braceleft.ss01" horiz-adv-x="337" 
d="M137 318v-18q18 -7 27 -28t9 -63v-215q0 -54 22 -79t72 -25h30v-31h-30q-63 0 -95.5 31.5t-32.5 104.5v204q0 50 -9 72.5t-37 22.5h-13v30h13q22 0 34 16.5t12 78.5v204q0 73 32.5 104.5t95.5 31.5h30v-31h-30q-50 0 -72 -25t-22 -79v-215q0 -42 -9 -63t-27 -28z" />
    <glyph glyph-name="braceright.ss01" horiz-adv-x="337" 
d="M200 300v18q-18 7 -27 28t-9 63v215q0 54 -22 79t-72 25h-30v31h30q63 0 95.5 -31.5t32.5 -104.5v-204q0 -50 9 -72.5t37 -22.5h13v-30h-13q-22 0 -34 -16.5t-12 -78.5v-204q0 -73 -32.5 -104.5t-95.5 -31.5h-30v31h30q50 0 72 25t22 79v215q0 42 9 63t27 28z" />
    <glyph glyph-name="asterisk.aalt" horiz-adv-x="452" 
d="M209 714h34l-1 -180l170 60l10 -35l-170 -55l107 -141l-28 -23l-105 147l-105 -147l-28 23l108 142l-171 54l11 35l169 -60z" />
    <glyph glyph-name="plus.aalt" horiz-adv-x="678" 
d="M323 303v239h33v-239h239v-31h-239v-240h-33v240h-240v31h240z" />
    <glyph glyph-name="minus.aalt" horiz-adv-x="678" 
d="M595 272h-512v31h512v-31z" />
    <glyph glyph-name="less.aalt" horiz-adv-x="670" 
d="M587 81v-33l-504 216v44l504 216v-33l-454 -196v-18z" />
    <glyph glyph-name="equal.aalt" horiz-adv-x="676" 
d="M593 206v-31h-510v31h510zM593 398v-31h-510v31h510z" />
    <glyph glyph-name="greater.aalt" horiz-adv-x="670" 
d="M83 48v33l454 196v18l-454 196v33l504 -216v-44z" />
    <glyph glyph-name="hyphen.ss01" horiz-adv-x="384" 
d="M336 264h-288v31h288v-31z" />
    <glyph glyph-name="endash.ss01" horiz-adv-x="619" 
d="M572 264h-526v31h526v-31z" />
    <glyph glyph-name="emdash.ss01" horiz-adv-x="878" 
d="M831 264h-785v31h785v-31z" />
    <glyph glyph-name="emdash.ss01.ss02" horiz-adv-x="1444" 
d="M1398 264h-1352v31h1352v-31z" />
    <glyph glyph-name="underscore.aalt" horiz-adv-x="509" 
d="M510 -120h-511v31h511v-31z" />
    <glyph glyph-name="slash.aalt" horiz-adv-x="365" 
d="M36 -141h-36l302 900h33z" />
    <glyph glyph-name="bar.aalt" horiz-adv-x="214" 
d="M90 -141v900h34v-900h-34z" />
    <glyph glyph-name="backslash.aalt" horiz-adv-x="365" 
d="M365 -141h-36l-299 900h33z" />
    <glyph glyph-name="degree.aalt" horiz-adv-x="461" 
d="M40 523q0 31 9.5 64.5t33 63t61 50t86.5 20.5q29 0 61.5 -10t61 -34t48.5 -63t20 -91q0 -30 -9.5 -63.5t-33 -63t-61.5 -50t-87 -20.5q-29 0 -61 10t-64 37t-48.5 68t-16.5 82zM74 523q0 -43 19.5 -83t57.5 -61.5t79 -21.5q68 0 112.5 47.5t44.5 118.5t-44.5 119
t-112.5 48q-25 0 -51.5 -8.5t-49.5 -29t-39 -53t-16 -76.5z" />
    <glyph glyph-name="guillemotleft.ss01" horiz-adv-x="484" 
d="M91 295v-18l172 -180h-42l-166 169v39l166 171h42zM257 295v-18l172 -180h-42l-166 169v39l166 171h42z" />
    <glyph glyph-name="guillemotright.ss01" horiz-adv-x="485" 
d="M394 277v18l-173 181h42l167 -170v-39l-165 -170h-42zM228 277v18l-173 181h42l167 -170v-39l-165 -170h-42z" />
    <glyph glyph-name="guilsinglleft.ss01" horiz-adv-x="318" 
d="M91 295v-18l172 -180h-42l-166 169v39l166 171h42z" />
    <glyph glyph-name="guilsinglright.ss01" horiz-adv-x="318" 
d="M227 277v18l-172 181h42l166 -171v-39l-166 -169h-42z" />
    <glyph glyph-name="quoteleft.aalt" horiz-adv-x="234" 
d="M106 610h33v-102h-64v119l48 87h31l-48 -87v-17z" />
    <glyph glyph-name="quoteright.aalt" horiz-adv-x="234" 
d="M123 612h-33v102h64v-119l-48 -87h-31l48 87v17z" />
    <glyph glyph-name="quotesinglbase.aalt" horiz-adv-x="234" 
d="M123 0h-33v102h64v-119l-48 -87h-31l48 87v17z" />
    <glyph glyph-name="quotedblleft.aalt" horiz-adv-x="371" 
d="M243 610h33v-102h-64v119l48 87h31l-48 -87v-17zM106 610h33v-102h-64v119l48 87h31l-48 -87v-17z" />
    <glyph glyph-name="quotedblright.aalt" horiz-adv-x="371" 
d="M123 612h-33v102h64v-119l-48 -87h-31l48 87v17zM260 612h-33v102h64v-119l-48 -87h-31l48 87v17z" />
    <glyph glyph-name="quotedblbase.aalt" horiz-adv-x="371" 
d="M123 0h-33v102h64v-119l-48 -87h-31l48 87v17zM260 0h-33v102h64v-119l-48 -87h-31l48 87v17z" />
    <glyph glyph-name="arrowleft.aalt" horiz-adv-x="814" 
d="M299 509h46l-218 -219v-20h631v-31h-631v-21l218 -218h-46l-255 254z" />
    <glyph glyph-name="arrowup.aalt" horiz-adv-x="675" 
d="M592 459v-46l-218 220h-19v-633h-34v633h-19l-219 -221v46l255 256z" />
    <glyph glyph-name="arrowright.aalt" horiz-adv-x="814" 
d="M469 509h46l255 -255l-255 -254h-46l218 218v21h-631v31h631v20z" />
    <glyph glyph-name="arrowdown.aalt" horiz-adv-x="675" 
d="M592 301v-46l-254 -255l-255 256v46l219 -221h19v633h34v-633h19z" />
    <glyph glyph-name="uni2196.aalt" horiz-adv-x="682" 
d="M444 714l32 -32h-309l-13 -14l445 -447l-23 -23l-447 446l-13 -14v-310l-33 33v361h361z" />
    <glyph glyph-name="uni2197.aalt" horiz-adv-x="682" 
d="M206 682l32 32h361v-361l-33 -33v310l-13 14l-447 -446l-23 23l445 447l-13 14h-309z" />
    <glyph glyph-name="uni2198.aalt" horiz-adv-x="682" 
d="M476 32l-32 -32h-361v361l33 33v-310l13 -14l447 446l23 -23l-445 -447l13 -14h309z" />
    <glyph glyph-name="uni2199.aalt" horiz-adv-x="682" 
d="M238 0l-32 32h309l13 14l-445 447l23 23l447 -446l13 14v310l33 -33v-361h-361z" />
    <glyph glyph-name="parenleft.case.ss01" horiz-adv-x="238" 
d="M232 807q-148 -188 -148 -450q0 -261 148 -450h-43q-139 189 -139 450t140 450h42z" />
    <glyph glyph-name="parenright.case.ss01" horiz-adv-x="238" 
d="M6 807h42q140 -189 140 -450t-139 -450h-43q148 189 148 450q0 262 -148 450z" />
    <glyph glyph-name="bracketleft.case.ss01" horiz-adv-x="258" 
d="M198 -93h-118v900h118v-31h-84v-838h84v-31z" />
    <glyph glyph-name="bracketright.case.ss01" horiz-adv-x="258" 
d="M178 -93h-118v31h84v838h-84v31h118v-900z" />
    <glyph glyph-name="braceleft.case.ss01" horiz-adv-x="337" 
d="M137 366v-18q18 -7 27 -28t9 -63v-215q0 -54 22 -79t72 -25h30v-31h-30q-63 0 -95.5 31.5t-32.5 104.5v204q0 50 -9 72.5t-37 22.5h-13v30h13q22 0 34 16.5t12 78.5v204q0 73 32.5 104.5t95.5 31.5h30v-31h-30q-50 0 -72 -25t-22 -79v-215q0 -42 -9 -63t-27 -28z" />
    <glyph glyph-name="braceright.case.ss01" horiz-adv-x="337" 
d="M200 348v18q-18 7 -27 28t-9 63v215q0 54 -22 79t-72 25h-30v31h30q63 0 95.5 -31.5t32.5 -104.5v-204q0 -50 9 -72.5t37 -22.5h13v-30h-13q-22 0 -34 -16.5t-12 -78.5v-204q0 -73 -32.5 -104.5t-95.5 -31.5h-30v31h30q50 0 72 25t22 79v215q0 42 9 63t27 28z" />
    <glyph glyph-name="guillemotleft.case.ss01" horiz-adv-x="484" 
d="M91 361v-18l172 -180h-42l-166 169v39l166 171h42zM257 361v-18l172 -180h-42l-166 169v39l166 171h42z" />
    <glyph glyph-name="guillemotright.case.ss01" horiz-adv-x="485" 
d="M394 343v18l-173 181h42l167 -170v-39l-165 -170h-42zM228 343v18l-173 181h42l167 -170v-39l-165 -170h-42z" />
    <glyph glyph-name="guilsinglleft.case.ss01" horiz-adv-x="318" 
d="M91 361v-18l172 -180h-42l-166 169v39l166 171h42z" />
    <glyph glyph-name="guilsinglright.case.ss01" horiz-adv-x="318" 
d="M227 343v18l-172 181h42l166 -171v-39l-166 -169h-42z" />
    <glyph glyph-name="hyphen.case.ss01" horiz-adv-x="384" 
d="M336 349h-288v31h288v-31z" />
    <glyph glyph-name="endash.case.ss01" horiz-adv-x="619" 
d="M572 349h-526v31h526v-31z" />
    <glyph glyph-name="emdash.case.ss01" horiz-adv-x="878" 
d="M831 349h-785v31h785v-31z" />
    <glyph glyph-name="emdash.case.ss01.ss02" horiz-adv-x="1445" 
d="M1398 349h-1352v31h1352v-31z" />
    <glyph glyph-name="tbar.aalt" horiz-adv-x="393" 
d="M231 0h-113v237h-93v92h93v88h-93v92h93v148h113v-148h134v-92h-134v-88h134v-92h-134v-237z" />
    <glyph glyph-name="at.aalt" horiz-adv-x="976" 
d="M673 44l27 -53q-119 -76 -266 -76q-86 0 -158 27.5t-122 78.5t-76.5 122t-26.5 155q0 50 12 114t44.5 128.5t81.5 115t112.5 84.5t127.5 46.5t114 12.5q77 0 147 -24t123 -70t83 -111.5t30 -144.5q0 -62 -16 -118t-46.5 -99t-75.5 -67.5t-99 -24.5q-82 0 -108 59h-18
q-51 -59 -129 -59q-75 0 -118 46t-43 129q0 49 15.5 95t44 82t68.5 57t87 21q37 0 65.5 -14.5t39.5 -33.5h18l8 34h92l-44 -254q-5 -32 -5 -49q0 -27 11.5 -39t36.5 -12q26 0 52.5 15.5t48.5 45.5t35.5 75.5t13.5 102.5q0 65 -21.5 120.5t-63 95t-103.5 61t-140 21.5
q-39 0 -90.5 -10t-105 -38.5t-96.5 -71t-72 -98t-40 -111.5t-11 -100q0 -68 18 -128.5t57 -107t101.5 -73t147.5 -26.5q125 0 232 69zM458 218q33 0 62.5 21.5t45 62.5t15.5 85q0 105 -85 105q-20 0 -41 -9.5t-40.5 -33.5t-29.5 -59.5t-10 -65.5q0 -49 21.5 -77.5
t61.5 -28.5z" />
    </font>
</defs>
</svg>
